M48
INCH
T1C0.0118
T2C0.0157
T3C0.0157
T4C0.0236
T5C0.0315
T6C0.0320
T7C0.0335
%
G90
G05
T1
X003445Y-000394
X003445Y-001476
X003445Y-002362
X003839Y-002756
X004626Y-002559
X004835Y-001193
X005154Y-006575
X005185Y-003543
X005217Y-000886
X005252Y-004185
X005268Y-005602
X005350Y-004862
X005413Y-002756
X005465Y-006984
X005496Y-007528
X005709Y-002559
X005932Y-000965
X005967Y-003384
X006496Y-000787
X006496Y-002559
X006650Y-007130
X006657Y-004894
X006850Y-007496
X006892Y-001970
X006988Y-006693
X007480Y-001870
X008563Y-005315
X009209Y-003398
X009232Y-004390
X009252Y-007512
X009843Y-004134
X009843Y-005413
X009941Y-002165
X010138Y-000591
X010177Y-007528
X010531Y-001083
X010531Y-002461
X010925Y-000492
X010925Y-005413
X011315Y-003402
X011319Y-004390
X011362Y-007496
X012106Y-005512
X012457Y-003618
X012500Y-000827
X012697Y-001772
X012744Y-007465
X013583Y-001870
X013681Y-000886
X013780Y-003937
X014272Y-002264
X014665Y-000827
X014961Y-004035
X015846Y-004272
X015992Y-003177
X017720Y-004039
X017913Y-003150
X018092Y-004730
X018094Y-004154
X018406Y-003150
X018602Y-004331
X018996Y-002756
X019094Y-003248
X019587Y-003543
X019622Y-002547
X019685Y-003051
X019882Y-004134
X019941Y-002287
X020276Y-005315
X020965Y-007579
X021100Y-002745
X021358Y-005315
X021457Y-002750
X021969Y-004114
X022047Y-007382
X022118Y-002134
X022122Y-002555
X022657Y-004213
X023031Y-006890
X023031Y-007579
X023819Y-006693
X023819Y-007677
X024213Y-003445
X024409Y-007185
X024902Y-000394
X024902Y-001772
X024902Y-002657
X025000Y-006748
X025098Y-007579
X025295Y-000984
X025295Y-003445
T2
X006476Y-003884
X006476Y-006049
X007087Y-003937
X007087Y-006004
X015059Y-004724
X015236Y-001461
X016031Y-001301
X017920Y-001259
T3
X011732Y-001220
X011732Y-001929
T5
X014272Y-001406
X014272Y-003327
T6
X016504Y-000728
X017504Y-000728
X018504Y-000728
X019504Y-000728
X020504Y-000728
T7
X021850Y-001631
X023819Y-001631
T4
G00X021457Y-000706
M15
G01X021457Y-000430
M16
G05
G00X024213Y-000430
M15
G01X024213Y-000706
M16
G05
T0
M30
