M48
METRIC
T1C0.300
T2C0.400
T3C0.400
T4C0.600
T5C0.800
T6C0.813
T7C0.850
%
G90
G05
T1
X008750Y-001000
X008750Y-003750
X008750Y-006000
X009750Y-007000
X011750Y-006499
X012280Y-003030
X013090Y-016700
X013170Y-009000
X013250Y-002250
X013340Y-010630
X013380Y-014230
X013590Y-012350
X013750Y-007000
X013880Y-017740
X013960Y-019120
X014500Y-006499
X015068Y-002451
X015155Y-008595
X016500Y-002000
X016500Y-006500
X016890Y-018110
X016910Y-012430
X017400Y-019040
X017505Y-005005
X017750Y-017000
X019000Y-004750
X021750Y-013500
X023390Y-008630
X023450Y-011150
X023500Y-019080
X025000Y-010500
X025000Y-013750
X025250Y-005500
X025750Y-001500
X025850Y-019120
X026750Y-002750
X026750Y-006250
X027750Y-001250
X027750Y-013750
X028740Y-008640
X028750Y-011150
X028860Y-019040
X030750Y-014000
X031640Y-009190
X031750Y-002100
X032250Y-004500
X032370Y-018960
X034500Y-004750
X034750Y-002250
X035000Y-010000
X036250Y-005750
X037250Y-002100
X038000Y-010250
X040250Y-010850
X040619Y-008069
X045010Y-010260
X045500Y-008000
X045955Y-012014
X045960Y-010550
X046750Y-008000
X047250Y-011000
X048250Y-007000
X048500Y-008250
X049750Y-009000
X049840Y-006470
X050000Y-007750
X050500Y-010500
X050650Y-005810
X051500Y-013500
X053250Y-019250
X053593Y-006973
X054250Y-013500
X054500Y-006986
X055800Y-010450
X056000Y-018750
X056180Y-005420
X056190Y-006490
X057550Y-010700
X058500Y-017500
X058500Y-019250
X060500Y-017000
X060500Y-019500
X061500Y-008750
X062000Y-018250
X063250Y-001000
X063250Y-004500
X063250Y-006750
X063500Y-017140
X063750Y-019250
X064250Y-002500
X064250Y-008750
T2
X016450Y-009865
X016450Y-015365
X018000Y-010000
X018000Y-015250
X038250Y-012000
X038700Y-003710
X040718Y-003305
X045516Y-003198
T3
X029800Y-003100
X029800Y-004900
T5
X036250Y-003570
X036250Y-008450
T6
X041920Y-001850
X044460Y-001850
X047000Y-001850
X049540Y-001850
X052080Y-001850
T7
X055500Y-004143
X060500Y-004143
T4
G00X054500Y-001793
M15
G01X054500Y-001093
M16
G05
G00X061500Y-001093
M15
G01X061500Y-001793
M16
G05
T0
M30
