%TF.GenerationSoftware,KiCad,Pcbnew,(6.0.8)*%
%TF.CreationDate,2022-11-15T14:19:18+02:00*%
%TF.ProjectId,ServoController,53657276-6f43-46f6-9e74-726f6c6c6572,rev?*%
%TF.SameCoordinates,PXe3ed9c0PYb6ddf70*%
%TF.FileFunction,Legend,Top*%
%TF.FilePolarity,Positive*%
%FSLAX46Y46*%
G04 Gerber Fmt 4.6, Leading zero omitted, Abs format (unit mm)*
G04 Created by KiCad (PCBNEW (6.0.8)) date 2022-11-15 14:19:18*
%MOMM*%
%LPD*%
G01*
G04 APERTURE LIST*
G04 Aperture macros list*
%AMRoundRect*
0 Rectangle with rounded corners*
0 $1 Rounding radius*
0 $2 $3 $4 $5 $6 $7 $8 $9 X,Y pos of 4 corners*
0 Add a 4 corners polygon primitive as box body*
4,1,4,$2,$3,$4,$5,$6,$7,$8,$9,$2,$3,0*
0 Add four circle primitives for the rounded corners*
1,1,$1+$1,$2,$3*
1,1,$1+$1,$4,$5*
1,1,$1+$1,$6,$7*
1,1,$1+$1,$8,$9*
0 Add four rect primitives between the rounded corners*
20,1,$1+$1,$2,$3,$4,$5,0*
20,1,$1+$1,$4,$5,$6,$7,0*
20,1,$1+$1,$6,$7,$8,$9,0*
20,1,$1+$1,$8,$9,$2,$3,0*%
G04 Aperture macros list end*
%ADD10C,0.250000*%
%ADD11C,0.150000*%
%ADD12C,0.120000*%
%ADD13C,0.002540*%
%ADD14C,0.100000*%
%ADD15RoundRect,0.135000X0.135000X0.185000X-0.135000X0.185000X-0.135000X-0.185000X0.135000X-0.185000X0*%
%ADD16RoundRect,0.140000X0.140000X0.170000X-0.140000X0.170000X-0.140000X-0.170000X0.140000X-0.170000X0*%
%ADD17RoundRect,0.135000X-0.135000X-0.185000X0.135000X-0.185000X0.135000X0.185000X-0.135000X0.185000X0*%
%ADD18R,0.700000X0.600000*%
%ADD19RoundRect,0.135000X0.185000X-0.135000X0.185000X0.135000X-0.185000X0.135000X-0.185000X-0.135000X0*%
%ADD20C,1.500000*%
%ADD21R,5.100000X3.000000*%
%ADD22RoundRect,0.140000X-0.140000X-0.170000X0.140000X-0.170000X0.140000X0.170000X-0.140000X0.170000X0*%
%ADD23RoundRect,0.250000X0.475000X-0.250000X0.475000X0.250000X-0.475000X0.250000X-0.475000X-0.250000X0*%
%ADD24C,1.700000*%
%ADD25R,1.700000X1.700000*%
%ADD26R,5.100000X1.700000*%
%ADD27RoundRect,0.218750X0.218750X0.381250X-0.218750X0.381250X-0.218750X-0.381250X0.218750X-0.381250X0*%
%ADD28RoundRect,0.140000X0.170000X-0.140000X0.170000X0.140000X-0.170000X0.140000X-0.170000X-0.140000X0*%
%ADD29R,2.332000X3.957600*%
%ADD30R,2.032000X1.300000*%
%ADD31C,1.450000*%
%ADD32R,1.200000X1.900000*%
%ADD33R,1.500000X1.900000*%
%ADD34O,1.200000X1.900000*%
%ADD35R,0.400000X1.350000*%
%ADD36O,0.260000X1.400000*%
%ADD37O,1.400000X0.260000*%
%ADD38R,1.600000X0.650000*%
%ADD39RoundRect,0.140000X-0.170000X0.140000X-0.170000X-0.140000X0.170000X-0.140000X0.170000X0.140000X0*%
%ADD40RoundRect,0.250000X-0.475000X0.250000X-0.475000X-0.250000X0.475000X-0.250000X0.475000X0.250000X0*%
%ADD41RoundRect,0.225000X0.225000X0.250000X-0.225000X0.250000X-0.225000X-0.250000X0.225000X-0.250000X0*%
%ADD42RoundRect,0.147500X0.147500X0.172500X-0.147500X0.172500X-0.147500X-0.172500X0.147500X-0.172500X0*%
%ADD43R,1.000000X0.550000*%
%ADD44R,1.000000X1.000000*%
%ADD45RoundRect,0.135000X-0.185000X0.135000X-0.185000X-0.135000X0.185000X-0.135000X0.185000X0.135000X0*%
G04 APERTURE END LIST*
D10*
X40150000Y-1850000D02*
X39400000Y-1100000D01*
X39400000Y-2600000D02*
X40150000Y-1850000D01*
X39400000Y-1100000D02*
X39400000Y-2600000D01*
D11*
X63868775Y-11654761D02*
X64011632Y-11702380D01*
X64249727Y-11702380D01*
X64344965Y-11654761D01*
X64392584Y-11607142D01*
X64440203Y-11511904D01*
X64440203Y-11416666D01*
X64392584Y-11321428D01*
X64344965Y-11273809D01*
X64249727Y-11226190D01*
X64059251Y-11178571D01*
X63964013Y-11130952D01*
X63916394Y-11083333D01*
X63868775Y-10988095D01*
X63868775Y-10892857D01*
X63916394Y-10797619D01*
X63964013Y-10750000D01*
X64059251Y-10702380D01*
X64297346Y-10702380D01*
X64440203Y-10750000D01*
X7407023Y-2452380D02*
X7073690Y-1976190D01*
X6835595Y-2452380D02*
X6835595Y-1452380D01*
X7216547Y-1452380D01*
X7311785Y-1500000D01*
X7359404Y-1547619D01*
X7407023Y-1642857D01*
X7407023Y-1785714D01*
X7359404Y-1880952D01*
X7311785Y-1928571D01*
X7216547Y-1976190D01*
X6835595Y-1976190D01*
X7835595Y-2071428D02*
X8597500Y-2071428D01*
X63630680Y-18321428D02*
X64392584Y-18321428D01*
X23785714Y-15952380D02*
X24023809Y-16952380D01*
X24214285Y-16238095D01*
X24404761Y-16952380D01*
X24642857Y-15952380D01*
X24928571Y-15952380D02*
X25166666Y-16952380D01*
X25357142Y-16238095D01*
X25547619Y-16952380D01*
X25785714Y-15952380D01*
X26071428Y-15952380D02*
X26309523Y-16952380D01*
X26500000Y-16238095D01*
X26690476Y-16952380D01*
X26928571Y-15952380D01*
X27309523Y-16857142D02*
X27357142Y-16904761D01*
X27309523Y-16952380D01*
X27261904Y-16904761D01*
X27309523Y-16857142D01*
X27309523Y-16952380D01*
X28357142Y-16952380D02*
X28023809Y-16476190D01*
X27785714Y-16952380D02*
X27785714Y-15952380D01*
X28166666Y-15952380D01*
X28261904Y-16000000D01*
X28309523Y-16047619D01*
X28357142Y-16142857D01*
X28357142Y-16285714D01*
X28309523Y-16380952D01*
X28261904Y-16428571D01*
X28166666Y-16476190D01*
X27785714Y-16476190D01*
X28976190Y-15952380D02*
X29166666Y-15952380D01*
X29261904Y-16000000D01*
X29357142Y-16095238D01*
X29404761Y-16285714D01*
X29404761Y-16619047D01*
X29357142Y-16809523D01*
X29261904Y-16904761D01*
X29166666Y-16952380D01*
X28976190Y-16952380D01*
X28880952Y-16904761D01*
X28785714Y-16809523D01*
X28738095Y-16619047D01*
X28738095Y-16285714D01*
X28785714Y-16095238D01*
X28880952Y-16000000D01*
X28976190Y-15952380D01*
X30404761Y-16857142D02*
X30357142Y-16904761D01*
X30214285Y-16952380D01*
X30119047Y-16952380D01*
X29976190Y-16904761D01*
X29880952Y-16809523D01*
X29833333Y-16714285D01*
X29785714Y-16523809D01*
X29785714Y-16380952D01*
X29833333Y-16190476D01*
X29880952Y-16095238D01*
X29976190Y-16000000D01*
X30119047Y-15952380D01*
X30214285Y-15952380D01*
X30357142Y-16000000D01*
X30404761Y-16047619D01*
X30833333Y-16952380D02*
X30833333Y-15952380D01*
X31404761Y-16952380D02*
X30976190Y-16380952D01*
X31404761Y-15952380D02*
X30833333Y-16523809D01*
X31833333Y-16428571D02*
X32166666Y-16428571D01*
X32309523Y-16952380D02*
X31833333Y-16952380D01*
X31833333Y-15952380D01*
X32309523Y-15952380D01*
X32595238Y-15952380D02*
X33166666Y-15952380D01*
X32880952Y-16952380D02*
X32880952Y-15952380D01*
X33500000Y-16571428D02*
X34261904Y-16571428D01*
X34690476Y-16904761D02*
X34833333Y-16952380D01*
X35071428Y-16952380D01*
X35166666Y-16904761D01*
X35214285Y-16857142D01*
X35261904Y-16761904D01*
X35261904Y-16666666D01*
X35214285Y-16571428D01*
X35166666Y-16523809D01*
X35071428Y-16476190D01*
X34880952Y-16428571D01*
X34785714Y-16380952D01*
X34738095Y-16333333D01*
X34690476Y-16238095D01*
X34690476Y-16142857D01*
X34738095Y-16047619D01*
X34785714Y-16000000D01*
X34880952Y-15952380D01*
X35119047Y-15952380D01*
X35261904Y-16000000D01*
X36261904Y-16857142D02*
X36214285Y-16904761D01*
X36071428Y-16952380D01*
X35976190Y-16952380D01*
X35833333Y-16904761D01*
X35738095Y-16809523D01*
X35690476Y-16714285D01*
X35642857Y-16523809D01*
X35642857Y-16380952D01*
X35690476Y-16190476D01*
X35738095Y-16095238D01*
X35833333Y-16000000D01*
X35976190Y-15952380D01*
X36071428Y-15952380D01*
X36214285Y-16000000D01*
X36261904Y-16047619D01*
X36690476Y-16952380D02*
X36690476Y-15952380D01*
X37166666Y-16428571D02*
X37500000Y-16428571D01*
X37642857Y-16952380D02*
X37166666Y-16952380D01*
X37166666Y-15952380D01*
X37642857Y-15952380D01*
X38071428Y-16952380D02*
X38071428Y-15952380D01*
X38642857Y-16952380D01*
X38642857Y-15952380D01*
X38976190Y-15952380D02*
X39547619Y-15952380D01*
X39261904Y-16952380D02*
X39261904Y-15952380D01*
X39880952Y-16952380D02*
X39880952Y-15952380D01*
X40309523Y-16904761D02*
X40452380Y-16952380D01*
X40690476Y-16952380D01*
X40785714Y-16904761D01*
X40833333Y-16857142D01*
X40880952Y-16761904D01*
X40880952Y-16666666D01*
X40833333Y-16571428D01*
X40785714Y-16523809D01*
X40690476Y-16476190D01*
X40500000Y-16428571D01*
X40404761Y-16380952D01*
X40357142Y-16333333D01*
X40309523Y-16238095D01*
X40309523Y-16142857D01*
X40357142Y-16047619D01*
X40404761Y-16000000D01*
X40500000Y-15952380D01*
X40738095Y-15952380D01*
X40880952Y-16000000D01*
X41166666Y-15952380D02*
X41738095Y-15952380D01*
X41452380Y-16952380D02*
X41452380Y-15952380D01*
X42071428Y-16857142D02*
X42119047Y-16904761D01*
X42071428Y-16952380D01*
X42023809Y-16904761D01*
X42071428Y-16857142D01*
X42071428Y-16952380D01*
X42547619Y-16952380D02*
X42547619Y-15952380D01*
X42880952Y-16666666D01*
X43214285Y-15952380D01*
X43214285Y-16952380D01*
X43690476Y-16428571D02*
X44023809Y-16428571D01*
X44166666Y-16952380D02*
X43690476Y-16952380D01*
X43690476Y-15952380D01*
X44166666Y-15952380D01*
X7404697Y-4952380D02*
X7071364Y-4476190D01*
X6833269Y-4952380D02*
X6833269Y-3952380D01*
X7214221Y-3952380D01*
X7309459Y-4000000D01*
X7357078Y-4047619D01*
X7404697Y-4142857D01*
X7404697Y-4285714D01*
X7357078Y-4380952D01*
X7309459Y-4428571D01*
X7214221Y-4476190D01*
X6833269Y-4476190D01*
X6835595Y-11702380D02*
X6835595Y-10702380D01*
X7168928Y-11416666D01*
X7502261Y-10702380D01*
X7502261Y-11702380D01*
X8311785Y-11178571D02*
X8454642Y-11226190D01*
X8502261Y-11273809D01*
X8549880Y-11369047D01*
X8549880Y-11511904D01*
X8502261Y-11607142D01*
X8454642Y-11654761D01*
X8359404Y-11702380D01*
X7978452Y-11702380D01*
X7978452Y-10702380D01*
X8311785Y-10702380D01*
X8407023Y-10750000D01*
X8454642Y-10797619D01*
X8502261Y-10892857D01*
X8502261Y-10988095D01*
X8454642Y-11083333D01*
X8407023Y-11130952D01*
X8311785Y-11178571D01*
X7978452Y-11178571D01*
X7407023Y-7452380D02*
X7073690Y-6976190D01*
X6835595Y-7452380D02*
X6835595Y-6452380D01*
X7216547Y-6452380D01*
X7311785Y-6500000D01*
X7359404Y-6547619D01*
X7407023Y-6642857D01*
X7407023Y-6785714D01*
X7359404Y-6880952D01*
X7311785Y-6928571D01*
X7216547Y-6976190D01*
X6835595Y-6976190D01*
X7835595Y-7071428D02*
X8597500Y-7071428D01*
X8216547Y-7452380D02*
X8216547Y-6690476D01*
X6833261Y-15702380D02*
X6833261Y-14702380D01*
X7166594Y-15416666D01*
X7499927Y-14702380D01*
X7499927Y-15702380D01*
X7928499Y-15416666D02*
X8404689Y-15416666D01*
X7833261Y-15702380D02*
X8166594Y-14702380D01*
X8499927Y-15702380D01*
X63652500Y-14571428D02*
X64414404Y-14571428D01*
X64033452Y-14952380D02*
X64033452Y-14190476D01*
D12*
X57653641Y-11880000D02*
X57346359Y-11880000D01*
X57653641Y-11120000D02*
X57346359Y-11120000D01*
X41357836Y-10140000D02*
X41142164Y-10140000D01*
X41357836Y-10860000D02*
X41142164Y-10860000D01*
X40346359Y-6620000D02*
X40653641Y-6620000D01*
X40346359Y-7380000D02*
X40653641Y-7380000D01*
X9650000Y-3400000D02*
X10850000Y-3400000D01*
X10850000Y-1550000D02*
X10850000Y-3400000D01*
X9650000Y-1550000D02*
X9650000Y-3400000D01*
X39370000Y-8903641D02*
X39370000Y-8596359D01*
X40130000Y-8903641D02*
X40130000Y-8596359D01*
X41357836Y-5860000D02*
X41142164Y-5860000D01*
X41357836Y-5140000D02*
X41142164Y-5140000D01*
X38775000Y-2885000D02*
G75*
G03*
X33725000Y-2885000I-2525000J0D01*
G01*
X33725000Y-9135000D02*
G75*
G03*
X38775000Y-9135000I2525000J0D01*
G01*
X33725000Y-9135000D02*
X33725000Y-2885000D01*
X38775000Y-9135000D02*
X38775000Y-2885000D01*
G36*
X45750220Y-16008080D02*
G01*
X45765460Y-16025860D01*
X45768000Y-16028400D01*
X45788320Y-16056340D01*
X45732440Y-16114760D01*
X45686720Y-16168100D01*
X45641000Y-16231600D01*
X45597820Y-16295100D01*
X45562260Y-16353520D01*
X45562260Y-16358600D01*
X45544480Y-16386540D01*
X45534320Y-16399240D01*
X45531780Y-16396700D01*
X45534320Y-16376380D01*
X45559720Y-16305260D01*
X45592740Y-16229060D01*
X45628300Y-16155400D01*
X45666400Y-16094440D01*
X45674020Y-16081740D01*
X45699420Y-16046180D01*
X45719740Y-16020780D01*
X45734980Y-16003000D01*
X45740060Y-16000460D01*
X45750220Y-16008080D01*
G37*
D13*
X45750220Y-16008080D02*
X45765460Y-16025860D01*
X45768000Y-16028400D01*
X45788320Y-16056340D01*
X45732440Y-16114760D01*
X45686720Y-16168100D01*
X45641000Y-16231600D01*
X45597820Y-16295100D01*
X45562260Y-16353520D01*
X45562260Y-16358600D01*
X45544480Y-16386540D01*
X45534320Y-16399240D01*
X45531780Y-16396700D01*
X45534320Y-16376380D01*
X45559720Y-16305260D01*
X45592740Y-16229060D01*
X45628300Y-16155400D01*
X45666400Y-16094440D01*
X45674020Y-16081740D01*
X45699420Y-16046180D01*
X45719740Y-16020780D01*
X45734980Y-16003000D01*
X45740060Y-16000460D01*
X45750220Y-16008080D01*
G36*
X49816760Y-18883360D02*
G01*
X49862480Y-18918920D01*
X49918360Y-18954480D01*
X49989480Y-18992580D01*
X50075840Y-19030680D01*
X50177440Y-19071320D01*
X50299360Y-19117040D01*
X50355240Y-19137360D01*
X50566060Y-19208480D01*
X50426360Y-19208480D01*
X50370480Y-19205940D01*
X50304440Y-19203400D01*
X50230780Y-19200860D01*
X50185060Y-19198320D01*
X50012340Y-19193240D01*
X49824380Y-19188160D01*
X49623720Y-19183080D01*
X49417980Y-19180540D01*
X49204620Y-19180540D01*
X48988720Y-19178000D01*
X48775360Y-19178000D01*
X48562000Y-19180540D01*
X48353720Y-19183080D01*
X48155600Y-19185620D01*
X47967640Y-19190700D01*
X47792380Y-19195780D01*
X47632360Y-19203400D01*
X47589180Y-19205940D01*
X46923700Y-19249120D01*
X46263300Y-19310080D01*
X45613060Y-19386280D01*
X45107600Y-19459940D01*
X45028860Y-19472640D01*
X44972980Y-19480260D01*
X44932340Y-19485340D01*
X44909480Y-19487880D01*
X44904400Y-19485340D01*
X44914560Y-19480260D01*
X44939960Y-19472640D01*
X44970440Y-19462480D01*
X45054260Y-19439620D01*
X45155860Y-19414220D01*
X45270160Y-19386280D01*
X45397160Y-19358340D01*
X45529240Y-19330400D01*
X45666400Y-19302460D01*
X45806100Y-19274520D01*
X45943260Y-19246580D01*
X45983900Y-19241500D01*
X46260760Y-19193240D01*
X46555400Y-19147520D01*
X46865280Y-19104340D01*
X47185320Y-19061160D01*
X47512980Y-19023060D01*
X47845720Y-18987500D01*
X48181000Y-18957020D01*
X48516280Y-18929080D01*
X48846480Y-18903680D01*
X49171600Y-18883360D01*
X49486560Y-18870660D01*
X49499260Y-18868120D01*
X49791360Y-18857960D01*
X49816760Y-18883360D01*
G37*
X49816760Y-18883360D02*
X49862480Y-18918920D01*
X49918360Y-18954480D01*
X49989480Y-18992580D01*
X50075840Y-19030680D01*
X50177440Y-19071320D01*
X50299360Y-19117040D01*
X50355240Y-19137360D01*
X50566060Y-19208480D01*
X50426360Y-19208480D01*
X50370480Y-19205940D01*
X50304440Y-19203400D01*
X50230780Y-19200860D01*
X50185060Y-19198320D01*
X50012340Y-19193240D01*
X49824380Y-19188160D01*
X49623720Y-19183080D01*
X49417980Y-19180540D01*
X49204620Y-19180540D01*
X48988720Y-19178000D01*
X48775360Y-19178000D01*
X48562000Y-19180540D01*
X48353720Y-19183080D01*
X48155600Y-19185620D01*
X47967640Y-19190700D01*
X47792380Y-19195780D01*
X47632360Y-19203400D01*
X47589180Y-19205940D01*
X46923700Y-19249120D01*
X46263300Y-19310080D01*
X45613060Y-19386280D01*
X45107600Y-19459940D01*
X45028860Y-19472640D01*
X44972980Y-19480260D01*
X44932340Y-19485340D01*
X44909480Y-19487880D01*
X44904400Y-19485340D01*
X44914560Y-19480260D01*
X44939960Y-19472640D01*
X44970440Y-19462480D01*
X45054260Y-19439620D01*
X45155860Y-19414220D01*
X45270160Y-19386280D01*
X45397160Y-19358340D01*
X45529240Y-19330400D01*
X45666400Y-19302460D01*
X45806100Y-19274520D01*
X45943260Y-19246580D01*
X45983900Y-19241500D01*
X46260760Y-19193240D01*
X46555400Y-19147520D01*
X46865280Y-19104340D01*
X47185320Y-19061160D01*
X47512980Y-19023060D01*
X47845720Y-18987500D01*
X48181000Y-18957020D01*
X48516280Y-18929080D01*
X48846480Y-18903680D01*
X49171600Y-18883360D01*
X49486560Y-18870660D01*
X49499260Y-18868120D01*
X49791360Y-18857960D01*
X49816760Y-18883360D01*
G36*
X45026320Y-17869900D02*
G01*
X45028860Y-17900380D01*
X45028860Y-17979120D01*
X45031400Y-18042620D01*
X45033940Y-18108660D01*
X45039020Y-18172160D01*
X45044100Y-18220420D01*
X45044100Y-18222960D01*
X45051720Y-18266140D01*
X45056800Y-18301700D01*
X45059340Y-18324560D01*
X45059340Y-18329640D01*
X45051720Y-18337260D01*
X45031400Y-18344880D01*
X45023780Y-18347420D01*
X45000920Y-18352500D01*
X44990760Y-18349960D01*
X44985680Y-18337260D01*
X44978060Y-18271220D01*
X44975520Y-18192480D01*
X44980600Y-18106120D01*
X44988220Y-18014680D01*
X45003460Y-17928320D01*
X45013620Y-17890220D01*
X45018700Y-17869900D01*
X45023780Y-17857200D01*
X45026320Y-17857200D01*
X45026320Y-17869900D01*
G37*
X45026320Y-17869900D02*
X45028860Y-17900380D01*
X45028860Y-17979120D01*
X45031400Y-18042620D01*
X45033940Y-18108660D01*
X45039020Y-18172160D01*
X45044100Y-18220420D01*
X45044100Y-18222960D01*
X45051720Y-18266140D01*
X45056800Y-18301700D01*
X45059340Y-18324560D01*
X45059340Y-18329640D01*
X45051720Y-18337260D01*
X45031400Y-18344880D01*
X45023780Y-18347420D01*
X45000920Y-18352500D01*
X44990760Y-18349960D01*
X44985680Y-18337260D01*
X44978060Y-18271220D01*
X44975520Y-18192480D01*
X44980600Y-18106120D01*
X44988220Y-18014680D01*
X45003460Y-17928320D01*
X45013620Y-17890220D01*
X45018700Y-17869900D01*
X45023780Y-17857200D01*
X45026320Y-17857200D01*
X45026320Y-17869900D01*
G36*
X44876460Y-19500580D02*
G01*
X44868840Y-19500580D01*
X44861220Y-19495500D01*
X44863760Y-19492960D01*
X44876460Y-19492960D01*
X44876460Y-19500580D01*
G37*
X44876460Y-19500580D02*
X44868840Y-19500580D01*
X44861220Y-19495500D01*
X44863760Y-19492960D01*
X44876460Y-19492960D01*
X44876460Y-19500580D01*
G36*
X47472340Y-18908760D02*
G01*
X47231040Y-18944320D01*
X46999900Y-18977340D01*
X46781460Y-19012900D01*
X46573180Y-19048460D01*
X46372520Y-19086560D01*
X46182020Y-19124660D01*
X46024540Y-19155140D01*
X45922940Y-19180540D01*
X45808640Y-19205940D01*
X45569880Y-19261820D01*
X45447960Y-19292300D01*
X45331120Y-19322780D01*
X45221900Y-19350720D01*
X45120300Y-19376120D01*
X45033940Y-19401520D01*
X44962820Y-19421840D01*
X44955200Y-19424380D01*
X44906940Y-19439620D01*
X44985680Y-19368500D01*
X45069500Y-19282140D01*
X45138080Y-19190700D01*
X45191420Y-19099260D01*
X45229520Y-19010360D01*
X45247300Y-18921460D01*
X45249840Y-18878280D01*
X45249840Y-18847800D01*
X45244760Y-18835100D01*
X45234600Y-18830020D01*
X45226980Y-18830020D01*
X45206660Y-18824940D01*
X45173640Y-18814780D01*
X45143160Y-18799540D01*
X45089820Y-18766520D01*
X45044100Y-18718260D01*
X45003460Y-18654760D01*
X44993300Y-18634440D01*
X44975520Y-18596340D01*
X44962820Y-18548080D01*
X44955200Y-18499820D01*
X44950120Y-18454100D01*
X44950120Y-18418540D01*
X44957740Y-18395680D01*
X44970440Y-18388060D01*
X44995840Y-18377900D01*
X45036480Y-18362660D01*
X45082200Y-18349960D01*
X45092360Y-18344880D01*
X45249840Y-18296620D01*
X45389540Y-18248360D01*
X45516540Y-18197560D01*
X45625760Y-18149300D01*
X45717200Y-18101040D01*
X45790860Y-18052780D01*
X45846740Y-18007060D01*
X45859440Y-17994360D01*
X45917860Y-17920700D01*
X45973740Y-17831800D01*
X46029620Y-17727660D01*
X46082960Y-17613360D01*
X46131220Y-17491440D01*
X46174400Y-17364440D01*
X46212500Y-17234900D01*
X46242980Y-17105360D01*
X46255680Y-17029160D01*
X46265840Y-16919940D01*
X46263300Y-16820880D01*
X46245520Y-16737060D01*
X46245520Y-16734520D01*
X46209960Y-16645620D01*
X46161700Y-16546560D01*
X46095660Y-16437340D01*
X46019460Y-16320500D01*
X45933100Y-16193500D01*
X45856900Y-16094440D01*
X45744089Y-15952200D01*
X47972720Y-15952200D01*
X47975260Y-15959820D01*
X47980340Y-15959820D01*
X47987960Y-15957280D01*
X47985420Y-15952200D01*
X47972720Y-15952200D01*
X45744089Y-15952200D01*
X45740060Y-15947120D01*
X45740060Y-15886160D01*
X45749966Y-15787100D01*
X46944020Y-15787100D01*
X46984660Y-15794720D01*
X47076100Y-15815040D01*
X47167540Y-15837900D01*
X47248820Y-15863300D01*
X47317400Y-15888700D01*
X47325020Y-15893780D01*
X47413920Y-15934420D01*
X47614580Y-15939500D01*
X47746660Y-15944580D01*
X47802540Y-15944580D01*
X47848260Y-15947120D01*
X47921920Y-15947120D01*
X47919380Y-15944580D01*
X47904140Y-15942040D01*
X47868580Y-15934420D01*
X47838100Y-15929340D01*
X47741580Y-15911560D01*
X47660300Y-15891240D01*
X47584100Y-15870920D01*
X47512980Y-15845520D01*
X47398680Y-15799800D01*
X47347880Y-15782020D01*
X47307240Y-15766780D01*
X47276760Y-15759160D01*
X47233580Y-15754080D01*
X47177700Y-15751540D01*
X47114200Y-15756620D01*
X47053240Y-15761700D01*
X47002440Y-15771860D01*
X46994820Y-15774400D01*
X46944020Y-15787100D01*
X45749966Y-15787100D01*
X45750220Y-15784560D01*
X45780700Y-15688040D01*
X45828960Y-15594060D01*
X45895000Y-15502620D01*
X45968660Y-15428960D01*
X46022000Y-15390860D01*
X46072800Y-15370540D01*
X46126140Y-15362920D01*
X46189640Y-15373080D01*
X46260760Y-15395940D01*
X46293780Y-15408640D01*
X46349660Y-15431500D01*
X46403000Y-15451820D01*
X46458880Y-15469600D01*
X46519840Y-15484840D01*
X46588420Y-15500080D01*
X46669700Y-15515320D01*
X46763680Y-15530560D01*
X46839880Y-15543260D01*
X46877980Y-15548340D01*
X46913540Y-15550880D01*
X46949100Y-15555960D01*
X46987200Y-15558500D01*
X47030380Y-15561040D01*
X47081180Y-15563580D01*
X47215800Y-15563580D01*
X47304700Y-15566120D01*
X47622200Y-15566120D01*
X47698400Y-15568660D01*
X47759360Y-15568660D01*
X47810160Y-15571200D01*
X47853340Y-15573740D01*
X47886360Y-15576280D01*
X47914300Y-15578820D01*
X47942240Y-15583900D01*
X47944780Y-15583900D01*
X48061620Y-15614380D01*
X48186080Y-15660100D01*
X48315620Y-15721060D01*
X48450240Y-15797260D01*
X48528980Y-15848060D01*
X48628040Y-15914100D01*
X48716940Y-15982680D01*
X48800760Y-16053800D01*
X48882040Y-16130000D01*
X48963320Y-16213820D01*
X49044600Y-16307800D01*
X49130960Y-16417020D01*
X49189380Y-16493220D01*
X49260500Y-16589740D01*
X49324000Y-16668480D01*
X49382420Y-16734520D01*
X49438300Y-16790400D01*
X49491640Y-16838660D01*
X49550060Y-16881840D01*
X49611020Y-16917400D01*
X49679600Y-16952960D01*
X49758340Y-16988520D01*
X49834540Y-17019000D01*
X50096160Y-17130760D01*
X50342540Y-17247600D01*
X50573680Y-17369520D01*
X50576220Y-17372060D01*
X50627020Y-17400000D01*
X50660040Y-17420320D01*
X50682900Y-17435560D01*
X50693060Y-17448260D01*
X50698140Y-17458420D01*
X50700680Y-17468580D01*
X50690520Y-17514300D01*
X50662580Y-17567640D01*
X50621940Y-17620980D01*
X50568600Y-17674320D01*
X50502560Y-17725120D01*
X50428900Y-17773380D01*
X50350160Y-17814020D01*
X50235860Y-17859740D01*
X50159660Y-17887680D01*
X50078380Y-17915620D01*
X49994560Y-17943560D01*
X49915820Y-17968960D01*
X49793900Y-18004520D01*
X49776120Y-18111200D01*
X49765960Y-18174700D01*
X49758340Y-18245820D01*
X49753260Y-18322020D01*
X49745640Y-18398220D01*
X49743100Y-18469340D01*
X49740560Y-18530300D01*
X49740560Y-18657300D01*
X49692300Y-18664920D01*
X49671980Y-18667460D01*
X49633880Y-18670000D01*
X49580540Y-18675080D01*
X49517040Y-18682700D01*
X49440840Y-18690320D01*
X49357020Y-18697940D01*
X49268120Y-18708100D01*
X49240180Y-18710640D01*
X48902360Y-18743660D01*
X48582320Y-18776680D01*
X48280060Y-18809700D01*
X47995580Y-18842720D01*
X47987960Y-18845260D01*
X47921920Y-18852880D01*
X47726340Y-18875740D01*
X47472340Y-18908760D01*
G37*
X47472340Y-18908760D02*
X47231040Y-18944320D01*
X46999900Y-18977340D01*
X46781460Y-19012900D01*
X46573180Y-19048460D01*
X46372520Y-19086560D01*
X46182020Y-19124660D01*
X46024540Y-19155140D01*
X45922940Y-19180540D01*
X45808640Y-19205940D01*
X45569880Y-19261820D01*
X45447960Y-19292300D01*
X45331120Y-19322780D01*
X45221900Y-19350720D01*
X45120300Y-19376120D01*
X45033940Y-19401520D01*
X44962820Y-19421840D01*
X44955200Y-19424380D01*
X44906940Y-19439620D01*
X44985680Y-19368500D01*
X45069500Y-19282140D01*
X45138080Y-19190700D01*
X45191420Y-19099260D01*
X45229520Y-19010360D01*
X45247300Y-18921460D01*
X45249840Y-18878280D01*
X45249840Y-18847800D01*
X45244760Y-18835100D01*
X45234600Y-18830020D01*
X45226980Y-18830020D01*
X45206660Y-18824940D01*
X45173640Y-18814780D01*
X45143160Y-18799540D01*
X45089820Y-18766520D01*
X45044100Y-18718260D01*
X45003460Y-18654760D01*
X44993300Y-18634440D01*
X44975520Y-18596340D01*
X44962820Y-18548080D01*
X44955200Y-18499820D01*
X44950120Y-18454100D01*
X44950120Y-18418540D01*
X44957740Y-18395680D01*
X44970440Y-18388060D01*
X44995840Y-18377900D01*
X45036480Y-18362660D01*
X45082200Y-18349960D01*
X45092360Y-18344880D01*
X45249840Y-18296620D01*
X45389540Y-18248360D01*
X45516540Y-18197560D01*
X45625760Y-18149300D01*
X45717200Y-18101040D01*
X45790860Y-18052780D01*
X45846740Y-18007060D01*
X45859440Y-17994360D01*
X45917860Y-17920700D01*
X45973740Y-17831800D01*
X46029620Y-17727660D01*
X46082960Y-17613360D01*
X46131220Y-17491440D01*
X46174400Y-17364440D01*
X46212500Y-17234900D01*
X46242980Y-17105360D01*
X46255680Y-17029160D01*
X46265840Y-16919940D01*
X46263300Y-16820880D01*
X46245520Y-16737060D01*
X46245520Y-16734520D01*
X46209960Y-16645620D01*
X46161700Y-16546560D01*
X46095660Y-16437340D01*
X46019460Y-16320500D01*
X45933100Y-16193500D01*
X45856900Y-16094440D01*
X45744089Y-15952200D01*
X47972720Y-15952200D01*
X47975260Y-15959820D01*
X47980340Y-15959820D01*
X47987960Y-15957280D01*
X47985420Y-15952200D01*
X47972720Y-15952200D01*
X45744089Y-15952200D01*
X45740060Y-15947120D01*
X45740060Y-15886160D01*
X45749966Y-15787100D01*
X46944020Y-15787100D01*
X46984660Y-15794720D01*
X47076100Y-15815040D01*
X47167540Y-15837900D01*
X47248820Y-15863300D01*
X47317400Y-15888700D01*
X47325020Y-15893780D01*
X47413920Y-15934420D01*
X47614580Y-15939500D01*
X47746660Y-15944580D01*
X47802540Y-15944580D01*
X47848260Y-15947120D01*
X47921920Y-15947120D01*
X47919380Y-15944580D01*
X47904140Y-15942040D01*
X47868580Y-15934420D01*
X47838100Y-15929340D01*
X47741580Y-15911560D01*
X47660300Y-15891240D01*
X47584100Y-15870920D01*
X47512980Y-15845520D01*
X47398680Y-15799800D01*
X47347880Y-15782020D01*
X47307240Y-15766780D01*
X47276760Y-15759160D01*
X47233580Y-15754080D01*
X47177700Y-15751540D01*
X47114200Y-15756620D01*
X47053240Y-15761700D01*
X47002440Y-15771860D01*
X46994820Y-15774400D01*
X46944020Y-15787100D01*
X45749966Y-15787100D01*
X45750220Y-15784560D01*
X45780700Y-15688040D01*
X45828960Y-15594060D01*
X45895000Y-15502620D01*
X45968660Y-15428960D01*
X46022000Y-15390860D01*
X46072800Y-15370540D01*
X46126140Y-15362920D01*
X46189640Y-15373080D01*
X46260760Y-15395940D01*
X46293780Y-15408640D01*
X46349660Y-15431500D01*
X46403000Y-15451820D01*
X46458880Y-15469600D01*
X46519840Y-15484840D01*
X46588420Y-15500080D01*
X46669700Y-15515320D01*
X46763680Y-15530560D01*
X46839880Y-15543260D01*
X46877980Y-15548340D01*
X46913540Y-15550880D01*
X46949100Y-15555960D01*
X46987200Y-15558500D01*
X47030380Y-15561040D01*
X47081180Y-15563580D01*
X47215800Y-15563580D01*
X47304700Y-15566120D01*
X47622200Y-15566120D01*
X47698400Y-15568660D01*
X47759360Y-15568660D01*
X47810160Y-15571200D01*
X47853340Y-15573740D01*
X47886360Y-15576280D01*
X47914300Y-15578820D01*
X47942240Y-15583900D01*
X47944780Y-15583900D01*
X48061620Y-15614380D01*
X48186080Y-15660100D01*
X48315620Y-15721060D01*
X48450240Y-15797260D01*
X48528980Y-15848060D01*
X48628040Y-15914100D01*
X48716940Y-15982680D01*
X48800760Y-16053800D01*
X48882040Y-16130000D01*
X48963320Y-16213820D01*
X49044600Y-16307800D01*
X49130960Y-16417020D01*
X49189380Y-16493220D01*
X49260500Y-16589740D01*
X49324000Y-16668480D01*
X49382420Y-16734520D01*
X49438300Y-16790400D01*
X49491640Y-16838660D01*
X49550060Y-16881840D01*
X49611020Y-16917400D01*
X49679600Y-16952960D01*
X49758340Y-16988520D01*
X49834540Y-17019000D01*
X50096160Y-17130760D01*
X50342540Y-17247600D01*
X50573680Y-17369520D01*
X50576220Y-17372060D01*
X50627020Y-17400000D01*
X50660040Y-17420320D01*
X50682900Y-17435560D01*
X50693060Y-17448260D01*
X50698140Y-17458420D01*
X50700680Y-17468580D01*
X50690520Y-17514300D01*
X50662580Y-17567640D01*
X50621940Y-17620980D01*
X50568600Y-17674320D01*
X50502560Y-17725120D01*
X50428900Y-17773380D01*
X50350160Y-17814020D01*
X50235860Y-17859740D01*
X50159660Y-17887680D01*
X50078380Y-17915620D01*
X49994560Y-17943560D01*
X49915820Y-17968960D01*
X49793900Y-18004520D01*
X49776120Y-18111200D01*
X49765960Y-18174700D01*
X49758340Y-18245820D01*
X49753260Y-18322020D01*
X49745640Y-18398220D01*
X49743100Y-18469340D01*
X49740560Y-18530300D01*
X49740560Y-18657300D01*
X49692300Y-18664920D01*
X49671980Y-18667460D01*
X49633880Y-18670000D01*
X49580540Y-18675080D01*
X49517040Y-18682700D01*
X49440840Y-18690320D01*
X49357020Y-18697940D01*
X49268120Y-18708100D01*
X49240180Y-18710640D01*
X48902360Y-18743660D01*
X48582320Y-18776680D01*
X48280060Y-18809700D01*
X47995580Y-18842720D01*
X47987960Y-18845260D01*
X47921920Y-18852880D01*
X47726340Y-18875740D01*
X47472340Y-18908760D01*
D10*
X6197500Y-9377500D02*
X1117500Y-9377500D01*
X1117500Y-16997500D02*
X6197500Y-16997500D01*
X6197500Y-16997500D02*
X6197500Y-9377500D01*
D12*
X54642164Y-6360000D02*
X54857836Y-6360000D01*
X54642164Y-5640000D02*
X54857836Y-5640000D01*
X19735000Y-9261252D02*
X19735000Y-8738748D01*
X18265000Y-9261252D02*
X18265000Y-8738748D01*
D10*
X53350000Y-3120000D02*
X40650000Y-3120000D01*
X53350000Y-580000D02*
X53350000Y-3120000D01*
X40650000Y-580000D02*
X53350000Y-580000D01*
X40650000Y-3120000D02*
X40650000Y-580000D01*
X43190000Y-580000D02*
X43190000Y-3120000D01*
X1117500Y-5750000D02*
X6197500Y-5750000D01*
X6197500Y-670000D02*
X1117500Y-670000D01*
X6197500Y-8290000D02*
X6197500Y-670000D01*
X1117500Y-8290000D02*
X6197500Y-8290000D01*
D12*
X30357836Y-1360000D02*
X30142164Y-1360000D01*
X30357836Y-640000D02*
X30142164Y-640000D01*
X43707836Y-3690000D02*
X43492164Y-3690000D01*
X43707836Y-4410000D02*
X43492164Y-4410000D01*
X58900000Y-10300000D02*
X58900000Y-12150000D01*
X58900000Y-12150000D02*
X60100000Y-12150000D01*
X60100000Y-10300000D02*
X60100000Y-12150000D01*
X41096359Y-3620000D02*
X41403641Y-3620000D01*
X41096359Y-4380000D02*
X41403641Y-4380000D01*
X40899622Y-12810000D02*
X40100378Y-12810000D01*
X40899622Y-11690000D02*
X40100378Y-11690000D01*
X41610000Y-8857836D02*
X41610000Y-8642164D01*
X40890000Y-8857836D02*
X40890000Y-8642164D01*
D10*
X24645000Y-645000D02*
X28355000Y-645000D01*
X28355000Y-7355000D02*
X24645000Y-7355000D01*
X24645000Y-645000D02*
X24645000Y-7355000D01*
X28360000Y-7355000D02*
X28355000Y-645000D01*
X54100000Y-2592500D02*
X54100000Y-4442500D01*
X61900000Y-42500D02*
X61900000Y-292500D01*
X54100000Y-42500D02*
X54100000Y-292500D01*
X61900000Y-4442500D02*
X61450000Y-4442500D01*
X54100000Y-4442500D02*
X54550000Y-4442500D01*
X61900000Y-2592500D02*
X61900000Y-4442500D01*
X45770000Y-6410000D02*
G75*
G03*
X45770000Y-6410000I-250000J0D01*
G01*
X51270000Y-5260000D02*
X51670000Y-5260000D01*
X44770000Y-12560000D02*
X44370000Y-12560000D01*
X51270000Y-12560000D02*
X51670000Y-12560000D01*
X51670000Y-12560000D02*
X51670000Y-12160000D01*
X43770000Y-5660000D02*
X44020000Y-5410000D01*
X44770000Y-5260000D02*
X44370000Y-5260000D01*
X44370000Y-12560000D02*
X44370000Y-12160000D01*
X44370000Y-5260000D02*
X44370000Y-5660000D01*
X44020000Y-5410000D02*
X43520000Y-5410000D01*
X51670000Y-5260000D02*
X51670000Y-5660000D01*
X43520000Y-5410000D02*
X43770000Y-5660000D01*
X15103553Y-17500000D02*
G75*
G03*
X15103553Y-17500000I-353553J0D01*
G01*
X15750000Y-13500000D02*
X11750000Y-13500000D01*
X11750000Y-13500000D02*
X11750000Y-18500000D01*
X15750000Y-18500000D02*
X15750000Y-13500000D01*
X11750000Y-18500000D02*
X15750000Y-18500000D01*
D12*
X17515000Y-2511252D02*
X17515000Y-1988748D01*
X18985000Y-2511252D02*
X18985000Y-1988748D01*
X10360000Y-5142164D02*
X10360000Y-5357836D01*
X9640000Y-5142164D02*
X9640000Y-5357836D01*
D10*
X26103553Y-12000000D02*
G75*
G03*
X26103553Y-12000000I-353553J0D01*
G01*
X26750000Y-13000000D02*
X26750000Y-8000000D01*
X26750000Y-8000000D02*
X22750000Y-8000000D01*
X22750000Y-8000000D02*
X22750000Y-13000000D01*
X22750000Y-13000000D02*
X26750000Y-13000000D01*
D12*
X61510000Y-6492164D02*
X61510000Y-6707836D01*
X60790000Y-6492164D02*
X60790000Y-6707836D01*
D10*
X70382500Y-9960000D02*
X65302500Y-9960000D01*
X70382500Y-12500000D02*
X65302500Y-12500000D01*
X65302500Y-9960000D02*
X65302500Y-20120000D01*
X65302500Y-20120000D02*
X70382500Y-20120000D01*
D12*
X33110000Y-3107836D02*
X33110000Y-2892164D01*
X32390000Y-3107836D02*
X32390000Y-2892164D01*
X30418641Y-10620000D02*
X30111359Y-10620000D01*
X30418641Y-11380000D02*
X30111359Y-11380000D01*
X12903641Y-870000D02*
X12596359Y-870000D01*
X12903641Y-1630000D02*
X12596359Y-1630000D01*
X29515000Y-7988748D02*
X29515000Y-8511252D01*
X30985000Y-7988748D02*
X30985000Y-8511252D01*
X20140580Y-6010000D02*
X19859420Y-6010000D01*
X20140580Y-4990000D02*
X19859420Y-4990000D01*
X19765000Y-2511252D02*
X19765000Y-1988748D01*
X21235000Y-2511252D02*
X21235000Y-1988748D01*
D14*
X31405000Y-12500000D02*
G75*
G03*
X31405000Y-12500000I-50000J0D01*
G01*
D10*
X57800000Y-5580000D02*
X57800000Y-8620000D01*
X57800000Y-8620000D02*
X59200000Y-8620000D01*
X59200000Y-5580000D02*
X57800000Y-5580000D01*
X59200000Y-5580000D02*
X59200000Y-8620000D01*
D12*
X55880000Y-8096359D02*
X55880000Y-8403641D01*
X55120000Y-8096359D02*
X55120000Y-8403641D01*
X33110000Y-6107836D02*
X33110000Y-5892164D01*
X32390000Y-6107836D02*
X32390000Y-5892164D01*
X18465000Y-16388748D02*
X18465000Y-16911252D01*
X19935000Y-16388748D02*
X19935000Y-16911252D01*
X52642164Y-13140000D02*
X52857836Y-13140000D01*
X52642164Y-13860000D02*
X52857836Y-13860000D01*
D10*
X15103553Y-12000000D02*
G75*
G03*
X15103553Y-12000000I-353553J0D01*
G01*
X15750000Y-8000000D02*
X11750000Y-8000000D01*
X15750000Y-13000000D02*
X15750000Y-8000000D01*
X11750000Y-8000000D02*
X11750000Y-13000000D01*
X11750000Y-13000000D02*
X15750000Y-13000000D01*
D12*
X15142164Y-1610000D02*
X15357836Y-1610000D01*
X15142164Y-890000D02*
X15357836Y-890000D01*
%LPC*%
D15*
X58010000Y-11500000D03*
X56990000Y-11500000D03*
D16*
X40770000Y-10500000D03*
X41730000Y-10500000D03*
D17*
X41010000Y-7000000D03*
X39990000Y-7000000D03*
D18*
X10250000Y-1550000D03*
X10250000Y-2950000D03*
D19*
X39750000Y-8240000D03*
X39750000Y-9260000D03*
D16*
X40770000Y-5500000D03*
X41730000Y-5500000D03*
D20*
X36250000Y-3570000D03*
X36250000Y-8450000D03*
D21*
X3227500Y-11282500D03*
X3227500Y-15092500D03*
D22*
X55230000Y-6000000D03*
X54270000Y-6000000D03*
D23*
X19000000Y-8050000D03*
X19000000Y-9950000D03*
D24*
X52080000Y-1850000D03*
X49540000Y-1850000D03*
X47000000Y-1850000D03*
X44460000Y-1850000D03*
D25*
X41920000Y-1850000D03*
D26*
X3227500Y-1940000D03*
X3227500Y-4480000D03*
X3227500Y-7020000D03*
D16*
X29770000Y-1000000D03*
X30730000Y-1000000D03*
X43120000Y-4050000D03*
X44080000Y-4050000D03*
D18*
X59500000Y-10300000D03*
X59500000Y-11700000D03*
D17*
X41760000Y-4000000D03*
X40740000Y-4000000D03*
D27*
X39437500Y-12250000D03*
X41562500Y-12250000D03*
D28*
X41250000Y-8270000D03*
X41250000Y-9230000D03*
D29*
X29802000Y-4000000D03*
D30*
X23198000Y-6286000D03*
X23198000Y-4000000D03*
X23198000Y-1714000D03*
D31*
X55500000Y-4142500D03*
D32*
X55100000Y-1442500D03*
D33*
X57000000Y-1442500D03*
D34*
X54500000Y-1442500D03*
D32*
X60900000Y-1442500D03*
D34*
X61500000Y-1442500D03*
D31*
X60500000Y-4142500D03*
D33*
X59000000Y-1442500D03*
D35*
X56700000Y-4142500D03*
X57350000Y-4142500D03*
X58000000Y-4142500D03*
X58650000Y-4142500D03*
X59300000Y-4142500D03*
D36*
X45270000Y-4560000D03*
X45770000Y-4560000D03*
X46270000Y-4560000D03*
X46770000Y-4560000D03*
X47270000Y-4560000D03*
X47770000Y-4560000D03*
X48270000Y-4560000D03*
X48770000Y-4560000D03*
X49270000Y-4560000D03*
X49770000Y-4560000D03*
X50270000Y-4560000D03*
X50770000Y-4560000D03*
D37*
X52370000Y-6160000D03*
X52370000Y-6660000D03*
X52370000Y-7160000D03*
X52370000Y-7660000D03*
X52370000Y-8160000D03*
X52370000Y-8660000D03*
X52370000Y-9160000D03*
X52370000Y-9660000D03*
X52370000Y-10160000D03*
X52370000Y-10660000D03*
X52370000Y-11160000D03*
X52370000Y-11660000D03*
D36*
X50770000Y-13260000D03*
X50270000Y-13260000D03*
X49770000Y-13260000D03*
X49270000Y-13260000D03*
X48770000Y-13260000D03*
X48270000Y-13260000D03*
X47770000Y-13260000D03*
X47270000Y-13260000D03*
X46770000Y-13260000D03*
X46270000Y-13260000D03*
X45770000Y-13260000D03*
X45270000Y-13260000D03*
D37*
X43670000Y-11660000D03*
X43670000Y-11160000D03*
X43670000Y-10660000D03*
X43670000Y-10160000D03*
X43670000Y-9660000D03*
X43670000Y-9160000D03*
X43670000Y-8660000D03*
X43670000Y-8160000D03*
X43670000Y-7660000D03*
X43670000Y-7160000D03*
X43670000Y-6660000D03*
X43670000Y-6160000D03*
D38*
X11050000Y-17905000D03*
X11050000Y-16635000D03*
X11050000Y-15365000D03*
X11050000Y-14095000D03*
X16450000Y-14095000D03*
X16450000Y-15365000D03*
X16450000Y-16635000D03*
X16450000Y-17905000D03*
D23*
X18250000Y-1300000D03*
X18250000Y-3200000D03*
D39*
X10000000Y-5730000D03*
X10000000Y-4770000D03*
D38*
X22050000Y-12405000D03*
X22050000Y-11135000D03*
X22050000Y-9865000D03*
X22050000Y-8595000D03*
X27450000Y-8595000D03*
X27450000Y-9865000D03*
X27450000Y-11135000D03*
X27450000Y-12405000D03*
D39*
X61150000Y-7080000D03*
X61150000Y-6120000D03*
D21*
X68272500Y-18215000D03*
X68272500Y-14405000D03*
D26*
X68272500Y-11230000D03*
D28*
X32750000Y-2520000D03*
X32750000Y-3480000D03*
D15*
X29755000Y-11000000D03*
X30775000Y-11000000D03*
X12240000Y-1250000D03*
X13260000Y-1250000D03*
D40*
X30250000Y-9200000D03*
X30250000Y-7300000D03*
D41*
X19225000Y-5500000D03*
X20775000Y-5500000D03*
D23*
X20500000Y-1300000D03*
X20500000Y-3200000D03*
D42*
X29780000Y-12500000D03*
X30750000Y-12500000D03*
D43*
X59650000Y-6140000D03*
X59650000Y-8060000D03*
X57350000Y-8060000D03*
D44*
X57350000Y-6340000D03*
D45*
X55500000Y-8760000D03*
X55500000Y-7740000D03*
D28*
X32750000Y-5520000D03*
X32750000Y-6480000D03*
D40*
X19200000Y-17600000D03*
X19200000Y-15700000D03*
D22*
X53230000Y-13500000D03*
X52270000Y-13500000D03*
D38*
X11050000Y-12405000D03*
X11050000Y-11135000D03*
X11050000Y-9865000D03*
X11050000Y-8595000D03*
X16450000Y-8595000D03*
X16450000Y-9865000D03*
X16450000Y-11135000D03*
X16450000Y-12405000D03*
D22*
X15730000Y-1250000D03*
X14770000Y-1250000D03*
M02*
