%TF.GenerationSoftware,KiCad,Pcbnew,(6.0.0)*%
%TF.CreationDate,2022-02-22T19:35:41+02:00*%
%TF.ProjectId,ServoController,53657276-6f43-46f6-9e74-726f6c6c6572,rev?*%
%TF.SameCoordinates,PXe3ed9c0PYb6ddf70*%
%TF.FileFunction,Copper,L1,Top*%
%TF.FilePolarity,Positive*%
%FSLAX46Y46*%
G04 Gerber Fmt 4.6, Leading zero omitted, Abs format (unit mm)*
G04 Created by KiCad (PCBNEW (6.0.0)) date 2022-02-22 19:35:41*
%MOMM*%
%LPD*%
G01*
G04 APERTURE LIST*
G04 Aperture macros list*
%AMRoundRect*
0 Rectangle with rounded corners*
0 $1 Rounding radius*
0 $2 $3 $4 $5 $6 $7 $8 $9 X,Y pos of 4 corners*
0 Add a 4 corners polygon primitive as box body*
4,1,4,$2,$3,$4,$5,$6,$7,$8,$9,$2,$3,0*
0 Add four circle primitives for the rounded corners*
1,1,$1+$1,$2,$3*
1,1,$1+$1,$4,$5*
1,1,$1+$1,$6,$7*
1,1,$1+$1,$8,$9*
0 Add four rect primitives between the rounded corners*
20,1,$1+$1,$2,$3,$4,$5,0*
20,1,$1+$1,$4,$5,$6,$7,0*
20,1,$1+$1,$6,$7,$8,$9,0*
20,1,$1+$1,$8,$9,$2,$3,0*%
G04 Aperture macros list end*
%TA.AperFunction,SMDPad,CuDef*%
%ADD10RoundRect,0.140000X0.140000X0.170000X-0.140000X0.170000X-0.140000X-0.170000X0.140000X-0.170000X0*%
%TD*%
%TA.AperFunction,SMDPad,CuDef*%
%ADD11RoundRect,0.135000X-0.135000X-0.185000X0.135000X-0.185000X0.135000X0.185000X-0.135000X0.185000X0*%
%TD*%
%TA.AperFunction,SMDPad,CuDef*%
%ADD12R,0.700000X0.600000*%
%TD*%
%TA.AperFunction,SMDPad,CuDef*%
%ADD13RoundRect,0.135000X0.185000X-0.135000X0.185000X0.135000X-0.185000X0.135000X-0.185000X-0.135000X0*%
%TD*%
%TA.AperFunction,ComponentPad*%
%ADD14C,1.500000*%
%TD*%
%TA.AperFunction,SMDPad,CuDef*%
%ADD15R,5.100000X3.000000*%
%TD*%
%TA.AperFunction,SMDPad,CuDef*%
%ADD16RoundRect,0.140000X-0.140000X-0.170000X0.140000X-0.170000X0.140000X0.170000X-0.140000X0.170000X0*%
%TD*%
%TA.AperFunction,SMDPad,CuDef*%
%ADD17RoundRect,0.250000X0.475000X-0.250000X0.475000X0.250000X-0.475000X0.250000X-0.475000X-0.250000X0*%
%TD*%
%TA.AperFunction,ComponentPad*%
%ADD18R,1.700000X1.700000*%
%TD*%
%TA.AperFunction,ComponentPad*%
%ADD19C,1.700000*%
%TD*%
%TA.AperFunction,SMDPad,CuDef*%
%ADD20R,5.100000X1.700000*%
%TD*%
%TA.AperFunction,SMDPad,CuDef*%
%ADD21RoundRect,0.218750X0.218750X0.381250X-0.218750X0.381250X-0.218750X-0.381250X0.218750X-0.381250X0*%
%TD*%
%TA.AperFunction,SMDPad,CuDef*%
%ADD22RoundRect,0.140000X0.170000X-0.140000X0.170000X0.140000X-0.170000X0.140000X-0.170000X-0.140000X0*%
%TD*%
%TA.AperFunction,SMDPad,CuDef*%
%ADD23R,2.032000X1.300000*%
%TD*%
%TA.AperFunction,SMDPad,CuDef*%
%ADD24R,2.332000X3.957600*%
%TD*%
%TA.AperFunction,ComponentPad*%
%ADD25C,0.800000*%
%TD*%
%TA.AperFunction,SMDPad,CuDef*%
%ADD26R,0.400000X1.350000*%
%TD*%
%TA.AperFunction,SMDPad,CuDef*%
%ADD27R,1.200000X1.900000*%
%TD*%
%TA.AperFunction,ComponentPad*%
%ADD28O,1.200000X1.900000*%
%TD*%
%TA.AperFunction,SMDPad,CuDef*%
%ADD29R,1.500000X1.900000*%
%TD*%
%TA.AperFunction,ComponentPad*%
%ADD30C,1.450000*%
%TD*%
%TA.AperFunction,SMDPad,CuDef*%
%ADD31O,1.400000X0.260000*%
%TD*%
%TA.AperFunction,SMDPad,CuDef*%
%ADD32O,0.260000X1.400000*%
%TD*%
%TA.AperFunction,SMDPad,CuDef*%
%ADD33R,1.600000X0.650000*%
%TD*%
%TA.AperFunction,SMDPad,CuDef*%
%ADD34RoundRect,0.140000X-0.170000X0.140000X-0.170000X-0.140000X0.170000X-0.140000X0.170000X0.140000X0*%
%TD*%
%TA.AperFunction,SMDPad,CuDef*%
%ADD35RoundRect,0.135000X0.135000X0.185000X-0.135000X0.185000X-0.135000X-0.185000X0.135000X-0.185000X0*%
%TD*%
%TA.AperFunction,SMDPad,CuDef*%
%ADD36RoundRect,0.250000X-0.475000X0.250000X-0.475000X-0.250000X0.475000X-0.250000X0.475000X0.250000X0*%
%TD*%
%TA.AperFunction,SMDPad,CuDef*%
%ADD37RoundRect,0.225000X0.225000X0.250000X-0.225000X0.250000X-0.225000X-0.250000X0.225000X-0.250000X0*%
%TD*%
%TA.AperFunction,SMDPad,CuDef*%
%ADD38RoundRect,0.147500X0.147500X0.172500X-0.147500X0.172500X-0.147500X-0.172500X0.147500X-0.172500X0*%
%TD*%
%TA.AperFunction,SMDPad,CuDef*%
%ADD39R,1.000000X1.000000*%
%TD*%
%TA.AperFunction,SMDPad,CuDef*%
%ADD40R,1.000000X0.550000*%
%TD*%
%TA.AperFunction,SMDPad,CuDef*%
%ADD41RoundRect,0.135000X-0.185000X0.135000X-0.185000X-0.135000X0.185000X-0.135000X0.185000X0.135000X0*%
%TD*%
%TA.AperFunction,ViaPad*%
%ADD42C,0.700000*%
%TD*%
%TA.AperFunction,ViaPad*%
%ADD43C,1.000000*%
%TD*%
%TA.AperFunction,Conductor*%
%ADD44C,0.300000*%
%TD*%
%TA.AperFunction,Conductor*%
%ADD45C,0.250000*%
%TD*%
%TA.AperFunction,Conductor*%
%ADD46C,0.400000*%
%TD*%
%TA.AperFunction,Conductor*%
%ADD47C,0.800000*%
%TD*%
%TA.AperFunction,Conductor*%
%ADD48C,0.600000*%
%TD*%
%TA.AperFunction,Conductor*%
%ADD49C,3.000000*%
%TD*%
G04 APERTURE END LIST*
D10*
X41730000Y-10500000D03*
X40770000Y-10500000D03*
D11*
X39990000Y-7000000D03*
X41010000Y-7000000D03*
D12*
X10250000Y-2950000D03*
X10250000Y-1550000D03*
D11*
X51990000Y-4000000D03*
X53010000Y-4000000D03*
D13*
X39750000Y-9260000D03*
X39750000Y-8240000D03*
D10*
X41730000Y-5500000D03*
X40770000Y-5500000D03*
D14*
X36250000Y-8450000D03*
X36250000Y-3570000D03*
D15*
X3227500Y-15092500D03*
X3227500Y-11282500D03*
D16*
X54270000Y-6000000D03*
X55230000Y-6000000D03*
D17*
X19000000Y-9950000D03*
X19000000Y-8050000D03*
D18*
X41920000Y-1850000D03*
D19*
X44460000Y-1850000D03*
X47000000Y-1850000D03*
X49540000Y-1850000D03*
X52080000Y-1850000D03*
D20*
X3227500Y-7020000D03*
X3227500Y-4480000D03*
X3227500Y-1940000D03*
D10*
X30730000Y-1000000D03*
X29770000Y-1000000D03*
X44080000Y-4050000D03*
X43120000Y-4050000D03*
D12*
X59500000Y-11700000D03*
X59500000Y-10300000D03*
D11*
X40740000Y-4000000D03*
X41760000Y-4000000D03*
D21*
X41562500Y-12250000D03*
X39437500Y-12250000D03*
D22*
X41250000Y-9230000D03*
X41250000Y-8270000D03*
D23*
X23198000Y-1714000D03*
X23198000Y-4000000D03*
X23198000Y-6286000D03*
D24*
X29802000Y-4000000D03*
D25*
X29800000Y-3100000D03*
X29800000Y-4900000D03*
D26*
X59300000Y-4142500D03*
X58650000Y-4142500D03*
X58000000Y-4142500D03*
X57350000Y-4142500D03*
X56700000Y-4142500D03*
D27*
X60900000Y-1442500D03*
X55100000Y-1442500D03*
D28*
X61500000Y-1442500D03*
D29*
X57000000Y-1442500D03*
D28*
X54500000Y-1442500D03*
D29*
X59000000Y-1442500D03*
D30*
X55500000Y-4142500D03*
X60500000Y-4142500D03*
D31*
X43670000Y-6160000D03*
X43670000Y-6660000D03*
X43670000Y-7160000D03*
X43670000Y-7660000D03*
X43670000Y-8160000D03*
X43670000Y-8660000D03*
X43670000Y-9160000D03*
X43670000Y-9660000D03*
X43670000Y-10160000D03*
X43670000Y-10660000D03*
X43670000Y-11160000D03*
X43670000Y-11660000D03*
D32*
X45270000Y-13260000D03*
X45770000Y-13260000D03*
X46270000Y-13260000D03*
X46770000Y-13260000D03*
X47270000Y-13260000D03*
X47770000Y-13260000D03*
X48270000Y-13260000D03*
X48770000Y-13260000D03*
X49270000Y-13260000D03*
X49770000Y-13260000D03*
X50270000Y-13260000D03*
X50770000Y-13260000D03*
D31*
X52370000Y-11660000D03*
X52370000Y-11160000D03*
X52370000Y-10660000D03*
X52370000Y-10160000D03*
X52370000Y-9660000D03*
X52370000Y-9160000D03*
X52370000Y-8660000D03*
X52370000Y-8160000D03*
X52370000Y-7660000D03*
X52370000Y-7160000D03*
X52370000Y-6660000D03*
X52370000Y-6160000D03*
D32*
X50770000Y-4560000D03*
X50270000Y-4560000D03*
X49770000Y-4560000D03*
X49270000Y-4560000D03*
X48770000Y-4560000D03*
X48270000Y-4560000D03*
X47770000Y-4560000D03*
X47270000Y-4560000D03*
X46770000Y-4560000D03*
X46270000Y-4560000D03*
X45770000Y-4560000D03*
X45270000Y-4560000D03*
D33*
X16450000Y-17905000D03*
X16450000Y-16635000D03*
X16450000Y-15365000D03*
X16450000Y-14095000D03*
X11050000Y-14095000D03*
X11050000Y-15365000D03*
X11050000Y-16635000D03*
X11050000Y-17905000D03*
D17*
X18250000Y-3200000D03*
X18250000Y-1300000D03*
D34*
X10000000Y-4770000D03*
X10000000Y-5730000D03*
D33*
X27450000Y-12405000D03*
X27450000Y-11135000D03*
X27450000Y-9865000D03*
X27450000Y-8595000D03*
X22050000Y-8595000D03*
X22050000Y-9865000D03*
X22050000Y-11135000D03*
X22050000Y-12405000D03*
D34*
X61150000Y-6120000D03*
X61150000Y-7080000D03*
D20*
X68272500Y-11230000D03*
D15*
X68272500Y-14405000D03*
X68272500Y-18215000D03*
D35*
X58010000Y-11500000D03*
X56990000Y-11500000D03*
D22*
X32750000Y-3480000D03*
X32750000Y-2520000D03*
D35*
X30775000Y-11000000D03*
X29755000Y-11000000D03*
X13260000Y-1250000D03*
X12240000Y-1250000D03*
D36*
X30250000Y-7300000D03*
X30250000Y-9200000D03*
D37*
X20775000Y-5500000D03*
X19225000Y-5500000D03*
D17*
X20500000Y-3200000D03*
X20500000Y-1300000D03*
D38*
X30750000Y-12500000D03*
X29780000Y-12500000D03*
D39*
X57350000Y-6340000D03*
D40*
X57350000Y-8060000D03*
X59650000Y-8060000D03*
X59650000Y-6140000D03*
D41*
X55500000Y-7740000D03*
X55500000Y-8760000D03*
D22*
X32750000Y-6480000D03*
X32750000Y-5520000D03*
D36*
X19200000Y-15700000D03*
X19200000Y-17600000D03*
D16*
X52270000Y-13500000D03*
X53230000Y-13500000D03*
D33*
X16450000Y-12405000D03*
X16450000Y-11135000D03*
X16450000Y-9865000D03*
X16450000Y-8595000D03*
X11050000Y-8595000D03*
X11050000Y-9865000D03*
X11050000Y-11135000D03*
X11050000Y-12405000D03*
D16*
X14770000Y-1250000D03*
X15730000Y-1250000D03*
D42*
X34750000Y-2250000D03*
X63750000Y-19250000D03*
X54250000Y-13500000D03*
D43*
X38700000Y-3710000D03*
D42*
X27750000Y-13750000D03*
X40249500Y-10850000D03*
X48500000Y-8250000D03*
X26750000Y-2750000D03*
X47250000Y-11000000D03*
X31750000Y-2099500D03*
X64250000Y-2500000D03*
X16500000Y-2000000D03*
X13090000Y-16700000D03*
X63250000Y-6750000D03*
X17400000Y-19040000D03*
X31640000Y-9190000D03*
X17505185Y-5004769D03*
X8750000Y-6000000D03*
D43*
X45516200Y-3197878D03*
D42*
X25750000Y-1500000D03*
X46750000Y-8000000D03*
X38000000Y-10250000D03*
X58500000Y-17500000D03*
X32250000Y-4500000D03*
X13750000Y-7000000D03*
X63500000Y-17140000D03*
X16890000Y-18110000D03*
X56180000Y-5420000D03*
X13380000Y-14230000D03*
X60500000Y-19500000D03*
X48250000Y-7000000D03*
X13170000Y-9000000D03*
X25000000Y-13750000D03*
X25000000Y-10500000D03*
X35000000Y-10000000D03*
X49750000Y-9000000D03*
X19000000Y-4750000D03*
X32370000Y-18960000D03*
X25850000Y-19120000D03*
X60500000Y-17000000D03*
X49840000Y-6470000D03*
D43*
X40718225Y-3304613D03*
D42*
X23500000Y-19080000D03*
X58500000Y-19250000D03*
X8750000Y-3750000D03*
X25250000Y-5500000D03*
X14500000Y-6499500D03*
X27750000Y-1250000D03*
X12279977Y-3029977D03*
X15068477Y-2450500D03*
X13340000Y-10630000D03*
X11750000Y-6499500D03*
X62000000Y-18250000D03*
X53593356Y-6973327D03*
X13590000Y-12350000D03*
X16500000Y-6500000D03*
X16910000Y-12430000D03*
X56000000Y-18750000D03*
X53250000Y-19250000D03*
X63250000Y-1000000D03*
X30750000Y-14000000D03*
X8750000Y-1000000D03*
X61500000Y-8750000D03*
X36250000Y-5750000D03*
X9750000Y-7000000D03*
X56190000Y-6490000D03*
X50500000Y-10500000D03*
X26750000Y-6250000D03*
X21750000Y-13500000D03*
X40618554Y-8069019D03*
X37250000Y-2099500D03*
X63250000Y-4500000D03*
X55800000Y-10450000D03*
X64250000Y-8750000D03*
X13880000Y-17740000D03*
X28860000Y-19040000D03*
X34500000Y-4750000D03*
X13960000Y-19120000D03*
X57550000Y-10700000D03*
D43*
X38250000Y-12000000D03*
D42*
X54500000Y-6985500D03*
X51500000Y-13500000D03*
D43*
X18000000Y-10000000D03*
X18000000Y-15250000D03*
X16450000Y-9865000D03*
X16450000Y-15365000D03*
D42*
X45500000Y-8000000D03*
X13250000Y-2250000D03*
X45954872Y-12014372D03*
X50650000Y-5810000D03*
X50000000Y-7750000D03*
X28750000Y-11150000D03*
X45960000Y-10550000D03*
X45010000Y-10259500D03*
X28740000Y-8640000D03*
X15155000Y-8595000D03*
X23390000Y-8630000D03*
X17750000Y-17000000D03*
X23450000Y-11150000D03*
D44*
X40770000Y-10500000D02*
X40599500Y-10500000D01*
X40740000Y-3326388D02*
X40718225Y-3304613D01*
X52370000Y-6660000D02*
X53280029Y-6660000D01*
D45*
X44590000Y-9660000D02*
X45500000Y-8750000D01*
D46*
X39652150Y-5500000D02*
X38700000Y-4547850D01*
D44*
X40599500Y-10500000D02*
X40249500Y-10850000D01*
X50030000Y-6660000D02*
X49840000Y-6470000D01*
D45*
X43670000Y-9660000D02*
X44590000Y-9660000D01*
D44*
X45770000Y-4560000D02*
X45770000Y-3451678D01*
X40740000Y-4000000D02*
X40740000Y-3326388D01*
X53280029Y-6660000D02*
X53593356Y-6973327D01*
D46*
X40770000Y-5500000D02*
X39652150Y-5500000D01*
D44*
X45770000Y-3451678D02*
X45516200Y-3197878D01*
X40819535Y-8270000D02*
X40618554Y-8069019D01*
X52370000Y-6660000D02*
X50030000Y-6660000D01*
X41250000Y-8270000D02*
X40819535Y-8270000D01*
D46*
X38700000Y-4547850D02*
X38700000Y-3710000D01*
D47*
X23198000Y-4000000D02*
X29802000Y-4000000D01*
D46*
X39750000Y-8240000D02*
X39660000Y-8240000D01*
D48*
X32500000Y-10250000D02*
X34750000Y-12500000D01*
D45*
X55254500Y-7740000D02*
X54500000Y-6985500D01*
D46*
X37750000Y-1250000D02*
X39750000Y-3250000D01*
X42350000Y-1850000D02*
X44080000Y-3580000D01*
D45*
X55500000Y-7740000D02*
X55254500Y-7740000D01*
D46*
X44080000Y-3580000D02*
X44080000Y-4050000D01*
D48*
X38250000Y-12500000D02*
X34750000Y-12500000D01*
D46*
X39030480Y-11842980D02*
X39437500Y-12250000D01*
D47*
X22398000Y-3200000D02*
X20500000Y-3200000D01*
X30250000Y-4448000D02*
X29802000Y-4000000D01*
D46*
X39750000Y-4250000D02*
X40219520Y-4719520D01*
D44*
X51500000Y-13500000D02*
X51010000Y-13500000D01*
D46*
X39030480Y-8869520D02*
X39030480Y-11842980D01*
D44*
X44760000Y-4050000D02*
X44080000Y-4050000D01*
D48*
X38250000Y-12000000D02*
X38250000Y-12500000D01*
D44*
X43670000Y-6160000D02*
X42660000Y-6160000D01*
D46*
X41266018Y-4719520D02*
X41730000Y-5183502D01*
D48*
X31175000Y-7300000D02*
X32500000Y-8625000D01*
D47*
X18250000Y-3200000D02*
X20500000Y-3200000D01*
D44*
X45270000Y-4560000D02*
X44760000Y-4050000D01*
D47*
X23198000Y-4000000D02*
X22398000Y-3200000D01*
D44*
X42660000Y-6160000D02*
X42000000Y-5500000D01*
D46*
X8250000Y-4750000D02*
X16700000Y-4750000D01*
X41920000Y-1850000D02*
X42350000Y-1850000D01*
D44*
X52370000Y-6160000D02*
X54110000Y-6160000D01*
D48*
X32500000Y-8625000D02*
X32500000Y-10250000D01*
D46*
X3227500Y-7020000D02*
X5980000Y-7020000D01*
D44*
X54110000Y-6160000D02*
X54270000Y-6000000D01*
D48*
X30730000Y-1000000D02*
X30980000Y-1250000D01*
D44*
X52250000Y-13500000D02*
X51500000Y-13500000D01*
D46*
X40219520Y-4719520D02*
X41266018Y-4719520D01*
X41730000Y-5183502D02*
X41730000Y-5500000D01*
D48*
X34750000Y-12500000D02*
X39187500Y-12500000D01*
D46*
X16700000Y-4750000D02*
X18250000Y-3200000D01*
D47*
X30730000Y-1000000D02*
X30730000Y-3072000D01*
D48*
X41320000Y-1250000D02*
X41920000Y-1850000D01*
D47*
X30250000Y-7300000D02*
X30250000Y-4448000D01*
D46*
X54500000Y-6230000D02*
X54500000Y-6985500D01*
D48*
X37750000Y-1250000D02*
X41320000Y-1250000D01*
X30980000Y-1250000D02*
X37750000Y-1250000D01*
D44*
X42000000Y-5500000D02*
X41730000Y-5500000D01*
D47*
X30730000Y-3072000D02*
X29802000Y-4000000D01*
D46*
X54270000Y-6000000D02*
X54500000Y-6230000D01*
D44*
X51010000Y-13500000D02*
X50770000Y-13260000D01*
D46*
X39660000Y-8240000D02*
X39030480Y-8869520D01*
D48*
X30250000Y-7300000D02*
X31175000Y-7300000D01*
X39187500Y-12500000D02*
X39437500Y-12250000D01*
D46*
X5980000Y-7020000D02*
X8250000Y-4750000D01*
X39750000Y-3250000D02*
X39750000Y-4250000D01*
D44*
X53360000Y-4000000D02*
X53010000Y-4000000D01*
X58952500Y-2820000D02*
X54540000Y-2820000D01*
X54540000Y-2820000D02*
X53360000Y-4000000D01*
D46*
X59650000Y-5580000D02*
X59300000Y-5230000D01*
D44*
X59300000Y-4142500D02*
X59300000Y-3167500D01*
X59300000Y-3167500D02*
X58952500Y-2820000D01*
D46*
X61130000Y-6140000D02*
X61150000Y-6120000D01*
X59650000Y-6140000D02*
X61130000Y-6140000D01*
X59300000Y-5230000D02*
X59300000Y-4142500D01*
X59650000Y-6140000D02*
X59650000Y-5580000D01*
D47*
X20350000Y-10750000D02*
X20350000Y-7970978D01*
D49*
X68272500Y-14405000D02*
X57645000Y-14405000D01*
D47*
X18065000Y-9865000D02*
X18365000Y-9865000D01*
X18365000Y-9865000D02*
X19250000Y-10750000D01*
X22034978Y-6286000D02*
X23198000Y-6286000D01*
D49*
X57645000Y-14405000D02*
X55640000Y-16410000D01*
X21530978Y-16410000D02*
X19250000Y-14129022D01*
X55640000Y-16410000D02*
X21530978Y-16410000D01*
D47*
X21561000Y-6286000D02*
X23198000Y-6286000D01*
X18014022Y-15365000D02*
X18174511Y-15204511D01*
X20350000Y-7970978D02*
X22034978Y-6286000D01*
X20775000Y-5500000D02*
X21561000Y-6286000D01*
D46*
X22050000Y-9865000D02*
X20135000Y-9865000D01*
X20135000Y-9865000D02*
X19250000Y-10750000D01*
D47*
X18174511Y-15204511D02*
X19250000Y-14129022D01*
X16450000Y-9865000D02*
X18065000Y-9865000D01*
X16450000Y-15365000D02*
X18014022Y-15365000D01*
X19250000Y-10750000D02*
X20350000Y-10750000D01*
D49*
X19250000Y-14129022D02*
X19250000Y-10750000D01*
D44*
X43670000Y-9160000D02*
X41320000Y-9160000D01*
X41250000Y-9230000D02*
X39780000Y-9230000D01*
X39780000Y-9230000D02*
X39750000Y-9260000D01*
X45500000Y-8078143D02*
X44418143Y-9160000D01*
X41320000Y-9160000D02*
X41250000Y-9230000D01*
X44418143Y-9160000D02*
X43670000Y-9160000D01*
X45500000Y-8000000D02*
X45500000Y-8078143D01*
D46*
X13250000Y-2250000D02*
X13250000Y-1260000D01*
X13250000Y-1260000D02*
X13260000Y-1250000D01*
X14770000Y-1250000D02*
X13260000Y-1250000D01*
D44*
X45770000Y-12199244D02*
X45770000Y-13260000D01*
X45954872Y-12014372D02*
X45770000Y-12199244D01*
D45*
X38980000Y-6300000D02*
X36250000Y-3570000D01*
X42499511Y-7737654D02*
X42499511Y-7162616D01*
D44*
X32750000Y-3480000D02*
X32840000Y-3570000D01*
D45*
X42499511Y-7162616D02*
X41636895Y-6300000D01*
D44*
X32840000Y-3570000D02*
X36250000Y-3570000D01*
D45*
X42921857Y-8160000D02*
X42499511Y-7737654D01*
X43670000Y-8160000D02*
X42921857Y-8160000D01*
X41636895Y-6300000D02*
X38980000Y-6300000D01*
D44*
X34280000Y-6480000D02*
X36250000Y-8450000D01*
D45*
X39990000Y-7000000D02*
X37700000Y-7000000D01*
X37700000Y-7000000D02*
X36250000Y-8450000D01*
D44*
X32750000Y-6480000D02*
X34280000Y-6480000D01*
D45*
X59300000Y-11500000D02*
X58010000Y-11500000D01*
X59500000Y-11700000D02*
X59300000Y-11500000D01*
D46*
X67802500Y-11700000D02*
X68272500Y-11230000D01*
X61250000Y-11700000D02*
X67802500Y-11700000D01*
X59500000Y-11700000D02*
X61250000Y-11700000D01*
D44*
X42070000Y-10160000D02*
X41730000Y-10500000D01*
X43670000Y-10160000D02*
X42070000Y-10160000D01*
D46*
X41730000Y-12082500D02*
X41562500Y-12250000D01*
X41730000Y-10500000D02*
X41730000Y-12082500D01*
D44*
X29755000Y-11000000D02*
X29755000Y-12475000D01*
X29755000Y-12475000D02*
X29780000Y-12500000D01*
X50770000Y-5690000D02*
X50650000Y-5810000D01*
X50770000Y-4560000D02*
X50770000Y-5690000D01*
X50000000Y-7750000D02*
X50590000Y-7160000D01*
X50590000Y-7160000D02*
X52370000Y-7160000D01*
D45*
X58700000Y-4192500D02*
X58700000Y-8050000D01*
X58700000Y-8050000D02*
X58090489Y-8659511D01*
X53394520Y-8471732D02*
X53082788Y-8160000D01*
X57161207Y-8659511D02*
X56421208Y-9399510D01*
X56421208Y-9399510D02*
X54313806Y-9399510D01*
X58090489Y-8659511D02*
X57161207Y-8659511D01*
X58710000Y-8060000D02*
X59650000Y-8060000D01*
X53394520Y-8480224D02*
X53394520Y-8471732D01*
X53082788Y-8160000D02*
X52370000Y-8160000D01*
X58650000Y-4142500D02*
X58700000Y-4192500D01*
X54313806Y-9399510D02*
X53394520Y-8480224D01*
X58700000Y-8050000D02*
X58710000Y-8060000D01*
X58000000Y-5100000D02*
X58250480Y-5350480D01*
X52370000Y-7660000D02*
X53218492Y-7660000D01*
X58250480Y-5350480D02*
X58250480Y-7742020D01*
X53844031Y-8285539D02*
X53844031Y-8294031D01*
X56235000Y-8950000D02*
X57125000Y-8060000D01*
X58000000Y-4142500D02*
X58000000Y-5100000D01*
X57125000Y-8060000D02*
X57350000Y-8060000D01*
X53844031Y-8294031D02*
X54499999Y-8949999D01*
X53218492Y-7660000D02*
X53844031Y-8285539D01*
X57932500Y-8060000D02*
X57350000Y-8060000D01*
X54499999Y-8949999D02*
X56235000Y-8950000D01*
X58250480Y-7742020D02*
X57932500Y-8060000D01*
D44*
X51250000Y-3260000D02*
X46821857Y-3260000D01*
X46821857Y-3260000D02*
X46270000Y-3811857D01*
X51990000Y-4000000D02*
X51250000Y-3260000D01*
X46270000Y-3811857D02*
X46270000Y-4560000D01*
D45*
X47270000Y-4560000D02*
X47270000Y-5740000D01*
X41760000Y-4260000D02*
X41760000Y-4000000D01*
X47270000Y-5740000D02*
X46760000Y-6250000D01*
X42520000Y-5020000D02*
X41760000Y-4260000D01*
X45410000Y-6250000D02*
X44180000Y-5020000D01*
X44180000Y-5020000D02*
X42520000Y-5020000D01*
X46760000Y-6250000D02*
X45410000Y-6250000D01*
D44*
X31670000Y-11600000D02*
X31070000Y-11000000D01*
X46284861Y-11314861D02*
X45665139Y-11314861D01*
X31670000Y-12610000D02*
X31670000Y-11600000D01*
X47270000Y-12300000D02*
X46284861Y-11314861D01*
X33360000Y-14300000D02*
X31670000Y-12610000D01*
X42680000Y-14300000D02*
X33360000Y-14300000D01*
X31070000Y-11000000D02*
X30775000Y-11000000D01*
X45665139Y-11314861D02*
X42680000Y-14300000D01*
X47270000Y-13260000D02*
X47270000Y-12300000D01*
D45*
X48270000Y-11830000D02*
X48800000Y-11300000D01*
X55988268Y-12501732D02*
X56990000Y-11500000D01*
X50400000Y-11300000D02*
X51601732Y-12501732D01*
X51601732Y-12501732D02*
X55988268Y-12501732D01*
X48800000Y-11300000D02*
X50400000Y-11300000D01*
X48270000Y-13260000D02*
X48270000Y-11830000D01*
D44*
X45723572Y-10550000D02*
X45113572Y-11160000D01*
X45960000Y-10550000D02*
X45723572Y-10550000D01*
X28735000Y-11135000D02*
X28750000Y-11150000D01*
X45113572Y-11160000D02*
X43670000Y-11160000D01*
X27450000Y-11135000D02*
X28735000Y-11135000D01*
X45010000Y-10259500D02*
X44609500Y-10660000D01*
X44609500Y-10660000D02*
X43670000Y-10660000D01*
X28740000Y-8640000D02*
X27495000Y-8640000D01*
X27495000Y-8640000D02*
X27450000Y-8595000D01*
D46*
X22050000Y-8595000D02*
X23355000Y-8595000D01*
X14750000Y-9000000D02*
X14750000Y-10750000D01*
X15155000Y-8595000D02*
X14750000Y-9000000D01*
X15135000Y-11135000D02*
X16450000Y-11135000D01*
X14750000Y-10750000D02*
X15135000Y-11135000D01*
X16450000Y-8595000D02*
X15155000Y-8595000D01*
X23355000Y-8595000D02*
X23390000Y-8630000D01*
X23435000Y-11135000D02*
X23450000Y-11150000D01*
X17209755Y-16635000D02*
X16450000Y-16635000D01*
X14750000Y-14500000D02*
X14750000Y-16250000D01*
X15135000Y-16635000D02*
X16450000Y-16635000D01*
X14750000Y-16250000D02*
X15135000Y-16635000D01*
X16450000Y-14095000D02*
X15155000Y-14095000D01*
X17750000Y-17000000D02*
X17574755Y-17000000D01*
X17574755Y-17000000D02*
X17209755Y-16635000D01*
X15155000Y-14095000D02*
X14750000Y-14500000D01*
X22050000Y-11135000D02*
X23435000Y-11135000D01*
X3227500Y-4480000D02*
X6020000Y-4480000D01*
X10490000Y-3000000D02*
X12240000Y-1250000D01*
X6020000Y-4480000D02*
X7500000Y-3000000D01*
X7500000Y-3000000D02*
X10490000Y-3000000D01*
D45*
X41999991Y-7944561D02*
X41999991Y-7369524D01*
X42715430Y-8660000D02*
X41999991Y-7944561D01*
X43670000Y-8660000D02*
X42715430Y-8660000D01*
X41630467Y-7000000D02*
X41010000Y-7000000D01*
X41999991Y-7369524D02*
X41630467Y-7000000D01*
%TA.AperFunction,Conductor*%
G36*
X11943039Y-8019685D02*
G01*
X11988794Y-8072489D01*
X12000000Y-8124000D01*
X12000000Y-12876000D01*
X11980315Y-12943039D01*
X11927511Y-12988794D01*
X11876000Y-13000000D01*
X424000Y-13000000D01*
X356961Y-12980315D01*
X311206Y-12927511D01*
X300000Y-12876000D01*
X300000Y-9124000D01*
X319685Y-9056961D01*
X372489Y-9011206D01*
X424000Y-9000000D01*
X9000000Y-9000000D01*
X10216035Y-8027172D01*
X10280681Y-8000664D01*
X10293497Y-8000000D01*
X11876000Y-8000000D01*
X11943039Y-8019685D01*
G37*
%TD.AperFunction*%
%TA.AperFunction,Conductor*%
G36*
X19733242Y-3920185D02*
G01*
X19741173Y-3925730D01*
X19745483Y-3929002D01*
X19745485Y-3929003D01*
X19752217Y-3934113D01*
X19760078Y-3937225D01*
X19760079Y-3937226D01*
X19885047Y-3986704D01*
X19885049Y-3986704D01*
X19892453Y-3989636D01*
X19900357Y-3990592D01*
X19900359Y-3990593D01*
X19953073Y-3996972D01*
X19982228Y-4000500D01*
X21017772Y-4000500D01*
X21046927Y-3996972D01*
X21099641Y-3990593D01*
X21099643Y-3990592D01*
X21107547Y-3989636D01*
X21114951Y-3986704D01*
X21114953Y-3986704D01*
X21239921Y-3937226D01*
X21239922Y-3937225D01*
X21247783Y-3934113D01*
X21254515Y-3929003D01*
X21254517Y-3929002D01*
X21258827Y-3925730D01*
X21324128Y-3900878D01*
X21333797Y-3900500D01*
X21757500Y-3900500D01*
X21824539Y-3920185D01*
X21870294Y-3972989D01*
X21881500Y-4024500D01*
X21881500Y-4694646D01*
X21884618Y-4720846D01*
X21930061Y-4823153D01*
X22009287Y-4902241D01*
X22019758Y-4906870D01*
X22019759Y-4906871D01*
X22103147Y-4943737D01*
X22103149Y-4943738D01*
X22111673Y-4947506D01*
X22137354Y-4950500D01*
X24258646Y-4950500D01*
X24262300Y-4950065D01*
X24262302Y-4950065D01*
X24267266Y-4949474D01*
X24284846Y-4947382D01*
X24387153Y-4901939D01*
X24466241Y-4822713D01*
X24470870Y-4812244D01*
X24470872Y-4812240D01*
X24487617Y-4774362D01*
X24532727Y-4721006D01*
X24601028Y-4700500D01*
X28211500Y-4700500D01*
X28278539Y-4720185D01*
X28324294Y-4772989D01*
X28335500Y-4824500D01*
X28335500Y-6023446D01*
X28335935Y-6027100D01*
X28335935Y-6027102D01*
X28336131Y-6028752D01*
X28338618Y-6049646D01*
X28384061Y-6151953D01*
X28463287Y-6231041D01*
X28473758Y-6235670D01*
X28473759Y-6235671D01*
X28557147Y-6272537D01*
X28557149Y-6272538D01*
X28565673Y-6276306D01*
X28591354Y-6279300D01*
X29425500Y-6279300D01*
X29492539Y-6298985D01*
X29538294Y-6351789D01*
X29549500Y-6403300D01*
X29549500Y-6468443D01*
X29529815Y-6535482D01*
X29500471Y-6567212D01*
X29388810Y-6651968D01*
X29382078Y-6657078D01*
X29376968Y-6663810D01*
X29306967Y-6756033D01*
X29290887Y-6777217D01*
X29287775Y-6785078D01*
X29287774Y-6785079D01*
X29238296Y-6910047D01*
X29235364Y-6917453D01*
X29234408Y-6925357D01*
X29234407Y-6925359D01*
X29231403Y-6950185D01*
X29224500Y-7007228D01*
X29224500Y-7592772D01*
X29235364Y-7682547D01*
X29238296Y-7689951D01*
X29238296Y-7689953D01*
X29279324Y-7793577D01*
X29290887Y-7822783D01*
X29295999Y-7829517D01*
X29295999Y-7829518D01*
X29369636Y-7926530D01*
X29382078Y-7942922D01*
X29388810Y-7948032D01*
X29494729Y-8028429D01*
X29502217Y-8034113D01*
X29510078Y-8037225D01*
X29510079Y-8037226D01*
X29635047Y-8086704D01*
X29635049Y-8086704D01*
X29642453Y-8089636D01*
X29650357Y-8090592D01*
X29650359Y-8090593D01*
X29702041Y-8096847D01*
X29732228Y-8100500D01*
X30767772Y-8100500D01*
X30797959Y-8096847D01*
X30849641Y-8090593D01*
X30849643Y-8090592D01*
X30857547Y-8089636D01*
X30966536Y-8046485D01*
X31036110Y-8040108D01*
X31099861Y-8074096D01*
X31863181Y-8837416D01*
X31896666Y-8898739D01*
X31899500Y-8925097D01*
X31899500Y-10202513D01*
X31898439Y-10218698D01*
X31894318Y-10250000D01*
X31910393Y-10372102D01*
X31914956Y-10406762D01*
X31918065Y-10414269D01*
X31918066Y-10414271D01*
X31958305Y-10511415D01*
X31975464Y-10552841D01*
X31980411Y-10559288D01*
X32040262Y-10637287D01*
X32071718Y-10678282D01*
X32078165Y-10683229D01*
X32096770Y-10697505D01*
X32108965Y-10708200D01*
X34291800Y-12891035D01*
X34302495Y-12903230D01*
X34315187Y-12919770D01*
X34321718Y-12928282D01*
X34328165Y-12933229D01*
X34363734Y-12960522D01*
X34392039Y-12982241D01*
X34447159Y-13024536D01*
X34454667Y-13027646D01*
X34574195Y-13077156D01*
X34593238Y-13085044D01*
X34710633Y-13100500D01*
X34741934Y-13104621D01*
X34750000Y-13105683D01*
X34758067Y-13104621D01*
X34781308Y-13101561D01*
X34797494Y-13100500D01*
X38202513Y-13100500D01*
X38218698Y-13101561D01*
X38250000Y-13105682D01*
X38258059Y-13104621D01*
X38281302Y-13101561D01*
X38297487Y-13100500D01*
X38969670Y-13100500D01*
X39015317Y-13109208D01*
X39093727Y-13140253D01*
X39178406Y-13150500D01*
X39696594Y-13150500D01*
X39781273Y-13140253D01*
X39788676Y-13137322D01*
X39905686Y-13090994D01*
X39905687Y-13090993D01*
X39913548Y-13087881D01*
X39939584Y-13068119D01*
X39986292Y-13032665D01*
X40026867Y-13001867D01*
X40087102Y-12922511D01*
X40107769Y-12895283D01*
X40107769Y-12895282D01*
X40112881Y-12888548D01*
X40116116Y-12880379D01*
X40162322Y-12763676D01*
X40162322Y-12763675D01*
X40165253Y-12756273D01*
X40175500Y-12671594D01*
X40175500Y-11828406D01*
X40165253Y-11743727D01*
X40159961Y-11730362D01*
X40115994Y-11619314D01*
X40115993Y-11619313D01*
X40112881Y-11611452D01*
X40086564Y-11576780D01*
X40041880Y-11517912D01*
X40026867Y-11498133D01*
X39913548Y-11412119D01*
X39883776Y-11400331D01*
X39788676Y-11362678D01*
X39788675Y-11362678D01*
X39781273Y-11359747D01*
X39696594Y-11349500D01*
X39654980Y-11349500D01*
X39587941Y-11329815D01*
X39542186Y-11277011D01*
X39530980Y-11225500D01*
X39530980Y-9954500D01*
X39550665Y-9887461D01*
X39603469Y-9841706D01*
X39654980Y-9830500D01*
X39987038Y-9830500D01*
X39989942Y-9830225D01*
X39989952Y-9830225D01*
X40010005Y-9828329D01*
X40017526Y-9827618D01*
X40024655Y-9825114D01*
X40024657Y-9825114D01*
X40082502Y-9804800D01*
X40141085Y-9784227D01*
X40246423Y-9706423D01*
X40248347Y-9709028D01*
X40295402Y-9683334D01*
X40321760Y-9680500D01*
X40718080Y-9680500D01*
X40785119Y-9700185D01*
X40791751Y-9704757D01*
X40841008Y-9741139D01*
X40871548Y-9763696D01*
X40996526Y-9807585D01*
X41004045Y-9808296D01*
X41004046Y-9808296D01*
X41024448Y-9810225D01*
X41024458Y-9810225D01*
X41027362Y-9810500D01*
X41182088Y-9810500D01*
X41249127Y-9830185D01*
X41294882Y-9882989D01*
X41304826Y-9952147D01*
X41276692Y-10013752D01*
X41275001Y-10015001D01*
X41269496Y-10022454D01*
X41258321Y-10037584D01*
X41196304Y-10121548D01*
X41152415Y-10246526D01*
X41149500Y-10277362D01*
X41149500Y-10722638D01*
X41149775Y-10725542D01*
X41149775Y-10725552D01*
X41150304Y-10731147D01*
X41152415Y-10753474D01*
X41196304Y-10878452D01*
X41201812Y-10885909D01*
X41205241Y-10890552D01*
X41229238Y-10956172D01*
X41229500Y-10964225D01*
X41229500Y-11271212D01*
X41209815Y-11338251D01*
X41151149Y-11386503D01*
X41086452Y-11412119D01*
X40973133Y-11498133D01*
X40958120Y-11517912D01*
X40913437Y-11576780D01*
X40887119Y-11611452D01*
X40884007Y-11619313D01*
X40884006Y-11619314D01*
X40840039Y-11730362D01*
X40834747Y-11743727D01*
X40824500Y-11828406D01*
X40824500Y-12671594D01*
X40834747Y-12756273D01*
X40837678Y-12763675D01*
X40837678Y-12763676D01*
X40883885Y-12880379D01*
X40887119Y-12888548D01*
X40892231Y-12895282D01*
X40892231Y-12895283D01*
X40912898Y-12922511D01*
X40973133Y-13001867D01*
X41013708Y-13032665D01*
X41060417Y-13068119D01*
X41086452Y-13087881D01*
X41094313Y-13090993D01*
X41094314Y-13090994D01*
X41211324Y-13137322D01*
X41218727Y-13140253D01*
X41303406Y-13150500D01*
X41821594Y-13150500D01*
X41906273Y-13140253D01*
X41913676Y-13137322D01*
X42030686Y-13090994D01*
X42030687Y-13090993D01*
X42038548Y-13087881D01*
X42064584Y-13068119D01*
X42111292Y-13032665D01*
X42151867Y-13001867D01*
X42212102Y-12922511D01*
X42232769Y-12895283D01*
X42232769Y-12895282D01*
X42237881Y-12888548D01*
X42241116Y-12880379D01*
X42287322Y-12763676D01*
X42287322Y-12763675D01*
X42290253Y-12756273D01*
X42300500Y-12671594D01*
X42300500Y-11828406D01*
X42290253Y-11743727D01*
X42239208Y-11614803D01*
X42230500Y-11569156D01*
X42230500Y-10964225D01*
X42250185Y-10897186D01*
X42254759Y-10890552D01*
X42258188Y-10885909D01*
X42263696Y-10878452D01*
X42307585Y-10753474D01*
X42310482Y-10722829D01*
X42336389Y-10657940D01*
X42393265Y-10617358D01*
X42433932Y-10610500D01*
X42549362Y-10610500D01*
X42616401Y-10630185D01*
X42662156Y-10682989D01*
X42673052Y-10725740D01*
X42675122Y-10754971D01*
X42678468Y-10763620D01*
X42718504Y-10867107D01*
X42724334Y-10936733D01*
X42710082Y-10974126D01*
X42699867Y-10991712D01*
X42699864Y-10991719D01*
X42695210Y-10999732D01*
X42665979Y-11125842D01*
X42675122Y-11254971D01*
X42678468Y-11263620D01*
X42718504Y-11367107D01*
X42724334Y-11436733D01*
X42710082Y-11474126D01*
X42699867Y-11491712D01*
X42699864Y-11491719D01*
X42695210Y-11499732D01*
X42665979Y-11625842D01*
X42675122Y-11754971D01*
X42678468Y-11763620D01*
X42717762Y-11865188D01*
X42721830Y-11875704D01*
X42727570Y-11882985D01*
X42796235Y-11970087D01*
X42796238Y-11970089D01*
X42801974Y-11977366D01*
X42847967Y-12009154D01*
X42900841Y-12045698D01*
X42900844Y-12045700D01*
X42908467Y-12050968D01*
X43031894Y-12090003D01*
X43038209Y-12090500D01*
X43953035Y-12090500D01*
X44020074Y-12110185D01*
X44065829Y-12162989D01*
X44075773Y-12232147D01*
X44046748Y-12295703D01*
X44040716Y-12302181D01*
X42529716Y-13813181D01*
X42468393Y-13846666D01*
X42442035Y-13849500D01*
X33597965Y-13849500D01*
X33530926Y-13829815D01*
X33510284Y-13813181D01*
X32156819Y-12459716D01*
X32123334Y-12398393D01*
X32120500Y-12372035D01*
X32120500Y-11634102D01*
X32121359Y-11619528D01*
X32124275Y-11594894D01*
X32124275Y-11594891D01*
X32125364Y-11585689D01*
X32114821Y-11527962D01*
X32114181Y-11524121D01*
X32114085Y-11523480D01*
X32105449Y-11466038D01*
X32102321Y-11459525D01*
X32101025Y-11452427D01*
X32082825Y-11417390D01*
X32073964Y-11400331D01*
X32072224Y-11396848D01*
X32067257Y-11386504D01*
X32046809Y-11343921D01*
X32041982Y-11338699D01*
X32041839Y-11338486D01*
X32038579Y-11332211D01*
X32034275Y-11327172D01*
X31997006Y-11289903D01*
X31993631Y-11286393D01*
X31961147Y-11251251D01*
X31961144Y-11251249D01*
X31954854Y-11244444D01*
X31948516Y-11240763D01*
X31942275Y-11235172D01*
X31412667Y-10705564D01*
X31402969Y-10694651D01*
X31387611Y-10675170D01*
X31381872Y-10667890D01*
X31333572Y-10634508D01*
X31330443Y-10632272D01*
X31314708Y-10620650D01*
X31288641Y-10594581D01*
X31226931Y-10511033D01*
X31226928Y-10511030D01*
X31221423Y-10503577D01*
X31211329Y-10496121D01*
X31141163Y-10444296D01*
X31116085Y-10425773D01*
X31024738Y-10393694D01*
X30999657Y-10384886D01*
X30999655Y-10384886D01*
X30992526Y-10382382D01*
X30985005Y-10381671D01*
X30964952Y-10379775D01*
X30964942Y-10379775D01*
X30962038Y-10379500D01*
X30587962Y-10379500D01*
X30585058Y-10379775D01*
X30585048Y-10379775D01*
X30564995Y-10381671D01*
X30557474Y-10382382D01*
X30550345Y-10384886D01*
X30550343Y-10384886D01*
X30525262Y-10393694D01*
X30433915Y-10425773D01*
X30412028Y-10441939D01*
X30338671Y-10496121D01*
X30273051Y-10520116D01*
X30204875Y-10504826D01*
X30191329Y-10496121D01*
X30117972Y-10441939D01*
X30096085Y-10425773D01*
X30004738Y-10393694D01*
X29979657Y-10384886D01*
X29979655Y-10384886D01*
X29972526Y-10382382D01*
X29965005Y-10381671D01*
X29944952Y-10379775D01*
X29944942Y-10379775D01*
X29942038Y-10379500D01*
X29567962Y-10379500D01*
X29565058Y-10379775D01*
X29565048Y-10379775D01*
X29544995Y-10381671D01*
X29537474Y-10382382D01*
X29530345Y-10384886D01*
X29530343Y-10384886D01*
X29505262Y-10393694D01*
X29413915Y-10425773D01*
X29388837Y-10444296D01*
X29318672Y-10496121D01*
X29308577Y-10503577D01*
X29303072Y-10511030D01*
X29303071Y-10511031D01*
X29262576Y-10565856D01*
X29206912Y-10608085D01*
X29137254Y-10613517D01*
X29104810Y-10601771D01*
X29052889Y-10574280D01*
X28984831Y-10538245D01*
X28832128Y-10499889D01*
X28750329Y-10499461D01*
X28682158Y-10499104D01*
X28682157Y-10499104D01*
X28674684Y-10499065D01*
X28667421Y-10500809D01*
X28667418Y-10500809D01*
X28603049Y-10516263D01*
X28521588Y-10535820D01*
X28514949Y-10539247D01*
X28514948Y-10539247D01*
X28505809Y-10543964D01*
X28437208Y-10557219D01*
X28398798Y-10547186D01*
X28328853Y-10516263D01*
X28328851Y-10516262D01*
X28320327Y-10512494D01*
X28294646Y-10509500D01*
X26605354Y-10509500D01*
X26601700Y-10509935D01*
X26601698Y-10509935D01*
X26596734Y-10510526D01*
X26579154Y-10512618D01*
X26476847Y-10558061D01*
X26397759Y-10637287D01*
X26393130Y-10647758D01*
X26393129Y-10647759D01*
X26358305Y-10726530D01*
X26352494Y-10739673D01*
X26349500Y-10765354D01*
X26349500Y-11504646D01*
X26352618Y-11530846D01*
X26398061Y-11633153D01*
X26406165Y-11641243D01*
X26447218Y-11682225D01*
X26480757Y-11743519D01*
X26475834Y-11813215D01*
X26447371Y-11857588D01*
X26405849Y-11899182D01*
X26405847Y-11899185D01*
X26397759Y-11907287D01*
X26393130Y-11917758D01*
X26393129Y-11917759D01*
X26356483Y-12000651D01*
X26352494Y-12009673D01*
X26349500Y-12035354D01*
X26349500Y-12774646D01*
X26352618Y-12800846D01*
X26398061Y-12903153D01*
X26477287Y-12982241D01*
X26487758Y-12986870D01*
X26487759Y-12986871D01*
X26571147Y-13023737D01*
X26571149Y-13023738D01*
X26579673Y-13027506D01*
X26605354Y-13030500D01*
X28294646Y-13030500D01*
X28298300Y-13030065D01*
X28298302Y-13030065D01*
X28303266Y-13029474D01*
X28320846Y-13027382D01*
X28423153Y-12981939D01*
X28502241Y-12902713D01*
X28508482Y-12888596D01*
X28543737Y-12808853D01*
X28543738Y-12808851D01*
X28547506Y-12800327D01*
X28550500Y-12774646D01*
X28550500Y-12035354D01*
X28547382Y-12009154D01*
X28543607Y-12000656D01*
X28543606Y-12000651D01*
X28530639Y-11971458D01*
X28521415Y-11902200D01*
X28551100Y-11838950D01*
X28610268Y-11801789D01*
X28658168Y-11798454D01*
X28661069Y-11799215D01*
X28745715Y-11800545D01*
X28811025Y-11801571D01*
X28811028Y-11801571D01*
X28818495Y-11801688D01*
X28825776Y-11800020D01*
X28825780Y-11800020D01*
X28964681Y-11768207D01*
X28971968Y-11766538D01*
X29112625Y-11695795D01*
X29114124Y-11694515D01*
X29178612Y-11674508D01*
X29245943Y-11693170D01*
X29292497Y-11745271D01*
X29304500Y-11798494D01*
X29304500Y-11976650D01*
X29284815Y-12043689D01*
X29280248Y-12050314D01*
X29232101Y-12115500D01*
X29229030Y-12124245D01*
X29189969Y-12235476D01*
X29187465Y-12242605D01*
X29186754Y-12250124D01*
X29186754Y-12250125D01*
X29185317Y-12265330D01*
X29184500Y-12273971D01*
X29184501Y-12726028D01*
X29184775Y-12728926D01*
X29184775Y-12728929D01*
X29185910Y-12740939D01*
X29187465Y-12757395D01*
X29232101Y-12884500D01*
X29237608Y-12891956D01*
X29248736Y-12907022D01*
X29312138Y-12992862D01*
X29420500Y-13072899D01*
X29429245Y-13075970D01*
X29540479Y-13115033D01*
X29540483Y-13115034D01*
X29547605Y-13117535D01*
X29555124Y-13118246D01*
X29555125Y-13118246D01*
X29576057Y-13120225D01*
X29576067Y-13120225D01*
X29578971Y-13120500D01*
X29581902Y-13120500D01*
X29780619Y-13120499D01*
X29981028Y-13120499D01*
X29983926Y-13120225D01*
X29983929Y-13120225D01*
X29997528Y-13118940D01*
X30012395Y-13117535D01*
X30139500Y-13072899D01*
X30247862Y-12992862D01*
X30311264Y-12907022D01*
X30322392Y-12891956D01*
X30327899Y-12884500D01*
X30334518Y-12865653D01*
X30370033Y-12764521D01*
X30370034Y-12764517D01*
X30372535Y-12757395D01*
X30374091Y-12740939D01*
X30375225Y-12728943D01*
X30375226Y-12728929D01*
X30375500Y-12726029D01*
X30375499Y-12273972D01*
X30372535Y-12242605D01*
X30327899Y-12115500D01*
X30247862Y-12007138D01*
X30241482Y-12002426D01*
X30208334Y-11941720D01*
X30205500Y-11915362D01*
X30205500Y-11651262D01*
X30225185Y-11584223D01*
X30277989Y-11538468D01*
X30347147Y-11528524D01*
X30403171Y-11551520D01*
X30426456Y-11568719D01*
X30426462Y-11568722D01*
X30433915Y-11574227D01*
X30509366Y-11600723D01*
X30550343Y-11615114D01*
X30550345Y-11615114D01*
X30557474Y-11617618D01*
X30564995Y-11618329D01*
X30585048Y-11620225D01*
X30585058Y-11620225D01*
X30587962Y-11620500D01*
X30962038Y-11620500D01*
X30964942Y-11620225D01*
X30964952Y-11620225D01*
X30987416Y-11618101D01*
X31056011Y-11631389D01*
X31086767Y-11653870D01*
X31183181Y-11750284D01*
X31216666Y-11811607D01*
X31219500Y-11837965D01*
X31219500Y-12575897D01*
X31218641Y-12590471D01*
X31216279Y-12610432D01*
X31214636Y-12624310D01*
X31219788Y-12652520D01*
X31225176Y-12682022D01*
X31225816Y-12685864D01*
X31225946Y-12686727D01*
X31234551Y-12743962D01*
X31237679Y-12750475D01*
X31238975Y-12757573D01*
X31243248Y-12765799D01*
X31266033Y-12809663D01*
X31267769Y-12813137D01*
X31293191Y-12866079D01*
X31298016Y-12871299D01*
X31298165Y-12871520D01*
X31301421Y-12877788D01*
X31305725Y-12882828D01*
X31342994Y-12920097D01*
X31346369Y-12923607D01*
X31378853Y-12958749D01*
X31378856Y-12958751D01*
X31385146Y-12965556D01*
X31391484Y-12969237D01*
X31397725Y-12974828D01*
X32820716Y-14397819D01*
X32854201Y-14459142D01*
X32849217Y-14528834D01*
X32807345Y-14584767D01*
X32741881Y-14609184D01*
X32733035Y-14609500D01*
X22328132Y-14609500D01*
X22261093Y-14589815D01*
X22240451Y-14573181D01*
X21086819Y-13419550D01*
X21053334Y-13358227D01*
X21050500Y-13331869D01*
X21050500Y-13151743D01*
X21070185Y-13084704D01*
X21122989Y-13038949D01*
X21188859Y-13028577D01*
X21205354Y-13030500D01*
X22894646Y-13030500D01*
X22898300Y-13030065D01*
X22898302Y-13030065D01*
X22903266Y-13029474D01*
X22920846Y-13027382D01*
X23023153Y-12981939D01*
X23102241Y-12902713D01*
X23108482Y-12888596D01*
X23143737Y-12808853D01*
X23143738Y-12808851D01*
X23147506Y-12800327D01*
X23150500Y-12774646D01*
X23150500Y-12035354D01*
X23147382Y-12009154D01*
X23126887Y-11963013D01*
X23118354Y-11943802D01*
X23109130Y-11874544D01*
X23138814Y-11811293D01*
X23197982Y-11774132D01*
X23263144Y-11773525D01*
X23353841Y-11797319D01*
X23353843Y-11797319D01*
X23361069Y-11799215D01*
X23438127Y-11800425D01*
X23511025Y-11801571D01*
X23511028Y-11801571D01*
X23518495Y-11801688D01*
X23525776Y-11800020D01*
X23525780Y-11800020D01*
X23664681Y-11768207D01*
X23671968Y-11766538D01*
X23812625Y-11695795D01*
X23818306Y-11690943D01*
X23818309Y-11690941D01*
X23926666Y-11598395D01*
X23926667Y-11598394D01*
X23932348Y-11593542D01*
X23939045Y-11584223D01*
X23971923Y-11538468D01*
X24024224Y-11465683D01*
X24082950Y-11319598D01*
X24089335Y-11274734D01*
X24104562Y-11167744D01*
X24104562Y-11167740D01*
X24105134Y-11163723D01*
X24105278Y-11150000D01*
X24102355Y-11125842D01*
X24087262Y-11001119D01*
X24087261Y-11001115D01*
X24086363Y-10993694D01*
X24063933Y-10934334D01*
X24033354Y-10853408D01*
X24033352Y-10853405D01*
X24030710Y-10846412D01*
X23992155Y-10790314D01*
X23945768Y-10722821D01*
X23945765Y-10722818D01*
X23941531Y-10716657D01*
X23864202Y-10647759D01*
X23829559Y-10616893D01*
X23829558Y-10616892D01*
X23823976Y-10611919D01*
X23684831Y-10538245D01*
X23532128Y-10499889D01*
X23450329Y-10499461D01*
X23382158Y-10499104D01*
X23382157Y-10499104D01*
X23374684Y-10499065D01*
X23367421Y-10500809D01*
X23367418Y-10500809D01*
X23246147Y-10529924D01*
X23176365Y-10526433D01*
X23119547Y-10485770D01*
X23093734Y-10420843D01*
X23103789Y-10359211D01*
X23109686Y-10345874D01*
X23125920Y-10309154D01*
X23143737Y-10268853D01*
X23143738Y-10268851D01*
X23147506Y-10260327D01*
X23150500Y-10234646D01*
X23150500Y-9495354D01*
X23147382Y-9469154D01*
X23143607Y-9460656D01*
X23143606Y-9460651D01*
X23136324Y-9444258D01*
X23127099Y-9375000D01*
X23156783Y-9311749D01*
X23215950Y-9274587D01*
X23281110Y-9273979D01*
X23301069Y-9279215D01*
X23378127Y-9280425D01*
X23451025Y-9281571D01*
X23451028Y-9281571D01*
X23458495Y-9281688D01*
X23465776Y-9280020D01*
X23465780Y-9280020D01*
X23604681Y-9248207D01*
X23611968Y-9246538D01*
X23752625Y-9175795D01*
X23758306Y-9170943D01*
X23758309Y-9170941D01*
X23866666Y-9078395D01*
X23866667Y-9078394D01*
X23872348Y-9073542D01*
X23877692Y-9066106D01*
X23931771Y-8990846D01*
X23950598Y-8964646D01*
X26349500Y-8964646D01*
X26352618Y-8990846D01*
X26398061Y-9093153D01*
X26477287Y-9172241D01*
X26487758Y-9176870D01*
X26487759Y-9176871D01*
X26571147Y-9213737D01*
X26571149Y-9213738D01*
X26579673Y-9217506D01*
X26605354Y-9220500D01*
X28294646Y-9220500D01*
X28298300Y-9220065D01*
X28298302Y-9220065D01*
X28303266Y-9219474D01*
X28320846Y-9217382D01*
X28329348Y-9213606D01*
X28329350Y-9213605D01*
X28330598Y-9213051D01*
X28332090Y-9212852D01*
X28338320Y-9211140D01*
X28338554Y-9211992D01*
X28399856Y-9203829D01*
X28440099Y-9217403D01*
X28489928Y-9244458D01*
X28498776Y-9249262D01*
X28595310Y-9274587D01*
X28643841Y-9287319D01*
X28643843Y-9287319D01*
X28651069Y-9289215D01*
X28728127Y-9290425D01*
X28801025Y-9291571D01*
X28801028Y-9291571D01*
X28808495Y-9291688D01*
X28815776Y-9290020D01*
X28815780Y-9290020D01*
X28954681Y-9258207D01*
X28961968Y-9256538D01*
X29102625Y-9185795D01*
X29108306Y-9180943D01*
X29108309Y-9180941D01*
X29216666Y-9088395D01*
X29216667Y-9088394D01*
X29222348Y-9083542D01*
X29233896Y-9067472D01*
X29270577Y-9016424D01*
X29314224Y-8955683D01*
X29372950Y-8809598D01*
X29374003Y-8802201D01*
X29394562Y-8657744D01*
X29394562Y-8657740D01*
X29395134Y-8653723D01*
X29395179Y-8649500D01*
X29395211Y-8646391D01*
X29395278Y-8640000D01*
X29392488Y-8616941D01*
X29377262Y-8491119D01*
X29377261Y-8491115D01*
X29376363Y-8483694D01*
X29355784Y-8429232D01*
X29323354Y-8343408D01*
X29323352Y-8343405D01*
X29320710Y-8336412D01*
X29295103Y-8299154D01*
X29235768Y-8212821D01*
X29235765Y-8212818D01*
X29231531Y-8206657D01*
X29157109Y-8140349D01*
X29119559Y-8106893D01*
X29119558Y-8106892D01*
X29113976Y-8101919D01*
X28974831Y-8028245D01*
X28822128Y-7989889D01*
X28740329Y-7989461D01*
X28672158Y-7989104D01*
X28672157Y-7989104D01*
X28664684Y-7989065D01*
X28657421Y-7990809D01*
X28657418Y-7990809D01*
X28511588Y-8025820D01*
X28511190Y-8024160D01*
X28450670Y-8028429D01*
X28423236Y-8016577D01*
X28422713Y-8017759D01*
X28328853Y-7976263D01*
X28328851Y-7976262D01*
X28320327Y-7972494D01*
X28294646Y-7969500D01*
X26605354Y-7969500D01*
X26601700Y-7969935D01*
X26601698Y-7969935D01*
X26596734Y-7970526D01*
X26579154Y-7972618D01*
X26476847Y-8018061D01*
X26397759Y-8097287D01*
X26393130Y-8107758D01*
X26393129Y-8107759D01*
X26356827Y-8189873D01*
X26352494Y-8199673D01*
X26349500Y-8225354D01*
X26349500Y-8964646D01*
X23950598Y-8964646D01*
X23964224Y-8945683D01*
X24022950Y-8799598D01*
X24025482Y-8781808D01*
X24044562Y-8647744D01*
X24044562Y-8647740D01*
X24045134Y-8643723D01*
X24045278Y-8630000D01*
X24043454Y-8614930D01*
X24027262Y-8481119D01*
X24027261Y-8481115D01*
X24026363Y-8473694D01*
X24001871Y-8408877D01*
X23973354Y-8333408D01*
X23973352Y-8333405D01*
X23970710Y-8326412D01*
X23951976Y-8299154D01*
X23885768Y-8202821D01*
X23885765Y-8202818D01*
X23881531Y-8196657D01*
X23826502Y-8147628D01*
X23769559Y-8096893D01*
X23769558Y-8096892D01*
X23763976Y-8091919D01*
X23624831Y-8018245D01*
X23472128Y-7979889D01*
X23390329Y-7979461D01*
X23322158Y-7979104D01*
X23322157Y-7979104D01*
X23314684Y-7979065D01*
X23307421Y-7980809D01*
X23307418Y-7980809D01*
X23248347Y-7994991D01*
X23161588Y-8015820D01*
X23154945Y-8019249D01*
X23154939Y-8019251D01*
X23144488Y-8024645D01*
X23075887Y-8037901D01*
X23024094Y-8019138D01*
X23022713Y-8017759D01*
X22987513Y-8002197D01*
X22928853Y-7976263D01*
X22928851Y-7976262D01*
X22920327Y-7972494D01*
X22894646Y-7969500D01*
X21641496Y-7969500D01*
X21574457Y-7949815D01*
X21528702Y-7897011D01*
X21518758Y-7827853D01*
X21547783Y-7764297D01*
X21553815Y-7757819D01*
X22039411Y-7272223D01*
X22100734Y-7238738D01*
X22134134Y-7236125D01*
X22137354Y-7236500D01*
X24258646Y-7236500D01*
X24262300Y-7236065D01*
X24262302Y-7236065D01*
X24267266Y-7235474D01*
X24284846Y-7233382D01*
X24387153Y-7187939D01*
X24466241Y-7108713D01*
X24487678Y-7060225D01*
X24507737Y-7014853D01*
X24507738Y-7014851D01*
X24511506Y-7006327D01*
X24514500Y-6980646D01*
X24514500Y-5591354D01*
X24511382Y-5565154D01*
X24465939Y-5462847D01*
X24386713Y-5383759D01*
X24376242Y-5379130D01*
X24376241Y-5379129D01*
X24292853Y-5342263D01*
X24292851Y-5342262D01*
X24284327Y-5338494D01*
X24258646Y-5335500D01*
X22137354Y-5335500D01*
X22133700Y-5335935D01*
X22133698Y-5335935D01*
X22128734Y-5336526D01*
X22111154Y-5338618D01*
X22008847Y-5384061D01*
X21929759Y-5463287D01*
X21929096Y-5464787D01*
X21879915Y-5504950D01*
X21810496Y-5512870D01*
X21744037Y-5478381D01*
X21686057Y-5420400D01*
X21561774Y-5296117D01*
X21528289Y-5234794D01*
X21525680Y-5215901D01*
X21525499Y-5212899D01*
X21525499Y-5209172D01*
X21524761Y-5203073D01*
X21516086Y-5131377D01*
X21516085Y-5131373D01*
X21515129Y-5123472D01*
X21475226Y-5022686D01*
X21465241Y-4997467D01*
X21465240Y-4997465D01*
X21462128Y-4989605D01*
X21388392Y-4892463D01*
X21380188Y-4881654D01*
X21375078Y-4874922D01*
X21361086Y-4864301D01*
X21334895Y-4844421D01*
X21260395Y-4787872D01*
X21252535Y-4784760D01*
X21252533Y-4784759D01*
X21133934Y-4737803D01*
X21133933Y-4737803D01*
X21126528Y-4734871D01*
X21118624Y-4733914D01*
X21118622Y-4733914D01*
X21080873Y-4729346D01*
X21040829Y-4724500D01*
X20775072Y-4724500D01*
X20509172Y-4724501D01*
X20505470Y-4724949D01*
X20505469Y-4724949D01*
X20431377Y-4733914D01*
X20431373Y-4733915D01*
X20423472Y-4734871D01*
X20365173Y-4757953D01*
X20297467Y-4784759D01*
X20297465Y-4784760D01*
X20289605Y-4787872D01*
X20215105Y-4844421D01*
X20188915Y-4864301D01*
X20174922Y-4874922D01*
X20169812Y-4881654D01*
X20161608Y-4892463D01*
X20087872Y-4989605D01*
X20084760Y-4997465D01*
X20084759Y-4997467D01*
X20040996Y-5108002D01*
X20034871Y-5123472D01*
X20033914Y-5131376D01*
X20033914Y-5131378D01*
X20030974Y-5155675D01*
X20024500Y-5209171D01*
X20024501Y-5790828D01*
X20024949Y-5794530D01*
X20024949Y-5794531D01*
X20032244Y-5854815D01*
X20034871Y-5876528D01*
X20037803Y-5883933D01*
X20084123Y-6000925D01*
X20087872Y-6010395D01*
X20174922Y-6125078D01*
X20289605Y-6212128D01*
X20297465Y-6215240D01*
X20297467Y-6215241D01*
X20416066Y-6262197D01*
X20416067Y-6262197D01*
X20423472Y-6265129D01*
X20431376Y-6266086D01*
X20431378Y-6266086D01*
X20496561Y-6273974D01*
X20509171Y-6275500D01*
X20512899Y-6275500D01*
X20515901Y-6275681D01*
X20581634Y-6299364D01*
X20596112Y-6311768D01*
X20719653Y-6435309D01*
X20753136Y-6496631D01*
X20748152Y-6566323D01*
X20719651Y-6610670D01*
X19874874Y-7455447D01*
X19868707Y-7461208D01*
X19838433Y-7487618D01*
X19825604Y-7498809D01*
X19789845Y-7549690D01*
X19789284Y-7550488D01*
X19785412Y-7555701D01*
X19751030Y-7599549D01*
X19751026Y-7599556D01*
X19746416Y-7605435D01*
X19743339Y-7612250D01*
X19742148Y-7614217D01*
X19733513Y-7629355D01*
X19732412Y-7631409D01*
X19728113Y-7637525D01*
X19725397Y-7644491D01*
X19705162Y-7696390D01*
X19702650Y-7702367D01*
X19676645Y-7759962D01*
X19675282Y-7767317D01*
X19674589Y-7769527D01*
X19669821Y-7786265D01*
X19669242Y-7788518D01*
X19666524Y-7795491D01*
X19665548Y-7802907D01*
X19665547Y-7802910D01*
X19658279Y-7858123D01*
X19657263Y-7864537D01*
X19647111Y-7919310D01*
X19647110Y-7919319D01*
X19645748Y-7926670D01*
X19648771Y-7979104D01*
X19649294Y-7988174D01*
X19649500Y-7995311D01*
X19649500Y-8844927D01*
X19629815Y-8911966D01*
X19577011Y-8957721D01*
X19505569Y-8967315D01*
X19411910Y-8952062D01*
X19411905Y-8952062D01*
X19407364Y-8951322D01*
X19337323Y-8950405D01*
X19328461Y-8950289D01*
X19261685Y-8929729D01*
X19223046Y-8888901D01*
X19218412Y-8880978D01*
X19215519Y-8876031D01*
X19169764Y-8823227D01*
X19150935Y-8805473D01*
X19132289Y-8787892D01*
X19132287Y-8787891D01*
X19125836Y-8781808D01*
X19058503Y-8747571D01*
X19032665Y-8734433D01*
X19032663Y-8734432D01*
X19027561Y-8731838D01*
X19022072Y-8730226D01*
X19022069Y-8730225D01*
X18992944Y-8721673D01*
X18960522Y-8712153D01*
X18876000Y-8700000D01*
X17801362Y-8700000D01*
X17799726Y-8700088D01*
X17799714Y-8700088D01*
X17770963Y-8701629D01*
X17770949Y-8701630D01*
X17769291Y-8701719D01*
X17767636Y-8701897D01*
X17767623Y-8701898D01*
X17750525Y-8703737D01*
X17742933Y-8704553D01*
X17737124Y-8706372D01*
X17737119Y-8706373D01*
X17711554Y-8714378D01*
X17641695Y-8715626D01*
X17582252Y-8678907D01*
X17552097Y-8615880D01*
X17550500Y-8596044D01*
X17550500Y-8225354D01*
X17547382Y-8199154D01*
X17501939Y-8096847D01*
X17422713Y-8017759D01*
X17412242Y-8013130D01*
X17412241Y-8013129D01*
X17328853Y-7976263D01*
X17328851Y-7976262D01*
X17320327Y-7972494D01*
X17294646Y-7969500D01*
X15605354Y-7969500D01*
X15601700Y-7969935D01*
X15601698Y-7969935D01*
X15596734Y-7970526D01*
X15579154Y-7972618D01*
X15547356Y-7986742D01*
X15520373Y-7998727D01*
X15451114Y-8007951D01*
X15412015Y-7994991D01*
X15389831Y-7983245D01*
X15313480Y-7964067D01*
X15244378Y-7946710D01*
X15237128Y-7944889D01*
X15155329Y-7944461D01*
X15087158Y-7944104D01*
X15087157Y-7944104D01*
X15079684Y-7944065D01*
X15072421Y-7945809D01*
X15072418Y-7945809D01*
X15003136Y-7962442D01*
X14926588Y-7980820D01*
X14786679Y-8053032D01*
X14781048Y-8057945D01*
X14781047Y-8057945D01*
X14754521Y-8081085D01*
X14668034Y-8156533D01*
X14577501Y-8285348D01*
X14520309Y-8432039D01*
X14516532Y-8460729D01*
X14512182Y-8493766D01*
X14483915Y-8557663D01*
X14476926Y-8565260D01*
X14445562Y-8596625D01*
X14436172Y-8604126D01*
X14436481Y-8604489D01*
X14429751Y-8610217D01*
X14422280Y-8614930D01*
X14416433Y-8621551D01*
X14416429Y-8621554D01*
X14387206Y-8654643D01*
X14381945Y-8660241D01*
X14370680Y-8671506D01*
X14368033Y-8675038D01*
X14368032Y-8675039D01*
X14364512Y-8679736D01*
X14358231Y-8687453D01*
X14353126Y-8693233D01*
X14336973Y-8711523D01*
X14327377Y-8722388D01*
X14323623Y-8730384D01*
X14322043Y-8732789D01*
X14313160Y-8747571D01*
X14311771Y-8750108D01*
X14306474Y-8757176D01*
X14303373Y-8765449D01*
X14303372Y-8765450D01*
X14290115Y-8800813D01*
X14286258Y-8809968D01*
X14266447Y-8852163D01*
X14265087Y-8860897D01*
X14264238Y-8863675D01*
X14259870Y-8880322D01*
X14259248Y-8883152D01*
X14256148Y-8891420D01*
X14255494Y-8900224D01*
X14255493Y-8900227D01*
X14254633Y-8911803D01*
X14252781Y-8936733D01*
X14252694Y-8937899D01*
X14251561Y-8947773D01*
X14249500Y-8961009D01*
X14249500Y-8976285D01*
X14249159Y-8985474D01*
X14245524Y-9034392D01*
X14247368Y-9043032D01*
X14247922Y-9051154D01*
X14249500Y-9066106D01*
X14249500Y-10680039D01*
X14248165Y-10691985D01*
X14248639Y-10692023D01*
X14247930Y-10700832D01*
X14245981Y-10709447D01*
X14246528Y-10718264D01*
X14246528Y-10718265D01*
X14249262Y-10762328D01*
X14249500Y-10770007D01*
X14249500Y-10785940D01*
X14250126Y-10790308D01*
X14250126Y-10790314D01*
X14250959Y-10796130D01*
X14251973Y-10806029D01*
X14254859Y-10852538D01*
X14257860Y-10860849D01*
X14258446Y-10863681D01*
X14262610Y-10880384D01*
X14263424Y-10883168D01*
X14264677Y-10891918D01*
X14283969Y-10934348D01*
X14287716Y-10943554D01*
X14298753Y-10974126D01*
X14303540Y-10987387D01*
X14308755Y-10994525D01*
X14310116Y-10997085D01*
X14318805Y-11011955D01*
X14320359Y-11014385D01*
X14324016Y-11022428D01*
X14329781Y-11029118D01*
X14354444Y-11057741D01*
X14360629Y-11065531D01*
X14368522Y-11076336D01*
X14379322Y-11087136D01*
X14385579Y-11093875D01*
X14411833Y-11124345D01*
X14411836Y-11124348D01*
X14417600Y-11131037D01*
X14425015Y-11135843D01*
X14431139Y-11141185D01*
X14442837Y-11150651D01*
X14731625Y-11439439D01*
X14739128Y-11448828D01*
X14739490Y-11448520D01*
X14745215Y-11455246D01*
X14749930Y-11462720D01*
X14784243Y-11493024D01*
X14789643Y-11497793D01*
X14795241Y-11503055D01*
X14806506Y-11514320D01*
X14810038Y-11516967D01*
X14810039Y-11516968D01*
X14814736Y-11520488D01*
X14822453Y-11526769D01*
X14827245Y-11531002D01*
X14850478Y-11551520D01*
X14857388Y-11557623D01*
X14865384Y-11561377D01*
X14867789Y-11562957D01*
X14882561Y-11571834D01*
X14885105Y-11573227D01*
X14892176Y-11578526D01*
X14935806Y-11594882D01*
X14944977Y-11598747D01*
X14979166Y-11614799D01*
X14979170Y-11614800D01*
X14987163Y-11618553D01*
X14995891Y-11619912D01*
X14998652Y-11620756D01*
X15015321Y-11625129D01*
X15018144Y-11625750D01*
X15026419Y-11628852D01*
X15035228Y-11629507D01*
X15035230Y-11629507D01*
X15072898Y-11632306D01*
X15082779Y-11633440D01*
X15096009Y-11635500D01*
X15111284Y-11635500D01*
X15120473Y-11635841D01*
X15169391Y-11639476D01*
X15178031Y-11637632D01*
X15186153Y-11637078D01*
X15201105Y-11635500D01*
X15349112Y-11635500D01*
X15416151Y-11655185D01*
X15436716Y-11671742D01*
X15469181Y-11704151D01*
X15469187Y-11704155D01*
X15477287Y-11712241D01*
X15487758Y-11716870D01*
X15487759Y-11716871D01*
X15571147Y-11753737D01*
X15571149Y-11753738D01*
X15579673Y-11757506D01*
X15605354Y-11760500D01*
X17294646Y-11760500D01*
X17310846Y-11758572D01*
X17379742Y-11770196D01*
X17431416Y-11817223D01*
X17449500Y-11881703D01*
X17449500Y-13348257D01*
X17429815Y-13415296D01*
X17377011Y-13461051D01*
X17311141Y-13471423D01*
X17294646Y-13469500D01*
X15605354Y-13469500D01*
X15601700Y-13469935D01*
X15601698Y-13469935D01*
X15596734Y-13470526D01*
X15579154Y-13472618D01*
X15476847Y-13518061D01*
X15468760Y-13526162D01*
X15436873Y-13558105D01*
X15375579Y-13591643D01*
X15349115Y-13594500D01*
X15224952Y-13594500D01*
X15213011Y-13593166D01*
X15212973Y-13593640D01*
X15204167Y-13592931D01*
X15195552Y-13590982D01*
X15152707Y-13593640D01*
X15142680Y-13594262D01*
X15135002Y-13594500D01*
X15119060Y-13594500D01*
X15114681Y-13595127D01*
X15108867Y-13595959D01*
X15098973Y-13596973D01*
X15080196Y-13598138D01*
X15052461Y-13599859D01*
X15044152Y-13602858D01*
X15041305Y-13603448D01*
X15024600Y-13607613D01*
X15021823Y-13608425D01*
X15013082Y-13609677D01*
X15005043Y-13613332D01*
X15005040Y-13613333D01*
X14970657Y-13628966D01*
X14961439Y-13632719D01*
X14917613Y-13648540D01*
X14910477Y-13653753D01*
X14907923Y-13655111D01*
X14893052Y-13663800D01*
X14890613Y-13665360D01*
X14882572Y-13669016D01*
X14847240Y-13699460D01*
X14839483Y-13705619D01*
X14828664Y-13713523D01*
X14817871Y-13724316D01*
X14811132Y-13730573D01*
X14773963Y-13762600D01*
X14769158Y-13770013D01*
X14763809Y-13776144D01*
X14754346Y-13787841D01*
X14445563Y-14096624D01*
X14436172Y-14104126D01*
X14436481Y-14104489D01*
X14429751Y-14110217D01*
X14422280Y-14114930D01*
X14416433Y-14121551D01*
X14416429Y-14121554D01*
X14387206Y-14154643D01*
X14381945Y-14160241D01*
X14370680Y-14171506D01*
X14368033Y-14175038D01*
X14368032Y-14175039D01*
X14364512Y-14179736D01*
X14358227Y-14187457D01*
X14336979Y-14211516D01*
X14327377Y-14222388D01*
X14323623Y-14230384D01*
X14322043Y-14232789D01*
X14313160Y-14247571D01*
X14311771Y-14250108D01*
X14306474Y-14257176D01*
X14303373Y-14265449D01*
X14303372Y-14265450D01*
X14290115Y-14300813D01*
X14286258Y-14309968D01*
X14266447Y-14352163D01*
X14265087Y-14360897D01*
X14264238Y-14363675D01*
X14259870Y-14380322D01*
X14259248Y-14383152D01*
X14256148Y-14391420D01*
X14255494Y-14400224D01*
X14255493Y-14400227D01*
X14252694Y-14437899D01*
X14251561Y-14447773D01*
X14249500Y-14461009D01*
X14249500Y-14476285D01*
X14249159Y-14485474D01*
X14245524Y-14534392D01*
X14247368Y-14543032D01*
X14247922Y-14551154D01*
X14249500Y-14566106D01*
X14249500Y-16180039D01*
X14248165Y-16191985D01*
X14248639Y-16192023D01*
X14247930Y-16200832D01*
X14245981Y-16209447D01*
X14246528Y-16218264D01*
X14246528Y-16218265D01*
X14249262Y-16262328D01*
X14249500Y-16270007D01*
X14249500Y-16285940D01*
X14250126Y-16290308D01*
X14250126Y-16290314D01*
X14250959Y-16296130D01*
X14251973Y-16306029D01*
X14254859Y-16352538D01*
X14257860Y-16360849D01*
X14258446Y-16363681D01*
X14262610Y-16380384D01*
X14263424Y-16383168D01*
X14264677Y-16391918D01*
X14283969Y-16434348D01*
X14287716Y-16443554D01*
X14303540Y-16487387D01*
X14308755Y-16494525D01*
X14310116Y-16497085D01*
X14318805Y-16511955D01*
X14320359Y-16514385D01*
X14324016Y-16522428D01*
X14329781Y-16529118D01*
X14354444Y-16557741D01*
X14360629Y-16565531D01*
X14368522Y-16576336D01*
X14379322Y-16587136D01*
X14385579Y-16593875D01*
X14411833Y-16624345D01*
X14411836Y-16624348D01*
X14417600Y-16631037D01*
X14425015Y-16635843D01*
X14431139Y-16641185D01*
X14442837Y-16650651D01*
X14731625Y-16939439D01*
X14739128Y-16948828D01*
X14739490Y-16948520D01*
X14745215Y-16955246D01*
X14749930Y-16962720D01*
X14756553Y-16968569D01*
X14789643Y-16997793D01*
X14795241Y-17003055D01*
X14806506Y-17014320D01*
X14810038Y-17016967D01*
X14810039Y-17016968D01*
X14814736Y-17020488D01*
X14822453Y-17026769D01*
X14857388Y-17057623D01*
X14865384Y-17061377D01*
X14867789Y-17062957D01*
X14882561Y-17071834D01*
X14885105Y-17073227D01*
X14892176Y-17078526D01*
X14900452Y-17081628D01*
X14900451Y-17081628D01*
X14935806Y-17094882D01*
X14944977Y-17098747D01*
X14979166Y-17114799D01*
X14979170Y-17114800D01*
X14987163Y-17118553D01*
X14995891Y-17119912D01*
X14998652Y-17120756D01*
X15015321Y-17125129D01*
X15018144Y-17125750D01*
X15026419Y-17128852D01*
X15035228Y-17129507D01*
X15035230Y-17129507D01*
X15072898Y-17132306D01*
X15082779Y-17133440D01*
X15096009Y-17135500D01*
X15111284Y-17135500D01*
X15120473Y-17135841D01*
X15169391Y-17139476D01*
X15178031Y-17137632D01*
X15186153Y-17137078D01*
X15201105Y-17135500D01*
X15349112Y-17135500D01*
X15416151Y-17155185D01*
X15436716Y-17171742D01*
X15469181Y-17204151D01*
X15469187Y-17204155D01*
X15477287Y-17212241D01*
X15487758Y-17216870D01*
X15487759Y-17216871D01*
X15571147Y-17253737D01*
X15571149Y-17253738D01*
X15579673Y-17257506D01*
X15605354Y-17260500D01*
X17075215Y-17260500D01*
X17142254Y-17280185D01*
X17178136Y-17315339D01*
X17204509Y-17354585D01*
X17253958Y-17428172D01*
X17276183Y-17448395D01*
X17364878Y-17529102D01*
X17364882Y-17529105D01*
X17370410Y-17534135D01*
X17508776Y-17609262D01*
X17611031Y-17636088D01*
X17653841Y-17647319D01*
X17653843Y-17647319D01*
X17661069Y-17649215D01*
X17738127Y-17650425D01*
X17811025Y-17651571D01*
X17811028Y-17651571D01*
X17818495Y-17651688D01*
X17825776Y-17650020D01*
X17825780Y-17650020D01*
X17964681Y-17618207D01*
X17971968Y-17616538D01*
X18112625Y-17545795D01*
X18118306Y-17540943D01*
X18118309Y-17540941D01*
X18226666Y-17448395D01*
X18226667Y-17448394D01*
X18232348Y-17443542D01*
X18243393Y-17428172D01*
X18296270Y-17354585D01*
X18324224Y-17315683D01*
X18382950Y-17169598D01*
X18384003Y-17162201D01*
X18404562Y-17017744D01*
X18404562Y-17017740D01*
X18405134Y-17013723D01*
X18405278Y-17000000D01*
X18404790Y-16995967D01*
X18387262Y-16851119D01*
X18387261Y-16851115D01*
X18386363Y-16843694D01*
X18383718Y-16836694D01*
X18338804Y-16717830D01*
X18333521Y-16648161D01*
X18366743Y-16586695D01*
X18427923Y-16552948D01*
X18454799Y-16550000D01*
X19073325Y-16550000D01*
X19140364Y-16569685D01*
X19161006Y-16586319D01*
X20218173Y-17643486D01*
X20223003Y-17648598D01*
X20225657Y-17651571D01*
X20276738Y-17708803D01*
X20280272Y-17711742D01*
X20280276Y-17711746D01*
X20366688Y-17783613D01*
X20368341Y-17785012D01*
X20453515Y-17858404D01*
X20453519Y-17858407D01*
X20456996Y-17861403D01*
X20463482Y-17865495D01*
X20476596Y-17875023D01*
X20482490Y-17879925D01*
X20486427Y-17882314D01*
X20582532Y-17940632D01*
X20584291Y-17941720D01*
X20683324Y-18004205D01*
X20687536Y-18006058D01*
X20687543Y-18006062D01*
X20690340Y-18007293D01*
X20704723Y-18014779D01*
X20711276Y-18018756D01*
X20819227Y-18064024D01*
X20821159Y-18064854D01*
X20924058Y-18110131D01*
X20924066Y-18110134D01*
X20928273Y-18111985D01*
X20932702Y-18113193D01*
X20932706Y-18113194D01*
X20934750Y-18113751D01*
X20935666Y-18114001D01*
X20950997Y-18119280D01*
X20958069Y-18122245D01*
X20962525Y-18123377D01*
X20962529Y-18123378D01*
X21071534Y-18151061D01*
X21073628Y-18151613D01*
X21182023Y-18181166D01*
X21182029Y-18181167D01*
X21186463Y-18182376D01*
X21194076Y-18183277D01*
X21210010Y-18186230D01*
X21217448Y-18188119D01*
X21222016Y-18188579D01*
X21222022Y-18188580D01*
X21276102Y-18194025D01*
X21333893Y-18199844D01*
X21336008Y-18200076D01*
X21447647Y-18213289D01*
X21447652Y-18213289D01*
X21452221Y-18213830D01*
X21456812Y-18213690D01*
X21456818Y-18213690D01*
X21559321Y-18210558D01*
X21563108Y-18210500D01*
X55583914Y-18210500D01*
X55590945Y-18210699D01*
X55671511Y-18215274D01*
X55788051Y-18204566D01*
X55790157Y-18204391D01*
X55863528Y-18198938D01*
X55902290Y-18196058D01*
X55902292Y-18196058D01*
X55906877Y-18195717D01*
X55911363Y-18194702D01*
X55911370Y-18194701D01*
X55914357Y-18194025D01*
X55930361Y-18191489D01*
X55938001Y-18190787D01*
X55942465Y-18189695D01*
X55942475Y-18189693D01*
X56051697Y-18162967D01*
X56053783Y-18162476D01*
X56109318Y-18149909D01*
X56163393Y-18137673D01*
X56163395Y-18137672D01*
X56167891Y-18136655D01*
X56175046Y-18133873D01*
X56190487Y-18129004D01*
X56197945Y-18127179D01*
X56239616Y-18110131D01*
X56306238Y-18082876D01*
X56308247Y-18082074D01*
X56353621Y-18064429D01*
X56417309Y-18039662D01*
X56421303Y-18037379D01*
X56421312Y-18037375D01*
X56423978Y-18035852D01*
X56438533Y-18028753D01*
X56441368Y-18027593D01*
X56441373Y-18027590D01*
X56445632Y-18025848D01*
X56449582Y-18023498D01*
X56449586Y-18023496D01*
X56503481Y-17991431D01*
X56546231Y-17965997D01*
X56548047Y-17964938D01*
X56649650Y-17906868D01*
X56653256Y-17904025D01*
X56653264Y-17904020D01*
X56655674Y-17902120D01*
X56669029Y-17892942D01*
X56671662Y-17891375D01*
X56671667Y-17891372D01*
X56675621Y-17889019D01*
X56679174Y-17886116D01*
X56679187Y-17886107D01*
X56766283Y-17814946D01*
X56767970Y-17813592D01*
X56856202Y-17744035D01*
X56859811Y-17741190D01*
X56887510Y-17711746D01*
X56933240Y-17663133D01*
X56935877Y-17660415D01*
X57633572Y-16962720D01*
X58354472Y-16241819D01*
X58415795Y-16208334D01*
X58442153Y-16205500D01*
X70867146Y-16205500D01*
X70870800Y-16205065D01*
X70870802Y-16205065D01*
X70875766Y-16204474D01*
X70893346Y-16202382D01*
X70995653Y-16156939D01*
X71003742Y-16148836D01*
X71005766Y-16147445D01*
X71072164Y-16125696D01*
X71139780Y-16143298D01*
X71187147Y-16194661D01*
X71200000Y-16249637D01*
X71200000Y-20212905D01*
X71198116Y-20234437D01*
X71195372Y-20249999D01*
X71197086Y-20259722D01*
X71195731Y-20276953D01*
X71193283Y-20292409D01*
X71181295Y-20329301D01*
X71170717Y-20350061D01*
X71147914Y-20381446D01*
X71131446Y-20397914D01*
X71100061Y-20420717D01*
X71079301Y-20431295D01*
X71042409Y-20443283D01*
X71026953Y-20445731D01*
X71009722Y-20447086D01*
X70999999Y-20445372D01*
X70989314Y-20447256D01*
X70984437Y-20448116D01*
X70962905Y-20450000D01*
X537095Y-20450000D01*
X515563Y-20448116D01*
X510686Y-20447256D01*
X500001Y-20445372D01*
X490278Y-20447086D01*
X473047Y-20445731D01*
X457591Y-20443283D01*
X420699Y-20431295D01*
X399939Y-20420717D01*
X368554Y-20397914D01*
X352086Y-20381446D01*
X329283Y-20350061D01*
X318705Y-20329301D01*
X306717Y-20292409D01*
X304269Y-20276953D01*
X302914Y-20259722D01*
X304628Y-20249999D01*
X301884Y-20234437D01*
X300000Y-20212905D01*
X300000Y-17421624D01*
X319685Y-17354585D01*
X372489Y-17308830D01*
X424036Y-17297624D01*
X7616241Y-17299740D01*
X7616240Y-17299740D01*
X8324358Y-17299948D01*
X8391392Y-17319652D01*
X8412003Y-17336267D01*
X9751549Y-18675813D01*
X9752783Y-18676921D01*
X9752792Y-18676930D01*
X9766847Y-18689554D01*
X9775443Y-18697276D01*
X9796085Y-18713910D01*
X9801482Y-18716733D01*
X9801485Y-18716735D01*
X9804701Y-18718417D01*
X9899801Y-18768162D01*
X9966840Y-18787847D01*
X10051362Y-18800000D01*
X11876000Y-18800000D01*
X11879280Y-18799647D01*
X11879287Y-18799647D01*
X11916298Y-18795668D01*
X11939772Y-18793144D01*
X11943016Y-18792438D01*
X11943024Y-18792437D01*
X11989313Y-18782367D01*
X11989326Y-18782364D01*
X11991283Y-18781938D01*
X11993211Y-18781385D01*
X11993219Y-18781383D01*
X12002917Y-18778601D01*
X12028801Y-18771177D01*
X12123969Y-18715519D01*
X12176773Y-18669764D01*
X12218192Y-18625836D01*
X12268162Y-18527561D01*
X12287847Y-18460522D01*
X12300000Y-18376000D01*
X12300000Y-13624000D01*
X12298854Y-13613333D01*
X12293499Y-13563532D01*
X12293144Y-13560228D01*
X12289723Y-13544499D01*
X12282367Y-13510687D01*
X12282364Y-13510674D01*
X12281938Y-13508717D01*
X12271177Y-13471199D01*
X12215519Y-13376031D01*
X12211765Y-13371698D01*
X12211758Y-13371689D01*
X12177231Y-13331843D01*
X12148206Y-13268288D01*
X12158150Y-13199129D01*
X12180724Y-13165575D01*
X12212105Y-13132293D01*
X12212109Y-13132288D01*
X12218192Y-13125836D01*
X12268162Y-13027561D01*
X12274207Y-13006976D01*
X12280539Y-12985410D01*
X12287847Y-12960522D01*
X12300000Y-12876000D01*
X12300000Y-8124000D01*
X12299267Y-8117177D01*
X12293499Y-8063532D01*
X12293144Y-8060228D01*
X12291755Y-8053840D01*
X12282367Y-8010687D01*
X12282364Y-8010674D01*
X12281938Y-8008717D01*
X12280604Y-8004064D01*
X12278001Y-7994991D01*
X12271177Y-7971199D01*
X12215519Y-7876031D01*
X12169764Y-7823227D01*
X12148216Y-7802910D01*
X12132289Y-7787892D01*
X12132287Y-7787891D01*
X12125836Y-7781808D01*
X12059195Y-7747923D01*
X12032665Y-7734433D01*
X12032663Y-7734432D01*
X12027561Y-7731838D01*
X12022072Y-7730226D01*
X12022069Y-7730225D01*
X11975697Y-7716609D01*
X11960522Y-7712153D01*
X11876000Y-7700000D01*
X10293497Y-7700000D01*
X10285996Y-7700194D01*
X10278772Y-7700381D01*
X10278744Y-7700382D01*
X10277975Y-7700402D01*
X10277215Y-7700441D01*
X10277199Y-7700442D01*
X10270382Y-7700795D01*
X10270377Y-7700796D01*
X10265159Y-7701066D01*
X10166863Y-7723093D01*
X10162018Y-7725080D01*
X10162017Y-7725080D01*
X10151521Y-7729384D01*
X10102217Y-7749601D01*
X10088253Y-7757819D01*
X10039919Y-7786265D01*
X10028626Y-7792911D01*
X10025169Y-7795677D01*
X10025167Y-7795678D01*
X8928730Y-8672828D01*
X8864084Y-8699336D01*
X8851268Y-8700000D01*
X424000Y-8700000D01*
X356961Y-8680315D01*
X311206Y-8627511D01*
X300000Y-8576000D01*
X300000Y-8214667D01*
X319685Y-8147628D01*
X372489Y-8101873D01*
X441647Y-8091929D01*
X494056Y-8112353D01*
X496685Y-8114153D01*
X504787Y-8122241D01*
X533855Y-8135092D01*
X598647Y-8163737D01*
X598649Y-8163738D01*
X607173Y-8167506D01*
X632854Y-8170500D01*
X5822146Y-8170500D01*
X5825800Y-8170065D01*
X5825802Y-8170065D01*
X5830766Y-8169474D01*
X5848346Y-8167382D01*
X5950653Y-8121939D01*
X6029741Y-8042713D01*
X6034371Y-8032241D01*
X6071237Y-7948853D01*
X6071238Y-7948851D01*
X6075006Y-7940327D01*
X6078000Y-7914646D01*
X6078000Y-7605127D01*
X6097685Y-7538088D01*
X6150675Y-7492248D01*
X6164348Y-7486031D01*
X6173554Y-7482284D01*
X6209075Y-7469461D01*
X6209077Y-7469460D01*
X6217387Y-7466460D01*
X6224525Y-7461245D01*
X6227085Y-7459884D01*
X6241955Y-7451195D01*
X6244385Y-7449641D01*
X6252428Y-7445984D01*
X6287743Y-7415554D01*
X6295531Y-7409371D01*
X6306336Y-7401478D01*
X6317136Y-7390678D01*
X6323875Y-7384421D01*
X6354345Y-7358167D01*
X6354348Y-7358164D01*
X6361037Y-7352400D01*
X6365843Y-7344985D01*
X6371185Y-7338861D01*
X6380651Y-7327163D01*
X8420995Y-5286819D01*
X8482318Y-5253334D01*
X8508676Y-5250500D01*
X9508698Y-5250500D01*
X9575737Y-5270185D01*
X9582355Y-5274747D01*
X9621548Y-5303696D01*
X9630287Y-5306765D01*
X9630289Y-5306766D01*
X9676253Y-5322907D01*
X9746526Y-5347585D01*
X9754045Y-5348296D01*
X9754046Y-5348296D01*
X9774448Y-5350225D01*
X9774458Y-5350225D01*
X9777362Y-5350500D01*
X10222638Y-5350500D01*
X10225542Y-5350225D01*
X10225552Y-5350225D01*
X10245954Y-5348296D01*
X10245955Y-5348296D01*
X10253474Y-5347585D01*
X10323747Y-5322907D01*
X10369711Y-5306766D01*
X10369713Y-5306765D01*
X10378452Y-5303696D01*
X10417633Y-5274756D01*
X10483251Y-5250762D01*
X10491302Y-5250500D01*
X16630039Y-5250500D01*
X16641985Y-5251835D01*
X16642023Y-5251361D01*
X16650832Y-5252070D01*
X16659447Y-5254019D01*
X16668264Y-5253472D01*
X16668265Y-5253472D01*
X16712328Y-5250738D01*
X16720007Y-5250500D01*
X16735940Y-5250500D01*
X16740308Y-5249874D01*
X16740314Y-5249874D01*
X16746130Y-5249041D01*
X16756029Y-5248027D01*
X16788452Y-5246015D01*
X16793722Y-5245688D01*
X16802538Y-5245141D01*
X16810849Y-5242140D01*
X16813681Y-5241554D01*
X16830384Y-5237390D01*
X16833168Y-5236576D01*
X16841918Y-5235323D01*
X16884348Y-5216031D01*
X16893554Y-5212284D01*
X16929075Y-5199461D01*
X16929077Y-5199460D01*
X16937387Y-5196460D01*
X16944525Y-5191245D01*
X16947085Y-5189884D01*
X16961955Y-5181195D01*
X16964385Y-5179641D01*
X16972428Y-5175984D01*
X17007743Y-5145554D01*
X17015531Y-5139371D01*
X17026336Y-5131478D01*
X17037136Y-5120678D01*
X17043875Y-5114421D01*
X17074345Y-5088167D01*
X17074348Y-5088164D01*
X17081037Y-5082400D01*
X17085843Y-5074985D01*
X17091185Y-5068861D01*
X17100651Y-5057163D01*
X18120995Y-4036819D01*
X18182318Y-4003334D01*
X18208676Y-4000500D01*
X18767772Y-4000500D01*
X18796927Y-3996972D01*
X18849641Y-3990593D01*
X18849643Y-3990592D01*
X18857547Y-3989636D01*
X18864951Y-3986704D01*
X18864953Y-3986704D01*
X18989921Y-3937226D01*
X18989922Y-3937225D01*
X18997783Y-3934113D01*
X19004515Y-3929003D01*
X19004517Y-3929002D01*
X19008827Y-3925730D01*
X19074128Y-3900878D01*
X19083797Y-3900500D01*
X19666203Y-3900500D01*
X19733242Y-3920185D01*
G37*
%TD.AperFunction*%
%TA.AperFunction,Conductor*%
G36*
X58792827Y-11945185D02*
G01*
X58838582Y-11997989D01*
X58849500Y-12041876D01*
X58849500Y-12044646D01*
X58852618Y-12070846D01*
X58898061Y-12173153D01*
X58977287Y-12252241D01*
X58987758Y-12256870D01*
X58987759Y-12256871D01*
X59071147Y-12293737D01*
X59071149Y-12293738D01*
X59079673Y-12297506D01*
X59105354Y-12300500D01*
X59894646Y-12300500D01*
X59898300Y-12300065D01*
X59898302Y-12300065D01*
X59903266Y-12299474D01*
X59920846Y-12297382D01*
X60023153Y-12251939D01*
X60038170Y-12236895D01*
X60099465Y-12203357D01*
X60125928Y-12200500D01*
X65371677Y-12200500D01*
X65438716Y-12220185D01*
X65468927Y-12249473D01*
X65470561Y-12253153D01*
X65549787Y-12332241D01*
X65560258Y-12336870D01*
X65560259Y-12336871D01*
X65628611Y-12367089D01*
X65681966Y-12412200D01*
X65702463Y-12478995D01*
X65683593Y-12546269D01*
X65631348Y-12592661D01*
X65578472Y-12604500D01*
X57701086Y-12604500D01*
X57694056Y-12604301D01*
X57690330Y-12604089D01*
X57613489Y-12599726D01*
X57496949Y-12610434D01*
X57494843Y-12610609D01*
X57434343Y-12615105D01*
X57382710Y-12618942D01*
X57382708Y-12618942D01*
X57378123Y-12619283D01*
X57373637Y-12620298D01*
X57373630Y-12620299D01*
X57370643Y-12620975D01*
X57354639Y-12623511D01*
X57346999Y-12624213D01*
X57233280Y-12652040D01*
X57231369Y-12652491D01*
X57117109Y-12678345D01*
X57109962Y-12681124D01*
X57094494Y-12686000D01*
X57087054Y-12687821D01*
X57082796Y-12689563D01*
X57082793Y-12689564D01*
X56978730Y-12732137D01*
X56976720Y-12732939D01*
X56916717Y-12756273D01*
X56867691Y-12775338D01*
X56861364Y-12778954D01*
X56861039Y-12779140D01*
X56846459Y-12786251D01*
X56839368Y-12789152D01*
X56738769Y-12849003D01*
X56736953Y-12850062D01*
X56728859Y-12854688D01*
X56643927Y-12903230D01*
X56635350Y-12908132D01*
X56631744Y-12910975D01*
X56631736Y-12910980D01*
X56629326Y-12912880D01*
X56615971Y-12922058D01*
X56613336Y-12923626D01*
X56613330Y-12923631D01*
X56609379Y-12925981D01*
X56520785Y-12998366D01*
X56518772Y-13000011D01*
X56517099Y-13001354D01*
X56425189Y-13073810D01*
X56422044Y-13077153D01*
X56422041Y-13077156D01*
X56351745Y-13151883D01*
X56349108Y-13154601D01*
X54930528Y-14573181D01*
X54869205Y-14606666D01*
X54842847Y-14609500D01*
X43306965Y-14609500D01*
X43239926Y-14589815D01*
X43194171Y-14537011D01*
X43184227Y-14467853D01*
X43213252Y-14404297D01*
X43219284Y-14397819D01*
X44627819Y-12989284D01*
X44689142Y-12955799D01*
X44758834Y-12960783D01*
X44814767Y-13002655D01*
X44839184Y-13068119D01*
X44839500Y-13076965D01*
X44839500Y-13862346D01*
X44853883Y-13958014D01*
X44857895Y-13966369D01*
X44857896Y-13966372D01*
X44880954Y-14014388D01*
X44909920Y-14074710D01*
X44997792Y-14169771D01*
X45109732Y-14234790D01*
X45235842Y-14264021D01*
X45364971Y-14254878D01*
X45373620Y-14251532D01*
X45477107Y-14211496D01*
X45546733Y-14205666D01*
X45584126Y-14219918D01*
X45601712Y-14230133D01*
X45601719Y-14230136D01*
X45609732Y-14234790D01*
X45735842Y-14264021D01*
X45864971Y-14254878D01*
X45873620Y-14251532D01*
X45977107Y-14211496D01*
X46046733Y-14205666D01*
X46084126Y-14219918D01*
X46101712Y-14230133D01*
X46101719Y-14230136D01*
X46109732Y-14234790D01*
X46235842Y-14264021D01*
X46364971Y-14254878D01*
X46373620Y-14251532D01*
X46477107Y-14211496D01*
X46546733Y-14205666D01*
X46584126Y-14219918D01*
X46601712Y-14230133D01*
X46601719Y-14230136D01*
X46609732Y-14234790D01*
X46735842Y-14264021D01*
X46864971Y-14254878D01*
X46873620Y-14251532D01*
X46977107Y-14211496D01*
X47046733Y-14205666D01*
X47084126Y-14219918D01*
X47101712Y-14230133D01*
X47101719Y-14230136D01*
X47109732Y-14234790D01*
X47235842Y-14264021D01*
X47364971Y-14254878D01*
X47373620Y-14251532D01*
X47477107Y-14211496D01*
X47546733Y-14205666D01*
X47584126Y-14219918D01*
X47601712Y-14230133D01*
X47601719Y-14230136D01*
X47609732Y-14234790D01*
X47735842Y-14264021D01*
X47864971Y-14254878D01*
X47873620Y-14251532D01*
X47977107Y-14211496D01*
X48046733Y-14205666D01*
X48084126Y-14219918D01*
X48101712Y-14230133D01*
X48101719Y-14230136D01*
X48109732Y-14234790D01*
X48235842Y-14264021D01*
X48364971Y-14254878D01*
X48373620Y-14251532D01*
X48477107Y-14211496D01*
X48546733Y-14205666D01*
X48584126Y-14219918D01*
X48601712Y-14230133D01*
X48601719Y-14230136D01*
X48609732Y-14234790D01*
X48735842Y-14264021D01*
X48864971Y-14254878D01*
X48873620Y-14251532D01*
X48977107Y-14211496D01*
X49046733Y-14205666D01*
X49084126Y-14219918D01*
X49101712Y-14230133D01*
X49101719Y-14230136D01*
X49109732Y-14234790D01*
X49235842Y-14264021D01*
X49364971Y-14254878D01*
X49373620Y-14251532D01*
X49477107Y-14211496D01*
X49546733Y-14205666D01*
X49584126Y-14219918D01*
X49601712Y-14230133D01*
X49601719Y-14230136D01*
X49609732Y-14234790D01*
X49735842Y-14264021D01*
X49864971Y-14254878D01*
X49873620Y-14251532D01*
X49977056Y-14211516D01*
X49977058Y-14211515D01*
X49985704Y-14208170D01*
X50011978Y-14187457D01*
X50080087Y-14133765D01*
X50080089Y-14133762D01*
X50087366Y-14128026D01*
X50160968Y-14021533D01*
X50162296Y-14017335D01*
X50207733Y-13967684D01*
X50275282Y-13949826D01*
X50341763Y-13971322D01*
X50383698Y-14020103D01*
X50409920Y-14074710D01*
X50497792Y-14169771D01*
X50609732Y-14234790D01*
X50735842Y-14264021D01*
X50864971Y-14254878D01*
X50873620Y-14251532D01*
X50977056Y-14211516D01*
X50977058Y-14211515D01*
X50985704Y-14208170D01*
X51087366Y-14128026D01*
X51091272Y-14122374D01*
X51150425Y-14087621D01*
X51220238Y-14090415D01*
X51239737Y-14098925D01*
X51258776Y-14109262D01*
X51330301Y-14128026D01*
X51403841Y-14147319D01*
X51403843Y-14147319D01*
X51411069Y-14149215D01*
X51488127Y-14150425D01*
X51561025Y-14151571D01*
X51561028Y-14151571D01*
X51568495Y-14151688D01*
X51575776Y-14150020D01*
X51575780Y-14150020D01*
X51714681Y-14118207D01*
X51721968Y-14116538D01*
X51805134Y-14074710D01*
X51819838Y-14067315D01*
X51888574Y-14054779D01*
X51921186Y-14064726D01*
X51921548Y-14063696D01*
X52046526Y-14107585D01*
X52054045Y-14108296D01*
X52054046Y-14108296D01*
X52074448Y-14110225D01*
X52074458Y-14110225D01*
X52077362Y-14110500D01*
X52462638Y-14110500D01*
X52465542Y-14110225D01*
X52465552Y-14110225D01*
X52485954Y-14108296D01*
X52485955Y-14108296D01*
X52493474Y-14107585D01*
X52618452Y-14063696D01*
X52724999Y-13984999D01*
X52744931Y-13958014D01*
X52798189Y-13885908D01*
X52803696Y-13878452D01*
X52847585Y-13753474D01*
X52850500Y-13722638D01*
X52850500Y-13277362D01*
X52850212Y-13274310D01*
X52848296Y-13254046D01*
X52848296Y-13254045D01*
X52847585Y-13246526D01*
X52803696Y-13121548D01*
X52798189Y-13114093D01*
X52795629Y-13109257D01*
X52781655Y-13040799D01*
X52806910Y-12975653D01*
X52863377Y-12934503D01*
X52905215Y-12927232D01*
X56055661Y-12927232D01*
X56078632Y-12919768D01*
X56097547Y-12915228D01*
X56111755Y-12912978D01*
X56111757Y-12912977D01*
X56121394Y-12911451D01*
X56142915Y-12900486D01*
X56160884Y-12893043D01*
X56174570Y-12888596D01*
X56183849Y-12885581D01*
X56191737Y-12879850D01*
X56191741Y-12879848D01*
X56203387Y-12871386D01*
X56219971Y-12861223D01*
X56241488Y-12850260D01*
X56934929Y-12156819D01*
X56996252Y-12123334D01*
X57022610Y-12120500D01*
X57177038Y-12120500D01*
X57179942Y-12120225D01*
X57179952Y-12120225D01*
X57200005Y-12118329D01*
X57207526Y-12117618D01*
X57214655Y-12115114D01*
X57214657Y-12115114D01*
X57285028Y-12090401D01*
X57331085Y-12074227D01*
X57404394Y-12020080D01*
X57426329Y-12003879D01*
X57491949Y-11979884D01*
X57560125Y-11995174D01*
X57573671Y-12003879D01*
X57595606Y-12020080D01*
X57668915Y-12074227D01*
X57714972Y-12090401D01*
X57785343Y-12115114D01*
X57785345Y-12115114D01*
X57792474Y-12117618D01*
X57799995Y-12118329D01*
X57820048Y-12120225D01*
X57820058Y-12120225D01*
X57822962Y-12120500D01*
X58197038Y-12120500D01*
X58199942Y-12120225D01*
X58199952Y-12120225D01*
X58220005Y-12118329D01*
X58227526Y-12117618D01*
X58234655Y-12115114D01*
X58234657Y-12115114D01*
X58305028Y-12090401D01*
X58351085Y-12074227D01*
X58444711Y-12005074D01*
X58448966Y-12001931D01*
X58448967Y-12001930D01*
X58456423Y-11996423D01*
X58471634Y-11975829D01*
X58527297Y-11933599D01*
X58571376Y-11925500D01*
X58725788Y-11925500D01*
X58792827Y-11945185D01*
G37*
%TD.AperFunction*%
%TA.AperFunction,Conductor*%
G36*
X50239429Y-11745185D02*
G01*
X50260071Y-11761819D01*
X50604099Y-12105847D01*
X50637584Y-12167170D01*
X50632600Y-12236862D01*
X50590728Y-12292795D01*
X50570920Y-12303768D01*
X50570992Y-12303894D01*
X50562944Y-12308484D01*
X50554296Y-12311830D01*
X50540831Y-12322445D01*
X50459913Y-12386235D01*
X50459911Y-12386238D01*
X50452634Y-12391974D01*
X50379032Y-12498467D01*
X50377704Y-12502665D01*
X50332267Y-12552316D01*
X50264718Y-12570174D01*
X50198237Y-12548678D01*
X50156302Y-12499897D01*
X50137007Y-12459716D01*
X50130080Y-12445290D01*
X50042208Y-12350229D01*
X49930268Y-12285210D01*
X49804158Y-12255979D01*
X49675029Y-12265122D01*
X49666380Y-12268468D01*
X49562893Y-12308504D01*
X49493267Y-12314334D01*
X49455874Y-12300082D01*
X49438288Y-12289867D01*
X49438281Y-12289864D01*
X49430268Y-12285210D01*
X49304158Y-12255979D01*
X49175029Y-12265122D01*
X49166380Y-12268468D01*
X49062893Y-12308504D01*
X48993267Y-12314334D01*
X48955874Y-12300082D01*
X48938288Y-12289867D01*
X48938281Y-12289864D01*
X48930268Y-12285210D01*
X48804158Y-12255979D01*
X48804225Y-12255690D01*
X48744484Y-12232921D01*
X48703012Y-12176691D01*
X48695500Y-12134186D01*
X48695500Y-12057610D01*
X48715185Y-11990571D01*
X48731819Y-11969929D01*
X48939928Y-11761819D01*
X49001251Y-11728334D01*
X49027609Y-11725500D01*
X50172390Y-11725500D01*
X50239429Y-11745185D01*
G37*
%TD.AperFunction*%
%TA.AperFunction,Conductor*%
G36*
X65234437Y-301884D02*
G01*
X65239314Y-302744D01*
X65249999Y-304628D01*
X65259722Y-302914D01*
X65276953Y-304269D01*
X65292409Y-306717D01*
X65329301Y-318705D01*
X65350061Y-329283D01*
X65381446Y-352086D01*
X65397914Y-368554D01*
X65420717Y-399939D01*
X65431295Y-420699D01*
X65443283Y-457591D01*
X65445731Y-473047D01*
X65447086Y-490278D01*
X65445372Y-500001D01*
X65447256Y-510686D01*
X65448116Y-515563D01*
X65450000Y-537095D01*
X65450000Y-8712907D01*
X65448117Y-8734433D01*
X65445372Y-8750001D01*
X65447087Y-8759727D01*
X65447256Y-8761443D01*
X65447256Y-8762290D01*
X65447551Y-8764439D01*
X65451697Y-8806530D01*
X65461575Y-8906828D01*
X65507320Y-9057628D01*
X65581606Y-9196607D01*
X65585473Y-9201318D01*
X65585473Y-9201319D01*
X65599289Y-9218154D01*
X65681578Y-9318422D01*
X65803393Y-9418394D01*
X65942372Y-9492680D01*
X66093172Y-9538425D01*
X66181440Y-9547118D01*
X66187713Y-9548185D01*
X66190720Y-9549385D01*
X66196993Y-9550000D01*
X66204604Y-9550000D01*
X66216756Y-9550597D01*
X66232932Y-9552190D01*
X66235562Y-9552449D01*
X66237711Y-9552744D01*
X66238557Y-9552744D01*
X66240273Y-9552913D01*
X66249999Y-9554628D01*
X66265561Y-9551884D01*
X66287093Y-9550000D01*
X70962905Y-9550000D01*
X70984437Y-9551884D01*
X70989314Y-9552744D01*
X70999999Y-9554628D01*
X71009722Y-9552914D01*
X71026953Y-9554269D01*
X71042409Y-9556717D01*
X71079301Y-9568705D01*
X71100061Y-9579283D01*
X71131446Y-9602086D01*
X71147914Y-9618554D01*
X71170717Y-9649939D01*
X71181295Y-9670699D01*
X71193283Y-9707591D01*
X71195731Y-9723047D01*
X71197086Y-9740278D01*
X71195372Y-9750001D01*
X71197256Y-9760686D01*
X71198116Y-9765563D01*
X71200000Y-9787095D01*
X71200000Y-10035333D01*
X71180315Y-10102372D01*
X71127511Y-10148127D01*
X71058353Y-10158071D01*
X71005944Y-10137647D01*
X71003315Y-10135847D01*
X70995213Y-10127759D01*
X70901649Y-10086394D01*
X70901353Y-10086263D01*
X70901351Y-10086262D01*
X70892827Y-10082494D01*
X70867146Y-10079500D01*
X65677854Y-10079500D01*
X65674200Y-10079935D01*
X65674198Y-10079935D01*
X65669234Y-10080526D01*
X65651654Y-10082618D01*
X65549347Y-10128061D01*
X65470259Y-10207287D01*
X65465630Y-10217758D01*
X65465629Y-10217759D01*
X65439279Y-10277362D01*
X65424994Y-10309673D01*
X65422000Y-10335354D01*
X65422000Y-11075500D01*
X65402315Y-11142539D01*
X65349511Y-11188294D01*
X65298000Y-11199500D01*
X60125843Y-11199500D01*
X60058804Y-11179815D01*
X60038243Y-11163262D01*
X60022713Y-11147759D01*
X60010906Y-11142539D01*
X59928853Y-11106263D01*
X59928851Y-11106262D01*
X59920327Y-11102494D01*
X59894646Y-11099500D01*
X59476197Y-11099500D01*
X59439953Y-11093760D01*
X59433126Y-11090281D01*
X59409279Y-11086504D01*
X59390364Y-11081964D01*
X59367393Y-11074500D01*
X58571376Y-11074500D01*
X58504337Y-11054815D01*
X58471634Y-11024171D01*
X58461932Y-11011036D01*
X58456423Y-11003577D01*
X58446329Y-10996121D01*
X58387802Y-10952893D01*
X58351085Y-10925773D01*
X58275634Y-10899277D01*
X58234657Y-10884886D01*
X58234655Y-10884886D01*
X58227526Y-10882382D01*
X58220005Y-10881671D01*
X58199952Y-10879775D01*
X58199942Y-10879775D01*
X58197038Y-10879500D01*
X57822962Y-10879500D01*
X57820058Y-10879775D01*
X57820048Y-10879775D01*
X57799995Y-10881671D01*
X57792474Y-10882382D01*
X57785345Y-10884886D01*
X57785343Y-10884886D01*
X57744366Y-10899277D01*
X57668915Y-10925773D01*
X57632198Y-10952893D01*
X57573671Y-10996121D01*
X57508051Y-11020116D01*
X57439875Y-11004826D01*
X57426329Y-10996121D01*
X57367802Y-10952893D01*
X57331085Y-10925773D01*
X57255634Y-10899277D01*
X57214657Y-10884886D01*
X57214655Y-10884886D01*
X57207526Y-10882382D01*
X57200005Y-10881671D01*
X57179952Y-10879775D01*
X57179942Y-10879775D01*
X57177038Y-10879500D01*
X56802962Y-10879500D01*
X56800058Y-10879775D01*
X56800048Y-10879775D01*
X56779995Y-10881671D01*
X56772474Y-10882382D01*
X56765345Y-10884886D01*
X56765343Y-10884886D01*
X56724366Y-10899277D01*
X56648915Y-10925773D01*
X56612198Y-10952893D01*
X56553672Y-10996121D01*
X56543577Y-11003577D01*
X56465773Y-11108915D01*
X56453965Y-11142539D01*
X56428357Y-11215461D01*
X56422382Y-11232474D01*
X56421671Y-11239995D01*
X56420734Y-11249913D01*
X56419500Y-11262962D01*
X56419500Y-11417390D01*
X56399815Y-11484429D01*
X56383181Y-11505071D01*
X55848339Y-12039913D01*
X55787016Y-12073398D01*
X55760658Y-12076232D01*
X53411540Y-12076232D01*
X53344501Y-12056547D01*
X53298746Y-12003743D01*
X53288802Y-11934585D01*
X53304315Y-11889952D01*
X53340134Y-11828284D01*
X53344790Y-11820268D01*
X53374021Y-11694158D01*
X53364878Y-11565029D01*
X53350078Y-11526773D01*
X53321496Y-11452893D01*
X53315666Y-11383267D01*
X53329918Y-11345874D01*
X53340133Y-11328288D01*
X53340136Y-11328281D01*
X53344790Y-11320268D01*
X53374021Y-11194158D01*
X53364878Y-11065029D01*
X53347622Y-11020425D01*
X53321496Y-10952893D01*
X53315666Y-10883267D01*
X53329918Y-10845874D01*
X53340133Y-10828288D01*
X53340136Y-10828281D01*
X53344790Y-10820268D01*
X53374021Y-10694158D01*
X53364878Y-10565029D01*
X53357975Y-10547186D01*
X53321496Y-10452893D01*
X53315666Y-10383267D01*
X53329918Y-10345874D01*
X53340133Y-10328288D01*
X53340136Y-10328281D01*
X53344790Y-10320268D01*
X53374021Y-10194158D01*
X53364878Y-10065029D01*
X53321496Y-9952893D01*
X53315666Y-9883267D01*
X53329918Y-9845874D01*
X53340133Y-9828288D01*
X53340136Y-9828281D01*
X53344790Y-9820268D01*
X53374021Y-9694158D01*
X53364878Y-9565029D01*
X53350777Y-9528579D01*
X53321496Y-9452893D01*
X53315666Y-9383267D01*
X53329918Y-9345874D01*
X53340133Y-9328288D01*
X53340136Y-9328281D01*
X53344790Y-9320268D01*
X53348528Y-9304141D01*
X53382839Y-9243279D01*
X53444609Y-9210627D01*
X53514227Y-9216554D01*
X53557006Y-9244458D01*
X54060586Y-9748038D01*
X54082097Y-9758998D01*
X54098688Y-9769165D01*
X54110328Y-9777623D01*
X54110331Y-9777625D01*
X54118225Y-9783360D01*
X54127506Y-9786376D01*
X54127507Y-9786376D01*
X54141194Y-9790823D01*
X54159165Y-9798267D01*
X54180680Y-9809229D01*
X54190317Y-9810755D01*
X54190319Y-9810756D01*
X54204532Y-9813007D01*
X54223442Y-9817547D01*
X54246413Y-9825010D01*
X56488601Y-9825010D01*
X56511572Y-9817546D01*
X56530487Y-9813006D01*
X56544695Y-9810756D01*
X56544697Y-9810755D01*
X56554334Y-9809229D01*
X56575855Y-9798264D01*
X56593824Y-9790821D01*
X56607510Y-9786374D01*
X56616789Y-9783359D01*
X56624677Y-9777628D01*
X56624681Y-9777626D01*
X56636327Y-9769164D01*
X56652911Y-9759001D01*
X56674428Y-9748038D01*
X57301136Y-9121330D01*
X57362459Y-9087845D01*
X57388817Y-9085011D01*
X58157882Y-9085011D01*
X58180853Y-9077547D01*
X58199768Y-9073007D01*
X58213976Y-9070757D01*
X58213978Y-9070756D01*
X58223615Y-9069230D01*
X58245136Y-9058265D01*
X58263105Y-9050822D01*
X58276791Y-9046375D01*
X58286070Y-9043360D01*
X58293958Y-9037629D01*
X58293962Y-9037627D01*
X58305608Y-9029165D01*
X58322192Y-9019002D01*
X58343709Y-9008039D01*
X58783199Y-8568549D01*
X58844522Y-8535064D01*
X58914214Y-8540048D01*
X58958484Y-8568472D01*
X58969181Y-8579151D01*
X58969187Y-8579155D01*
X58977287Y-8587241D01*
X58987758Y-8591870D01*
X58987759Y-8591871D01*
X59071147Y-8628737D01*
X59071149Y-8628738D01*
X59079673Y-8632506D01*
X59105354Y-8635500D01*
X60194646Y-8635500D01*
X60198300Y-8635065D01*
X60198302Y-8635065D01*
X60206712Y-8634064D01*
X60220846Y-8632382D01*
X60323153Y-8586939D01*
X60402241Y-8507713D01*
X60409315Y-8491712D01*
X60443737Y-8413853D01*
X60443738Y-8413851D01*
X60447506Y-8405327D01*
X60450500Y-8379646D01*
X60450500Y-7740354D01*
X60449719Y-7733787D01*
X60448481Y-7723390D01*
X60447382Y-7714154D01*
X60401939Y-7611847D01*
X60322713Y-7532759D01*
X60312242Y-7528130D01*
X60312241Y-7528129D01*
X60228853Y-7491263D01*
X60228851Y-7491262D01*
X60220327Y-7487494D01*
X60194646Y-7484500D01*
X59249500Y-7484500D01*
X59182461Y-7464815D01*
X59136706Y-7412011D01*
X59125500Y-7360500D01*
X59125500Y-6839500D01*
X59145185Y-6772461D01*
X59197989Y-6726706D01*
X59249500Y-6715500D01*
X60194646Y-6715500D01*
X60198300Y-6715065D01*
X60198302Y-6715065D01*
X60203266Y-6714474D01*
X60220846Y-6712382D01*
X60282699Y-6684908D01*
X60312690Y-6671587D01*
X60312692Y-6671586D01*
X60323153Y-6666939D01*
X60328489Y-6661594D01*
X60396425Y-6640500D01*
X60718767Y-6640500D01*
X60771373Y-6653567D01*
X60771548Y-6653696D01*
X60780290Y-6656766D01*
X60780292Y-6656767D01*
X60812388Y-6668038D01*
X60896526Y-6697585D01*
X60904045Y-6698296D01*
X60904046Y-6698296D01*
X60924448Y-6700225D01*
X60924458Y-6700225D01*
X60927362Y-6700500D01*
X61372638Y-6700500D01*
X61375542Y-6700225D01*
X61375552Y-6700225D01*
X61395954Y-6698296D01*
X61395955Y-6698296D01*
X61403474Y-6697585D01*
X61528452Y-6653696D01*
X61560283Y-6630185D01*
X61627546Y-6580504D01*
X61634999Y-6574999D01*
X61642232Y-6565207D01*
X61708189Y-6475908D01*
X61713696Y-6468452D01*
X61757585Y-6343474D01*
X61759115Y-6327287D01*
X61760225Y-6315552D01*
X61760225Y-6315542D01*
X61760500Y-6312638D01*
X61760500Y-5927362D01*
X61759593Y-5917759D01*
X61758296Y-5904046D01*
X61758296Y-5904045D01*
X61757585Y-5896526D01*
X61713696Y-5771548D01*
X61696226Y-5747896D01*
X61640504Y-5672454D01*
X61634999Y-5665001D01*
X61610681Y-5647039D01*
X61535908Y-5591811D01*
X61528452Y-5586304D01*
X61403474Y-5542415D01*
X61395955Y-5541704D01*
X61395954Y-5541704D01*
X61375552Y-5539775D01*
X61375542Y-5539775D01*
X61372638Y-5539500D01*
X60927362Y-5539500D01*
X60924458Y-5539775D01*
X60924448Y-5539775D01*
X60904046Y-5541704D01*
X60904045Y-5541704D01*
X60896526Y-5542415D01*
X60851933Y-5558075D01*
X60780289Y-5583234D01*
X60780287Y-5583235D01*
X60771548Y-5586304D01*
X60732367Y-5615244D01*
X60666749Y-5639238D01*
X60658698Y-5639500D01*
X60396441Y-5639500D01*
X60328403Y-5618439D01*
X60322713Y-5612759D01*
X60220327Y-5567494D01*
X60221305Y-5565282D01*
X60173250Y-5535705D01*
X60145335Y-5480594D01*
X60145141Y-5477462D01*
X60142139Y-5469146D01*
X60141550Y-5466303D01*
X60137390Y-5449616D01*
X60136576Y-5446832D01*
X60135323Y-5438082D01*
X60116031Y-5395652D01*
X60112284Y-5386446D01*
X60099461Y-5350925D01*
X60099460Y-5350923D01*
X60096460Y-5342613D01*
X60091245Y-5335475D01*
X60089884Y-5332915D01*
X60081200Y-5318054D01*
X60079642Y-5315617D01*
X60079343Y-5314959D01*
X60079294Y-5314792D01*
X60079170Y-5314579D01*
X60075984Y-5307572D01*
X60077050Y-5307087D01*
X60059907Y-5248226D01*
X60079739Y-5181230D01*
X60132643Y-5135591D01*
X60201823Y-5125799D01*
X60222225Y-5130567D01*
X60268357Y-5145556D01*
X60278723Y-5148924D01*
X60284741Y-5149642D01*
X60284743Y-5149642D01*
X60391285Y-5162346D01*
X60478420Y-5172736D01*
X60484464Y-5172271D01*
X60484465Y-5172271D01*
X60544766Y-5167631D01*
X60678938Y-5157307D01*
X60821785Y-5117423D01*
X60866799Y-5104855D01*
X60866800Y-5104854D01*
X60872640Y-5103224D01*
X61052149Y-5012548D01*
X61139921Y-4943973D01*
X61205852Y-4892463D01*
X61205854Y-4892461D01*
X61210627Y-4888732D01*
X61342037Y-4736492D01*
X61346097Y-4729346D01*
X61396179Y-4641185D01*
X61441374Y-4561627D01*
X61483718Y-4434334D01*
X61502941Y-4376549D01*
X61502942Y-4376545D01*
X61504854Y-4370797D01*
X61518557Y-4262328D01*
X61529625Y-4174716D01*
X61529625Y-4174715D01*
X61530060Y-4171272D01*
X61530462Y-4142500D01*
X61521891Y-4055082D01*
X61511429Y-3948385D01*
X61511429Y-3948383D01*
X61510837Y-3942349D01*
X61452710Y-3749821D01*
X61447486Y-3739995D01*
X61361143Y-3577609D01*
X61361143Y-3577608D01*
X61358294Y-3572251D01*
X61274240Y-3469190D01*
X61235021Y-3421103D01*
X61235020Y-3421102D01*
X61231186Y-3416401D01*
X61076227Y-3288208D01*
X61061502Y-3280246D01*
X60904658Y-3195441D01*
X60904656Y-3195440D01*
X60899320Y-3192555D01*
X60707203Y-3133085D01*
X60507194Y-3112063D01*
X60501161Y-3112612D01*
X60501157Y-3112612D01*
X60379741Y-3123662D01*
X60306911Y-3130290D01*
X60301098Y-3132001D01*
X60301097Y-3132001D01*
X60119802Y-3185359D01*
X60113982Y-3187072D01*
X59935757Y-3280246D01*
X59934428Y-3277704D01*
X59879306Y-3294430D01*
X59812092Y-3275350D01*
X59765863Y-3222960D01*
X59757577Y-3171566D01*
X59754566Y-3171661D01*
X59754274Y-3162395D01*
X59755364Y-3153189D01*
X59744821Y-3095462D01*
X59744181Y-3091621D01*
X59738299Y-3052494D01*
X59735449Y-3033538D01*
X59732321Y-3027025D01*
X59731025Y-3019927D01*
X59710882Y-2981150D01*
X59703964Y-2967831D01*
X59702224Y-2964348D01*
X59696204Y-2951811D01*
X59676809Y-2911421D01*
X59671981Y-2906198D01*
X59671839Y-2905988D01*
X59668579Y-2899711D01*
X59664275Y-2894672D01*
X59664089Y-2894486D01*
X59660035Y-2888470D01*
X59662052Y-2887111D01*
X59638150Y-2833787D01*
X59648577Y-2764700D01*
X59694701Y-2712218D01*
X59761008Y-2693000D01*
X59794646Y-2693000D01*
X59798300Y-2692565D01*
X59798302Y-2692565D01*
X59803266Y-2691974D01*
X59820846Y-2689882D01*
X59923153Y-2644439D01*
X59937286Y-2630282D01*
X59998579Y-2596743D01*
X60068275Y-2601666D01*
X60112650Y-2630130D01*
X60119182Y-2636651D01*
X60119185Y-2636653D01*
X60127287Y-2644741D01*
X60137758Y-2649370D01*
X60137759Y-2649371D01*
X60221147Y-2686237D01*
X60221149Y-2686238D01*
X60229673Y-2690006D01*
X60255354Y-2693000D01*
X61594646Y-2693000D01*
X61601004Y-2691648D01*
X61601009Y-2691648D01*
X61741276Y-2661833D01*
X61779803Y-2653644D01*
X61909831Y-2595751D01*
X61946792Y-2579295D01*
X61946794Y-2579294D01*
X61952730Y-2576651D01*
X62052118Y-2504442D01*
X62100612Y-2469209D01*
X62100613Y-2469208D01*
X62105871Y-2465388D01*
X62166493Y-2398061D01*
X62228186Y-2329544D01*
X62228187Y-2329543D01*
X62232533Y-2324716D01*
X62327179Y-2160784D01*
X62385674Y-1980756D01*
X62400500Y-1839692D01*
X62400500Y-1045308D01*
X62385674Y-904244D01*
X62327179Y-724216D01*
X62313150Y-699916D01*
X62235781Y-565910D01*
X62232533Y-560284D01*
X62213831Y-539513D01*
X62184531Y-506972D01*
X62154301Y-443980D01*
X62162927Y-374645D01*
X62207668Y-320980D01*
X62276681Y-300000D01*
X65212905Y-300000D01*
X65234437Y-301884D01*
G37*
%TD.AperFunction*%
%TA.AperFunction,Conductor*%
G36*
X49584126Y-5519918D02*
G01*
X49601712Y-5530133D01*
X49601719Y-5530136D01*
X49609732Y-5534790D01*
X49735842Y-5564021D01*
X49864971Y-5554878D01*
X49864985Y-5555074D01*
X49929136Y-5559296D01*
X49985306Y-5600849D01*
X50010095Y-5666173D01*
X50009402Y-5691907D01*
X49994758Y-5803138D01*
X49995578Y-5810566D01*
X49995578Y-5810568D01*
X50002860Y-5876528D01*
X50012035Y-5959633D01*
X50014601Y-5966645D01*
X50014602Y-5966649D01*
X50039817Y-6035552D01*
X50066143Y-6107490D01*
X50153958Y-6238172D01*
X50204815Y-6284448D01*
X50264878Y-6339102D01*
X50264882Y-6339105D01*
X50270410Y-6344135D01*
X50276980Y-6347702D01*
X50276981Y-6347703D01*
X50361404Y-6393541D01*
X50408776Y-6419262D01*
X50504201Y-6444296D01*
X50553841Y-6457319D01*
X50553843Y-6457319D01*
X50561069Y-6459215D01*
X50568538Y-6459332D01*
X50571645Y-6459758D01*
X50583832Y-6465226D01*
X50590933Y-6461766D01*
X50613589Y-6460040D01*
X50700378Y-6461403D01*
X50707482Y-6461515D01*
X50708511Y-6461835D01*
X50711026Y-6461571D01*
X50718495Y-6461688D01*
X50725776Y-6460020D01*
X50725780Y-6460020D01*
X50864681Y-6428207D01*
X50871968Y-6426538D01*
X51012625Y-6355795D01*
X51018306Y-6350943D01*
X51018309Y-6350941D01*
X51126666Y-6258395D01*
X51126667Y-6258394D01*
X51132348Y-6253542D01*
X51139856Y-6243093D01*
X51156973Y-6219274D01*
X51212079Y-6176319D01*
X51281660Y-6169977D01*
X51343625Y-6202259D01*
X51373605Y-6255558D01*
X51375122Y-6254971D01*
X51414128Y-6355795D01*
X51421830Y-6375704D01*
X51427570Y-6382985D01*
X51496235Y-6470087D01*
X51496238Y-6470089D01*
X51501974Y-6477366D01*
X51510824Y-6483482D01*
X51510839Y-6483493D01*
X51511875Y-6484773D01*
X51516356Y-6488981D01*
X51515779Y-6489596D01*
X51554796Y-6537802D01*
X51562414Y-6607255D01*
X51531273Y-6669801D01*
X51471260Y-6705582D01*
X51440337Y-6709500D01*
X50718193Y-6709500D01*
X50714190Y-6708325D01*
X50705534Y-6709500D01*
X50624103Y-6709500D01*
X50609528Y-6708640D01*
X50597066Y-6707165D01*
X50582492Y-6700945D01*
X50575601Y-6704148D01*
X50575690Y-6704636D01*
X50561843Y-6707165D01*
X50517978Y-6715176D01*
X50514136Y-6715816D01*
X50480983Y-6720801D01*
X50456038Y-6724551D01*
X50449525Y-6727679D01*
X50442427Y-6728975D01*
X50434201Y-6733248D01*
X50390337Y-6756033D01*
X50386863Y-6757769D01*
X50333921Y-6783191D01*
X50328701Y-6788016D01*
X50328480Y-6788165D01*
X50322212Y-6791421D01*
X50317172Y-6795725D01*
X50279903Y-6832994D01*
X50276393Y-6836369D01*
X50241251Y-6868853D01*
X50241249Y-6868856D01*
X50234444Y-6875146D01*
X50230763Y-6881484D01*
X50225172Y-6887725D01*
X50049956Y-7062941D01*
X49988633Y-7096426D01*
X49961627Y-7099258D01*
X49932159Y-7099104D01*
X49932158Y-7099104D01*
X49924684Y-7099065D01*
X49917421Y-7100809D01*
X49917418Y-7100809D01*
X49850750Y-7116815D01*
X49771588Y-7135820D01*
X49631679Y-7208032D01*
X49513034Y-7311533D01*
X49422501Y-7440348D01*
X49365309Y-7587039D01*
X49344758Y-7743138D01*
X49345578Y-7750566D01*
X49345578Y-7750568D01*
X49354294Y-7829518D01*
X49362035Y-7899633D01*
X49364601Y-7906645D01*
X49364602Y-7906649D01*
X49391741Y-7980809D01*
X49416143Y-8047490D01*
X49423709Y-8058750D01*
X49469294Y-8126586D01*
X49503958Y-8178172D01*
X49555146Y-8224749D01*
X49614878Y-8279102D01*
X49614882Y-8279105D01*
X49620410Y-8284135D01*
X49626980Y-8287702D01*
X49626981Y-8287703D01*
X49750711Y-8354883D01*
X49758776Y-8359262D01*
X49836476Y-8379646D01*
X49903841Y-8397319D01*
X49903843Y-8397319D01*
X49911069Y-8399215D01*
X49988127Y-8400425D01*
X50061025Y-8401571D01*
X50061028Y-8401571D01*
X50068495Y-8401688D01*
X50075776Y-8400020D01*
X50075780Y-8400020D01*
X50214681Y-8368207D01*
X50221968Y-8366538D01*
X50362625Y-8295795D01*
X50368306Y-8290943D01*
X50368309Y-8290941D01*
X50476666Y-8198395D01*
X50476667Y-8198394D01*
X50482348Y-8193542D01*
X50493393Y-8178172D01*
X50520720Y-8140142D01*
X50574224Y-8065683D01*
X50632950Y-7919598D01*
X50635792Y-7899633D01*
X50654574Y-7767657D01*
X50683508Y-7704060D01*
X50689656Y-7697447D01*
X50740284Y-7646819D01*
X50801607Y-7613334D01*
X50827965Y-7610500D01*
X51249362Y-7610500D01*
X51316401Y-7630185D01*
X51362156Y-7682989D01*
X51373052Y-7725740D01*
X51374087Y-7740354D01*
X51375122Y-7754971D01*
X51378468Y-7763620D01*
X51418504Y-7867107D01*
X51424334Y-7936733D01*
X51410082Y-7974126D01*
X51399867Y-7991712D01*
X51399864Y-7991719D01*
X51395210Y-7999732D01*
X51365979Y-8125842D01*
X51375122Y-8254971D01*
X51378468Y-8263620D01*
X51418504Y-8367107D01*
X51424334Y-8436733D01*
X51410082Y-8474126D01*
X51399867Y-8491712D01*
X51399864Y-8491719D01*
X51395210Y-8499732D01*
X51365979Y-8625842D01*
X51375122Y-8754971D01*
X51378468Y-8763620D01*
X51418504Y-8867107D01*
X51424334Y-8936733D01*
X51410082Y-8974126D01*
X51399867Y-8991712D01*
X51399864Y-8991719D01*
X51395210Y-8999732D01*
X51365979Y-9125842D01*
X51375122Y-9254971D01*
X51378468Y-9263620D01*
X51418504Y-9367107D01*
X51424334Y-9436733D01*
X51410082Y-9474126D01*
X51399867Y-9491712D01*
X51399864Y-9491719D01*
X51395210Y-9499732D01*
X51365979Y-9625842D01*
X51375122Y-9754971D01*
X51378468Y-9763620D01*
X51418504Y-9867107D01*
X51424334Y-9936733D01*
X51410082Y-9974126D01*
X51399867Y-9991712D01*
X51399864Y-9991719D01*
X51395210Y-9999732D01*
X51365979Y-10125842D01*
X51375122Y-10254971D01*
X51378468Y-10263620D01*
X51418504Y-10367107D01*
X51424334Y-10436733D01*
X51410082Y-10474126D01*
X51399867Y-10491712D01*
X51399864Y-10491719D01*
X51395210Y-10499732D01*
X51365979Y-10625842D01*
X51375122Y-10754971D01*
X51378468Y-10763620D01*
X51418504Y-10867107D01*
X51424334Y-10936733D01*
X51410082Y-10974126D01*
X51399867Y-10991712D01*
X51399864Y-10991719D01*
X51395210Y-10999732D01*
X51365979Y-11125842D01*
X51375122Y-11254971D01*
X51378468Y-11263620D01*
X51418504Y-11367107D01*
X51424334Y-11436733D01*
X51410083Y-11474124D01*
X51404976Y-11482917D01*
X51354285Y-11531002D01*
X51285644Y-11544048D01*
X51220847Y-11517912D01*
X51210069Y-11508321D01*
X50653220Y-10951472D01*
X50631703Y-10940509D01*
X50615119Y-10930346D01*
X50603473Y-10921884D01*
X50603469Y-10921882D01*
X50595581Y-10916151D01*
X50572616Y-10908689D01*
X50554647Y-10901246D01*
X50533126Y-10890281D01*
X50523489Y-10888755D01*
X50523487Y-10888754D01*
X50509279Y-10886504D01*
X50490364Y-10881964D01*
X50467393Y-10874500D01*
X48732607Y-10874500D01*
X48709636Y-10881964D01*
X48690721Y-10886504D01*
X48676513Y-10888754D01*
X48676511Y-10888755D01*
X48666874Y-10890281D01*
X48645353Y-10901246D01*
X48627384Y-10908689D01*
X48604419Y-10916151D01*
X48596522Y-10921888D01*
X48596521Y-10921889D01*
X48584880Y-10930346D01*
X48568299Y-10940508D01*
X48546780Y-10951472D01*
X48451472Y-11046780D01*
X48451471Y-11046782D01*
X48016780Y-11481472D01*
X47921472Y-11576780D01*
X47910509Y-11598297D01*
X47900346Y-11614881D01*
X47891884Y-11626527D01*
X47891882Y-11626531D01*
X47886151Y-11634419D01*
X47883136Y-11643698D01*
X47878689Y-11657384D01*
X47871246Y-11675353D01*
X47860281Y-11696874D01*
X47858755Y-11706511D01*
X47858754Y-11706513D01*
X47856504Y-11720721D01*
X47851964Y-11739636D01*
X47844500Y-11762607D01*
X47844500Y-11938035D01*
X47824815Y-12005074D01*
X47772011Y-12050829D01*
X47702853Y-12060773D01*
X47639297Y-12031748D01*
X47632819Y-12025716D01*
X47597006Y-11989903D01*
X47593631Y-11986393D01*
X47561147Y-11951251D01*
X47561144Y-11951249D01*
X47554854Y-11944444D01*
X47548516Y-11940763D01*
X47542275Y-11935172D01*
X46627528Y-11020425D01*
X46617830Y-11009512D01*
X46602472Y-10990031D01*
X46596733Y-10982751D01*
X46589107Y-10977481D01*
X46582350Y-10971135D01*
X46584022Y-10969354D01*
X46548535Y-10925513D01*
X46540916Y-10856059D01*
X46547941Y-10831561D01*
X46558203Y-10806034D01*
X46592950Y-10719598D01*
X46594572Y-10708200D01*
X46614562Y-10567744D01*
X46614562Y-10567740D01*
X46615134Y-10563723D01*
X46615194Y-10558061D01*
X46615235Y-10554064D01*
X46615278Y-10550000D01*
X46613977Y-10539247D01*
X46597262Y-10401119D01*
X46597261Y-10401115D01*
X46596363Y-10393694D01*
X46549190Y-10268853D01*
X46543354Y-10253408D01*
X46543352Y-10253405D01*
X46540710Y-10246412D01*
X46535074Y-10238212D01*
X46455768Y-10122821D01*
X46455765Y-10122818D01*
X46451531Y-10116657D01*
X46333976Y-10011919D01*
X46194831Y-9938245D01*
X46042128Y-9899889D01*
X45960329Y-9899461D01*
X45892158Y-9899104D01*
X45892157Y-9899104D01*
X45884684Y-9899065D01*
X45877421Y-9900809D01*
X45877418Y-9900809D01*
X45808136Y-9917443D01*
X45731588Y-9935820D01*
X45724951Y-9939245D01*
X45724947Y-9939247D01*
X45714552Y-9944613D01*
X45645952Y-9957870D01*
X45581074Y-9931935D01*
X45555486Y-9904661D01*
X45505768Y-9832321D01*
X45505765Y-9832318D01*
X45501531Y-9826157D01*
X45437564Y-9769164D01*
X45389559Y-9726393D01*
X45389558Y-9726392D01*
X45383976Y-9721419D01*
X45244831Y-9647745D01*
X45092128Y-9609389D01*
X45010329Y-9608961D01*
X44942158Y-9608604D01*
X44942157Y-9608604D01*
X44934684Y-9608565D01*
X44927418Y-9610309D01*
X44919988Y-9611169D01*
X44919738Y-9609007D01*
X44860802Y-9606062D01*
X44803982Y-9565402D01*
X44778165Y-9500477D01*
X44791548Y-9431901D01*
X44813950Y-9401296D01*
X45536866Y-8678380D01*
X45596864Y-8645191D01*
X45714681Y-8618207D01*
X45721968Y-8616538D01*
X45862625Y-8545795D01*
X45868306Y-8540943D01*
X45868309Y-8540941D01*
X45976666Y-8448395D01*
X45976667Y-8448394D01*
X45982348Y-8443542D01*
X45992114Y-8429952D01*
X46015563Y-8397319D01*
X46074224Y-8315683D01*
X46132950Y-8169598D01*
X46134362Y-8159680D01*
X46154562Y-8017744D01*
X46154562Y-8017740D01*
X46155134Y-8013723D01*
X46155278Y-8000000D01*
X46154166Y-7990809D01*
X46137262Y-7851119D01*
X46137261Y-7851115D01*
X46136363Y-7843694D01*
X46118103Y-7795369D01*
X46083354Y-7703408D01*
X46083352Y-7703405D01*
X46080710Y-7696412D01*
X46064212Y-7672407D01*
X45995768Y-7572821D01*
X45995765Y-7572818D01*
X45991531Y-7566657D01*
X45925937Y-7508215D01*
X45879559Y-7466893D01*
X45879558Y-7466892D01*
X45873976Y-7461919D01*
X45734831Y-7388245D01*
X45624373Y-7360500D01*
X45589378Y-7351710D01*
X45582128Y-7349889D01*
X45500329Y-7349461D01*
X45432158Y-7349104D01*
X45432157Y-7349104D01*
X45424684Y-7349065D01*
X45417421Y-7350809D01*
X45417418Y-7350809D01*
X45348136Y-7367443D01*
X45271588Y-7385820D01*
X45131679Y-7458032D01*
X45126048Y-7462945D01*
X45126047Y-7462945D01*
X45074153Y-7508215D01*
X45013034Y-7561533D01*
X44922501Y-7690348D01*
X44919784Y-7697318D01*
X44919783Y-7697319D01*
X44912262Y-7716609D01*
X44869571Y-7771920D01*
X44803754Y-7795369D01*
X44735708Y-7779513D01*
X44687036Y-7729384D01*
X44673042Y-7680326D01*
X44665533Y-7574280D01*
X44664878Y-7565029D01*
X44650713Y-7528414D01*
X44621496Y-7452893D01*
X44615666Y-7383267D01*
X44629918Y-7345874D01*
X44640133Y-7328288D01*
X44640136Y-7328281D01*
X44644790Y-7320268D01*
X44674021Y-7194158D01*
X44664878Y-7065029D01*
X44628589Y-6971227D01*
X44621496Y-6952893D01*
X44615666Y-6883267D01*
X44629918Y-6845874D01*
X44640133Y-6828288D01*
X44640136Y-6828281D01*
X44644790Y-6820268D01*
X44674021Y-6694158D01*
X44664878Y-6565029D01*
X44624929Y-6461766D01*
X44621496Y-6452893D01*
X44615666Y-6383267D01*
X44629918Y-6345874D01*
X44640133Y-6328286D01*
X44640133Y-6328285D01*
X44641252Y-6326360D01*
X44644790Y-6320269D01*
X44645626Y-6320755D01*
X44683509Y-6272201D01*
X44749448Y-6249096D01*
X44817410Y-6265308D01*
X44843503Y-6285251D01*
X45156780Y-6598528D01*
X45178291Y-6609488D01*
X45194882Y-6619655D01*
X45206522Y-6628113D01*
X45206525Y-6628115D01*
X45214419Y-6633850D01*
X45223700Y-6636866D01*
X45223701Y-6636866D01*
X45237388Y-6641313D01*
X45255359Y-6648757D01*
X45276874Y-6659719D01*
X45286511Y-6661245D01*
X45286513Y-6661246D01*
X45300726Y-6663497D01*
X45319636Y-6668037D01*
X45342607Y-6675500D01*
X46827393Y-6675500D01*
X46850364Y-6668036D01*
X46869279Y-6663496D01*
X46883487Y-6661246D01*
X46883489Y-6661245D01*
X46893126Y-6659719D01*
X46914647Y-6648754D01*
X46932616Y-6641311D01*
X46946302Y-6636864D01*
X46955581Y-6633849D01*
X46963469Y-6628118D01*
X46963473Y-6628116D01*
X46975119Y-6619654D01*
X46991703Y-6609491D01*
X47013220Y-6598528D01*
X47618528Y-5993220D01*
X47629491Y-5971703D01*
X47639654Y-5955119D01*
X47648116Y-5943473D01*
X47648118Y-5943469D01*
X47653849Y-5935581D01*
X47661311Y-5912616D01*
X47668754Y-5894647D01*
X47679719Y-5873126D01*
X47682124Y-5857945D01*
X47683496Y-5849279D01*
X47688036Y-5830364D01*
X47695500Y-5807393D01*
X47695500Y-5682408D01*
X47715185Y-5615369D01*
X47767989Y-5569614D01*
X47810741Y-5558718D01*
X47855721Y-5555533D01*
X47864971Y-5554878D01*
X47904721Y-5539500D01*
X47977107Y-5511496D01*
X48046733Y-5505666D01*
X48084126Y-5519918D01*
X48101712Y-5530133D01*
X48101719Y-5530136D01*
X48109732Y-5534790D01*
X48235842Y-5564021D01*
X48364971Y-5554878D01*
X48404721Y-5539500D01*
X48477107Y-5511496D01*
X48546733Y-5505666D01*
X48584126Y-5519918D01*
X48601712Y-5530133D01*
X48601719Y-5530136D01*
X48609732Y-5534790D01*
X48735842Y-5564021D01*
X48864971Y-5554878D01*
X48904721Y-5539500D01*
X48977107Y-5511496D01*
X49046733Y-5505666D01*
X49084126Y-5519918D01*
X49101712Y-5530133D01*
X49101719Y-5530136D01*
X49109732Y-5534790D01*
X49235842Y-5564021D01*
X49364971Y-5554878D01*
X49404721Y-5539500D01*
X49477107Y-5511496D01*
X49546733Y-5505666D01*
X49584126Y-5519918D01*
G37*
%TD.AperFunction*%
%TA.AperFunction,Conductor*%
G36*
X37658363Y-1870185D02*
G01*
X37679005Y-1886819D01*
X39213181Y-3420995D01*
X39246666Y-3482318D01*
X39249500Y-3508676D01*
X39249500Y-4180039D01*
X39248165Y-4191985D01*
X39248639Y-4192023D01*
X39247930Y-4200832D01*
X39245981Y-4209447D01*
X39246528Y-4218264D01*
X39246528Y-4218265D01*
X39249262Y-4262328D01*
X39249500Y-4270007D01*
X39249500Y-4285940D01*
X39250126Y-4290308D01*
X39250126Y-4290314D01*
X39250959Y-4296130D01*
X39251973Y-4306029D01*
X39254859Y-4352538D01*
X39257860Y-4360849D01*
X39258446Y-4363681D01*
X39262610Y-4380384D01*
X39263424Y-4383168D01*
X39264677Y-4391918D01*
X39283969Y-4434348D01*
X39287716Y-4443554D01*
X39292406Y-4456544D01*
X39303540Y-4487387D01*
X39308755Y-4494525D01*
X39310116Y-4497085D01*
X39318805Y-4511955D01*
X39320359Y-4514385D01*
X39324016Y-4522428D01*
X39354444Y-4557741D01*
X39360629Y-4565531D01*
X39368522Y-4576336D01*
X39379322Y-4587136D01*
X39385579Y-4593875D01*
X39411833Y-4624345D01*
X39411836Y-4624348D01*
X39417600Y-4631037D01*
X39425015Y-4635843D01*
X39431139Y-4641185D01*
X39442837Y-4650651D01*
X39816145Y-5023959D01*
X39823648Y-5033348D01*
X39824010Y-5033040D01*
X39829735Y-5039766D01*
X39834450Y-5047240D01*
X39841073Y-5053089D01*
X39874163Y-5082313D01*
X39879761Y-5087575D01*
X39891027Y-5098841D01*
X39899265Y-5105015D01*
X39906980Y-5111296D01*
X39941908Y-5142143D01*
X39949907Y-5145899D01*
X39952331Y-5147491D01*
X39967115Y-5156374D01*
X39969627Y-5157749D01*
X39976696Y-5163047D01*
X39984966Y-5166147D01*
X39984971Y-5166150D01*
X40020347Y-5179412D01*
X40029504Y-5183270D01*
X40071683Y-5203073D01*
X40080413Y-5204432D01*
X40083173Y-5205276D01*
X40099842Y-5209649D01*
X40102665Y-5210270D01*
X40110940Y-5213372D01*
X40119750Y-5214027D01*
X40119751Y-5214027D01*
X40140111Y-5215540D01*
X40157423Y-5216826D01*
X40167293Y-5217959D01*
X40180529Y-5220020D01*
X40195805Y-5220020D01*
X40204994Y-5220361D01*
X40253912Y-5223996D01*
X40262552Y-5222152D01*
X40270674Y-5221598D01*
X40285626Y-5220020D01*
X41007342Y-5220020D01*
X41074381Y-5239705D01*
X41095023Y-5256339D01*
X41113181Y-5274497D01*
X41146666Y-5335820D01*
X41149500Y-5362178D01*
X41149500Y-5722638D01*
X41149775Y-5725547D01*
X41149776Y-5725568D01*
X41151030Y-5738828D01*
X41137744Y-5807422D01*
X41089481Y-5857945D01*
X41027581Y-5874500D01*
X39207610Y-5874500D01*
X39140571Y-5854815D01*
X39119929Y-5838181D01*
X37285143Y-4003395D01*
X37251658Y-3942072D01*
X37255164Y-3876573D01*
X37277436Y-3809621D01*
X37277437Y-3809617D01*
X37279351Y-3803863D01*
X37287456Y-3739704D01*
X37304736Y-3602919D01*
X37304736Y-3602915D01*
X37305171Y-3599474D01*
X37305583Y-3570000D01*
X37305105Y-3565122D01*
X37286072Y-3371006D01*
X37286072Y-3371004D01*
X37285480Y-3364970D01*
X37279015Y-3343558D01*
X37227688Y-3173555D01*
X37225935Y-3167749D01*
X37166755Y-3056446D01*
X37132065Y-2991203D01*
X37132064Y-2991201D01*
X37129218Y-2985849D01*
X36999011Y-2826200D01*
X36981864Y-2812015D01*
X36844946Y-2698746D01*
X36844945Y-2698745D01*
X36840275Y-2694882D01*
X36725044Y-2632577D01*
X36664393Y-2599783D01*
X36664391Y-2599782D01*
X36659055Y-2596897D01*
X36643714Y-2592148D01*
X36509296Y-2550539D01*
X36462254Y-2535977D01*
X36257369Y-2514443D01*
X36251336Y-2514992D01*
X36251332Y-2514992D01*
X36125721Y-2526424D01*
X36052203Y-2533114D01*
X36046390Y-2534825D01*
X36046389Y-2534825D01*
X35893642Y-2579781D01*
X35854572Y-2591280D01*
X35849197Y-2594090D01*
X35677374Y-2683917D01*
X35677370Y-2683920D01*
X35672002Y-2686726D01*
X35667279Y-2690523D01*
X35667278Y-2690524D01*
X35516262Y-2811944D01*
X35511447Y-2815815D01*
X35432744Y-2909609D01*
X35386813Y-2964348D01*
X35379024Y-2973630D01*
X35376104Y-2978942D01*
X35376101Y-2978946D01*
X35362861Y-3003031D01*
X35337315Y-3049500D01*
X35334161Y-3055237D01*
X35284616Y-3104501D01*
X35225499Y-3119500D01*
X33367366Y-3119500D01*
X33300327Y-3099815D01*
X33267623Y-3069170D01*
X33240506Y-3032456D01*
X33240503Y-3032453D01*
X33234999Y-3025001D01*
X33225192Y-3017757D01*
X33135908Y-2951811D01*
X33128452Y-2946304D01*
X33003474Y-2902415D01*
X32995955Y-2901704D01*
X32995954Y-2901704D01*
X32975552Y-2899775D01*
X32975542Y-2899775D01*
X32972638Y-2899500D01*
X32527362Y-2899500D01*
X32524458Y-2899775D01*
X32524448Y-2899775D01*
X32504046Y-2901704D01*
X32504045Y-2901704D01*
X32496526Y-2902415D01*
X32371548Y-2946304D01*
X32364092Y-2951811D01*
X32274809Y-3017757D01*
X32265001Y-3025001D01*
X32259496Y-3032454D01*
X32197560Y-3116308D01*
X32186304Y-3131548D01*
X32142415Y-3256526D01*
X32141704Y-3264045D01*
X32141704Y-3264046D01*
X32139911Y-3283016D01*
X32139500Y-3287362D01*
X32139500Y-3672638D01*
X32139775Y-3675542D01*
X32139775Y-3675552D01*
X32141704Y-3695954D01*
X32142415Y-3703474D01*
X32186304Y-3828452D01*
X32191811Y-3835908D01*
X32239520Y-3900500D01*
X32265001Y-3934999D01*
X32272454Y-3940504D01*
X32364092Y-4008189D01*
X32371548Y-4013696D01*
X32496526Y-4057585D01*
X32504045Y-4058296D01*
X32504046Y-4058296D01*
X32524448Y-4060225D01*
X32524458Y-4060225D01*
X32527362Y-4060500D01*
X32972638Y-4060500D01*
X32975542Y-4060225D01*
X32975552Y-4060225D01*
X32995954Y-4058296D01*
X32995955Y-4058296D01*
X33003474Y-4057585D01*
X33010598Y-4055083D01*
X33010608Y-4055081D01*
X33089132Y-4027505D01*
X33130218Y-4020500D01*
X35224673Y-4020500D01*
X35291712Y-4040185D01*
X35334961Y-4087819D01*
X35362712Y-4141818D01*
X35366480Y-4146572D01*
X35476081Y-4284854D01*
X35490677Y-4303270D01*
X35495296Y-4307201D01*
X35642950Y-4432865D01*
X35642955Y-4432869D01*
X35647564Y-4436791D01*
X35827398Y-4537297D01*
X35972785Y-4584536D01*
X36001527Y-4593875D01*
X36023329Y-4600959D01*
X36029347Y-4601677D01*
X36029349Y-4601677D01*
X36163041Y-4617618D01*
X36227894Y-4625351D01*
X36233938Y-4624886D01*
X36233939Y-4624886D01*
X36295266Y-4620167D01*
X36433300Y-4609546D01*
X36562460Y-4573484D01*
X36632324Y-4574415D01*
X36683487Y-4605235D01*
X38441071Y-6362819D01*
X38474556Y-6424142D01*
X38469572Y-6493834D01*
X38427700Y-6549767D01*
X38362236Y-6574184D01*
X38353390Y-6574500D01*
X37632607Y-6574500D01*
X37609636Y-6581963D01*
X37590726Y-6586503D01*
X37576513Y-6588754D01*
X37576511Y-6588755D01*
X37566874Y-6590281D01*
X37545359Y-6601243D01*
X37527389Y-6608687D01*
X37504419Y-6616150D01*
X37496525Y-6621885D01*
X37496522Y-6621887D01*
X37484882Y-6630345D01*
X37468295Y-6640510D01*
X37446780Y-6651472D01*
X36683160Y-7415092D01*
X36621837Y-7448577D01*
X36558812Y-7445866D01*
X36468041Y-7417768D01*
X36468038Y-7417767D01*
X36462254Y-7415977D01*
X36257369Y-7394443D01*
X36251336Y-7394992D01*
X36251332Y-7394992D01*
X36125721Y-7406424D01*
X36052203Y-7413114D01*
X35966775Y-7438257D01*
X35896909Y-7438302D01*
X35844086Y-7406983D01*
X34622667Y-6185564D01*
X34612969Y-6174651D01*
X34597611Y-6155170D01*
X34591872Y-6147890D01*
X34543554Y-6114495D01*
X34540454Y-6112281D01*
X34493184Y-6077366D01*
X34486368Y-6074973D01*
X34480431Y-6070869D01*
X34424481Y-6053174D01*
X34420791Y-6051943D01*
X34374116Y-6035552D01*
X34374112Y-6035551D01*
X34365369Y-6032481D01*
X34358265Y-6032202D01*
X34358014Y-6032153D01*
X34351270Y-6030020D01*
X34344663Y-6029500D01*
X34291932Y-6029500D01*
X34287063Y-6029404D01*
X34239273Y-6027526D01*
X34239272Y-6027526D01*
X34230006Y-6027162D01*
X34222922Y-6029040D01*
X34214562Y-6029500D01*
X33281920Y-6029500D01*
X33214881Y-6009815D01*
X33208249Y-6005243D01*
X33135908Y-5951811D01*
X33128452Y-5946304D01*
X33003474Y-5902415D01*
X32995955Y-5901704D01*
X32995954Y-5901704D01*
X32975552Y-5899775D01*
X32975542Y-5899775D01*
X32972638Y-5899500D01*
X32527362Y-5899500D01*
X32524458Y-5899775D01*
X32524448Y-5899775D01*
X32504046Y-5901704D01*
X32504045Y-5901704D01*
X32496526Y-5902415D01*
X32371548Y-5946304D01*
X32364092Y-5951811D01*
X32319796Y-5984529D01*
X32265001Y-6025001D01*
X32259496Y-6032454D01*
X32203492Y-6108277D01*
X32186304Y-6131548D01*
X32142415Y-6256526D01*
X32141704Y-6264045D01*
X32141704Y-6264046D01*
X32140664Y-6275052D01*
X32139500Y-6287362D01*
X32139500Y-6672638D01*
X32139775Y-6675542D01*
X32139775Y-6675552D01*
X32140660Y-6684908D01*
X32142415Y-6703474D01*
X32186304Y-6828452D01*
X32191811Y-6835908D01*
X32236765Y-6896770D01*
X32265001Y-6934999D01*
X32272454Y-6940504D01*
X32351953Y-6999223D01*
X32371548Y-7013696D01*
X32496526Y-7057585D01*
X32504045Y-7058296D01*
X32504046Y-7058296D01*
X32524448Y-7060225D01*
X32524458Y-7060225D01*
X32527362Y-7060500D01*
X32972638Y-7060500D01*
X32975542Y-7060225D01*
X32975552Y-7060225D01*
X32995954Y-7058296D01*
X32995955Y-7058296D01*
X33003474Y-7057585D01*
X33128452Y-7013696D01*
X33148047Y-6999223D01*
X33208249Y-6954757D01*
X33273869Y-6930762D01*
X33281920Y-6930500D01*
X34042035Y-6930500D01*
X34109074Y-6950185D01*
X34129716Y-6966819D01*
X35206544Y-8043647D01*
X35240029Y-8104970D01*
X35237059Y-8168821D01*
X35219318Y-8224749D01*
X35217484Y-8230532D01*
X35211335Y-8285348D01*
X35196354Y-8418915D01*
X35194520Y-8435262D01*
X35211759Y-8640553D01*
X35213433Y-8646391D01*
X35214370Y-8649660D01*
X35268544Y-8838586D01*
X35271316Y-8843981D01*
X35271317Y-8843982D01*
X35281438Y-8863675D01*
X35362712Y-9021818D01*
X35366480Y-9026572D01*
X35481936Y-9172241D01*
X35490677Y-9183270D01*
X35495296Y-9187201D01*
X35642950Y-9312865D01*
X35642955Y-9312869D01*
X35647564Y-9316791D01*
X35827398Y-9417297D01*
X36023329Y-9480959D01*
X36029347Y-9481677D01*
X36029349Y-9481677D01*
X36171410Y-9498616D01*
X36227894Y-9505351D01*
X36233938Y-9504886D01*
X36233939Y-9504886D01*
X36309978Y-9499035D01*
X36433300Y-9489546D01*
X36536791Y-9460651D01*
X36625885Y-9435776D01*
X36625889Y-9435774D01*
X36631725Y-9434145D01*
X36815610Y-9341258D01*
X36977951Y-9214424D01*
X36981907Y-9209840D01*
X36981911Y-9209837D01*
X37108602Y-9063062D01*
X37112564Y-9058472D01*
X37115663Y-9053018D01*
X37211327Y-8884618D01*
X37214323Y-8879344D01*
X37255606Y-8755243D01*
X37277439Y-8689611D01*
X37277439Y-8689610D01*
X37279351Y-8683863D01*
X37281061Y-8670333D01*
X37304736Y-8482919D01*
X37304736Y-8482915D01*
X37305171Y-8479474D01*
X37305583Y-8450000D01*
X37300295Y-8396068D01*
X37286072Y-8251006D01*
X37286072Y-8251004D01*
X37285480Y-8244970D01*
X37274436Y-8208390D01*
X37253893Y-8140349D01*
X37253361Y-8070481D01*
X37284920Y-8016828D01*
X37839929Y-7461819D01*
X37901252Y-7428334D01*
X37927610Y-7425500D01*
X39428624Y-7425500D01*
X39495663Y-7445185D01*
X39528369Y-7475833D01*
X39531361Y-7479884D01*
X39534452Y-7484069D01*
X39558444Y-7549690D01*
X39543150Y-7617865D01*
X39493425Y-7666949D01*
X39475792Y-7674729D01*
X39358915Y-7715773D01*
X39293996Y-7763723D01*
X39263477Y-7786265D01*
X39253577Y-7793577D01*
X39248072Y-7801030D01*
X39237812Y-7814921D01*
X39175773Y-7898915D01*
X39132382Y-8022474D01*
X39131671Y-8029995D01*
X39130869Y-8033650D01*
X39097432Y-8094754D01*
X38726041Y-8466145D01*
X38716652Y-8473648D01*
X38716960Y-8474010D01*
X38710234Y-8479735D01*
X38702760Y-8484450D01*
X38681287Y-8508764D01*
X38667687Y-8524163D01*
X38662425Y-8529761D01*
X38651160Y-8541026D01*
X38648513Y-8544558D01*
X38648512Y-8544559D01*
X38644992Y-8549256D01*
X38638711Y-8556973D01*
X38628555Y-8568472D01*
X38625140Y-8572339D01*
X38607857Y-8591908D01*
X38604103Y-8599904D01*
X38602523Y-8602309D01*
X38593640Y-8617091D01*
X38592251Y-8619628D01*
X38586954Y-8626696D01*
X38583853Y-8634969D01*
X38583852Y-8634970D01*
X38570595Y-8670333D01*
X38566738Y-8679488D01*
X38546927Y-8721683D01*
X38545567Y-8730417D01*
X38544718Y-8733195D01*
X38540350Y-8749842D01*
X38539728Y-8752672D01*
X38536628Y-8760940D01*
X38535974Y-8769744D01*
X38535973Y-8769747D01*
X38535077Y-8781808D01*
X38533319Y-8805473D01*
X38533174Y-8807419D01*
X38532041Y-8817293D01*
X38529980Y-8830529D01*
X38529980Y-8845805D01*
X38529639Y-8854994D01*
X38526004Y-8903912D01*
X38527848Y-8912552D01*
X38528402Y-8920674D01*
X38529980Y-8935626D01*
X38529980Y-11087505D01*
X38510295Y-11154544D01*
X38457491Y-11200299D01*
X38391298Y-11210633D01*
X38255624Y-11194455D01*
X38248735Y-11195179D01*
X38248732Y-11195179D01*
X38083913Y-11212502D01*
X38083911Y-11212502D01*
X38077017Y-11213227D01*
X38070456Y-11215461D01*
X38070454Y-11215461D01*
X38041426Y-11225343D01*
X37907007Y-11271103D01*
X37879252Y-11288178D01*
X37775061Y-11352277D01*
X37754045Y-11365206D01*
X37625732Y-11490859D01*
X37579268Y-11562957D01*
X37533214Y-11634419D01*
X37528446Y-11641817D01*
X37467022Y-11810578D01*
X37466041Y-11810221D01*
X37434353Y-11865188D01*
X37372271Y-11897244D01*
X37348726Y-11899500D01*
X35050097Y-11899500D01*
X34983058Y-11879815D01*
X34962416Y-11863181D01*
X33136819Y-10037584D01*
X33103334Y-9976261D01*
X33100500Y-9949903D01*
X33100500Y-8672487D01*
X33101561Y-8656302D01*
X33104621Y-8633059D01*
X33105682Y-8625000D01*
X33085044Y-8468238D01*
X33076062Y-8446552D01*
X33027646Y-8329667D01*
X33024536Y-8322159D01*
X32988857Y-8275661D01*
X32969167Y-8250000D01*
X32933229Y-8203165D01*
X32928282Y-8196718D01*
X32903230Y-8177495D01*
X32891035Y-8166800D01*
X31633200Y-6908965D01*
X31622505Y-6896770D01*
X31608229Y-6878165D01*
X31603282Y-6871718D01*
X31547864Y-6829194D01*
X31490821Y-6785424D01*
X31477841Y-6775464D01*
X31470333Y-6772354D01*
X31339271Y-6718066D01*
X31339269Y-6718065D01*
X31331762Y-6714956D01*
X31312211Y-6712382D01*
X31214361Y-6699500D01*
X31192021Y-6696559D01*
X31128124Y-6668294D01*
X31122527Y-6663144D01*
X31117922Y-6657078D01*
X31111190Y-6651968D01*
X30999529Y-6567212D01*
X30958032Y-6511001D01*
X30950500Y-6468443D01*
X30950500Y-6393541D01*
X30970185Y-6326502D01*
X31022989Y-6280747D01*
X31033958Y-6276764D01*
X31038846Y-6276182D01*
X31047348Y-6272406D01*
X31047350Y-6272405D01*
X31130691Y-6235386D01*
X31141153Y-6230739D01*
X31220241Y-6151513D01*
X31224871Y-6141041D01*
X31261737Y-6057653D01*
X31261738Y-6057651D01*
X31265506Y-6049127D01*
X31268500Y-6023446D01*
X31268500Y-3563364D01*
X31288185Y-3496325D01*
X31294920Y-3486852D01*
X31328971Y-3443425D01*
X31333583Y-3437543D01*
X31336660Y-3430729D01*
X31337851Y-3428762D01*
X31346522Y-3413560D01*
X31347592Y-3411564D01*
X31351887Y-3405453D01*
X31361159Y-3381671D01*
X31374840Y-3346582D01*
X31377356Y-3340597D01*
X31386674Y-3319960D01*
X31403355Y-3283016D01*
X31404718Y-3275663D01*
X31405407Y-3273464D01*
X31410179Y-3256713D01*
X31410758Y-3254460D01*
X31413476Y-3247487D01*
X31414769Y-3237671D01*
X31421721Y-3184855D01*
X31422737Y-3178441D01*
X31432889Y-3123666D01*
X31432889Y-3123660D01*
X31434252Y-3116308D01*
X31430706Y-3054804D01*
X31430500Y-3047667D01*
X31430500Y-1974500D01*
X31450185Y-1907461D01*
X31502989Y-1861706D01*
X31554500Y-1850500D01*
X37591324Y-1850500D01*
X37658363Y-1870185D01*
G37*
%TD.AperFunction*%
%TA.AperFunction,Conductor*%
G36*
X40560125Y-7495174D02*
G01*
X40573671Y-7503879D01*
X40595003Y-7519635D01*
X40668915Y-7574227D01*
X40726513Y-7594454D01*
X40785343Y-7615114D01*
X40785345Y-7615114D01*
X40792474Y-7617618D01*
X40799995Y-7618329D01*
X40820048Y-7620225D01*
X40820058Y-7620225D01*
X40822962Y-7620500D01*
X41197038Y-7620500D01*
X41199942Y-7620225D01*
X41199952Y-7620225D01*
X41220005Y-7618329D01*
X41227526Y-7617618D01*
X41234655Y-7615114D01*
X41234657Y-7615114D01*
X41293487Y-7594454D01*
X41351085Y-7574227D01*
X41376819Y-7555219D01*
X41442440Y-7531224D01*
X41510616Y-7546514D01*
X41559703Y-7596236D01*
X41574491Y-7654962D01*
X41574491Y-8011954D01*
X41581955Y-8034925D01*
X41586495Y-8053840D01*
X41588371Y-8065683D01*
X41590272Y-8077687D01*
X41601237Y-8099208D01*
X41608680Y-8117177D01*
X41616142Y-8140142D01*
X41621873Y-8148030D01*
X41621875Y-8148034D01*
X41630337Y-8159680D01*
X41640500Y-8176264D01*
X41651463Y-8197781D01*
X41951501Y-8497819D01*
X41984986Y-8559142D01*
X41980002Y-8628834D01*
X41938130Y-8684767D01*
X41872666Y-8709184D01*
X41863820Y-8709500D01*
X41681233Y-8709500D01*
X41628627Y-8696433D01*
X41628452Y-8696304D01*
X41619710Y-8693234D01*
X41619708Y-8693233D01*
X41577412Y-8678380D01*
X41503474Y-8652415D01*
X41495955Y-8651704D01*
X41495954Y-8651704D01*
X41475552Y-8649775D01*
X41475542Y-8649775D01*
X41472638Y-8649500D01*
X41027362Y-8649500D01*
X41024458Y-8649775D01*
X41024448Y-8649775D01*
X41004046Y-8651704D01*
X41004045Y-8651704D01*
X40996526Y-8652415D01*
X40871548Y-8696304D01*
X40864092Y-8701811D01*
X40791751Y-8755243D01*
X40726131Y-8779238D01*
X40718080Y-8779500D01*
X40423420Y-8779500D01*
X40356381Y-8759815D01*
X40310626Y-8707011D01*
X40300682Y-8637853D01*
X40317000Y-8598121D01*
X40314382Y-8596735D01*
X40318721Y-8588540D01*
X40324227Y-8581085D01*
X40358163Y-8484450D01*
X40365114Y-8464657D01*
X40365114Y-8464655D01*
X40367618Y-8457526D01*
X40369723Y-8435262D01*
X40370225Y-8429952D01*
X40370225Y-8429942D01*
X40370500Y-8427038D01*
X40370500Y-8052962D01*
X40370186Y-8049633D01*
X40368329Y-8029995D01*
X40367618Y-8022474D01*
X40364669Y-8014075D01*
X40344350Y-7956218D01*
X40324227Y-7898915D01*
X40262188Y-7814921D01*
X40251928Y-7801030D01*
X40246423Y-7793577D01*
X40242808Y-7790907D01*
X40210530Y-7731794D01*
X40215514Y-7662102D01*
X40257386Y-7606169D01*
X40290610Y-7588441D01*
X40322339Y-7577299D01*
X40322342Y-7577297D01*
X40331085Y-7574227D01*
X40404997Y-7519635D01*
X40426329Y-7503879D01*
X40491949Y-7479884D01*
X40560125Y-7495174D01*
G37*
%TD.AperFunction*%
%TA.AperFunction,Conductor*%
G36*
X53833581Y-6630185D02*
G01*
X53879336Y-6682989D01*
X53889280Y-6752147D01*
X53882072Y-6779542D01*
X53868026Y-6815569D01*
X53865309Y-6822539D01*
X53844758Y-6978638D01*
X53845578Y-6986066D01*
X53845578Y-6986068D01*
X53855317Y-7074280D01*
X53862035Y-7135133D01*
X53864601Y-7142145D01*
X53864602Y-7142149D01*
X53878394Y-7179837D01*
X53916143Y-7282990D01*
X53927917Y-7300512D01*
X53991406Y-7394992D01*
X54003958Y-7413672D01*
X54048748Y-7454428D01*
X54114878Y-7514602D01*
X54114882Y-7514605D01*
X54120410Y-7519635D01*
X54126980Y-7523202D01*
X54126981Y-7523203D01*
X54218366Y-7572821D01*
X54258776Y-7594762D01*
X54329569Y-7613334D01*
X54403841Y-7632819D01*
X54403843Y-7632819D01*
X54411069Y-7634715D01*
X54499426Y-7636103D01*
X54566148Y-7656838D01*
X54585159Y-7672407D01*
X54868971Y-7956218D01*
X54898286Y-8002812D01*
X54925773Y-8081085D01*
X54931279Y-8088539D01*
X54931280Y-8088541D01*
X54996121Y-8176329D01*
X55020116Y-8241949D01*
X55004826Y-8310125D01*
X54996121Y-8323671D01*
X54981543Y-8343408D01*
X54925773Y-8418915D01*
X54917811Y-8441586D01*
X54877028Y-8498315D01*
X54812046Y-8523989D01*
X54800817Y-8524499D01*
X54727609Y-8524499D01*
X54660570Y-8504814D01*
X54639928Y-8488180D01*
X54215124Y-8063376D01*
X54202488Y-8048582D01*
X54196989Y-8041014D01*
X54192559Y-8032319D01*
X53471712Y-7311472D01*
X53450195Y-7300509D01*
X53433610Y-7290344D01*
X53424694Y-7283866D01*
X53382028Y-7228536D01*
X53373890Y-7192307D01*
X53365533Y-7074280D01*
X53364878Y-7065029D01*
X53346207Y-7016767D01*
X53321516Y-6952944D01*
X53321515Y-6952942D01*
X53318170Y-6944296D01*
X53297009Y-6917453D01*
X53243765Y-6849913D01*
X53243762Y-6849911D01*
X53238026Y-6842634D01*
X53229161Y-6836507D01*
X53228125Y-6835227D01*
X53223644Y-6831019D01*
X53224221Y-6830404D01*
X53185204Y-6782198D01*
X53177586Y-6712745D01*
X53208727Y-6650199D01*
X53268740Y-6614418D01*
X53299663Y-6610500D01*
X53766542Y-6610500D01*
X53833581Y-6630185D01*
G37*
%TD.AperFunction*%
%TA.AperFunction,Conductor*%
G36*
X56795005Y-3290185D02*
G01*
X56840760Y-3342989D01*
X56851131Y-3408863D01*
X56849916Y-3419281D01*
X56849915Y-3419290D01*
X56849500Y-3422854D01*
X56849500Y-4862146D01*
X56852618Y-4888346D01*
X56898061Y-4990653D01*
X56977287Y-5069741D01*
X56987758Y-5074370D01*
X56987759Y-5074371D01*
X57071147Y-5111237D01*
X57071149Y-5111238D01*
X57079673Y-5115006D01*
X57105354Y-5118000D01*
X57466141Y-5118000D01*
X57533180Y-5137685D01*
X57578935Y-5190489D01*
X57588614Y-5222599D01*
X57590281Y-5233126D01*
X57601246Y-5254647D01*
X57608689Y-5272616D01*
X57616151Y-5295581D01*
X57621882Y-5303469D01*
X57621884Y-5303473D01*
X57630346Y-5315119D01*
X57640509Y-5331703D01*
X57651472Y-5353220D01*
X57675446Y-5377194D01*
X57747869Y-5449616D01*
X57788661Y-5490408D01*
X57822146Y-5551731D01*
X57824980Y-5578089D01*
X57824980Y-7360500D01*
X57805295Y-7427539D01*
X57752491Y-7473294D01*
X57700980Y-7484500D01*
X56805354Y-7484500D01*
X56801700Y-7484935D01*
X56801698Y-7484935D01*
X56796734Y-7485526D01*
X56779154Y-7487618D01*
X56676847Y-7533061D01*
X56597759Y-7612287D01*
X56593130Y-7622758D01*
X56593129Y-7622759D01*
X56557933Y-7702371D01*
X56552494Y-7714673D01*
X56549500Y-7740354D01*
X56549500Y-7982391D01*
X56529815Y-8049430D01*
X56513181Y-8070072D01*
X56214357Y-8368895D01*
X56153034Y-8402380D01*
X56083342Y-8397396D01*
X56026932Y-8354883D01*
X56003878Y-8323669D01*
X55979883Y-8258048D01*
X55995175Y-8189873D01*
X56003879Y-8176329D01*
X56047569Y-8117177D01*
X56074227Y-8081085D01*
X56111067Y-7976180D01*
X56115114Y-7964657D01*
X56115114Y-7964655D01*
X56117618Y-7957526D01*
X56118438Y-7948853D01*
X56120225Y-7929952D01*
X56120225Y-7929942D01*
X56120500Y-7927038D01*
X56120500Y-7552962D01*
X56119891Y-7546514D01*
X56118329Y-7529995D01*
X56117618Y-7522474D01*
X56109308Y-7498809D01*
X56097947Y-7466460D01*
X56074227Y-7398915D01*
X56009686Y-7311533D01*
X56001928Y-7301030D01*
X55996423Y-7293577D01*
X55891085Y-7215773D01*
X55788755Y-7179837D01*
X55774657Y-7174886D01*
X55774655Y-7174886D01*
X55767526Y-7172382D01*
X55760005Y-7171671D01*
X55739952Y-7169775D01*
X55739942Y-7169775D01*
X55737038Y-7169500D01*
X55337109Y-7169500D01*
X55270070Y-7149815D01*
X55249428Y-7133181D01*
X55191581Y-7075334D01*
X55158096Y-7014011D01*
X55156009Y-6993582D01*
X55155458Y-6993612D01*
X55155235Y-6989564D01*
X55155278Y-6985500D01*
X55151332Y-6952893D01*
X55137262Y-6836619D01*
X55137261Y-6836615D01*
X55136363Y-6829194D01*
X55116060Y-6775464D01*
X55083354Y-6688908D01*
X55083352Y-6688905D01*
X55080710Y-6681912D01*
X55066507Y-6661246D01*
X55022309Y-6596939D01*
X55000500Y-6526704D01*
X55000500Y-6299960D01*
X55001835Y-6288014D01*
X55001361Y-6287976D01*
X55002070Y-6279167D01*
X55004019Y-6270552D01*
X55000738Y-6217671D01*
X55000500Y-6209992D01*
X55000500Y-6194060D01*
X54999284Y-6185564D01*
X54999041Y-6183870D01*
X54998026Y-6173966D01*
X54995688Y-6136278D01*
X54995141Y-6127462D01*
X54992140Y-6119151D01*
X54991554Y-6116319D01*
X54987390Y-6099616D01*
X54986576Y-6096832D01*
X54985323Y-6088082D01*
X54966031Y-6045652D01*
X54962284Y-6036446D01*
X54949461Y-6000925D01*
X54949460Y-6000923D01*
X54946460Y-5992613D01*
X54941245Y-5985475D01*
X54939884Y-5982915D01*
X54931195Y-5968045D01*
X54929641Y-5965615D01*
X54925984Y-5957572D01*
X54895554Y-5922257D01*
X54889366Y-5914462D01*
X54881478Y-5903664D01*
X54880010Y-5902196D01*
X54851661Y-5839150D01*
X54850500Y-5822220D01*
X54850500Y-5777362D01*
X54849951Y-5771548D01*
X54848296Y-5754046D01*
X54848296Y-5754045D01*
X54847585Y-5746526D01*
X54803696Y-5621548D01*
X54793415Y-5607628D01*
X54730504Y-5522454D01*
X54724999Y-5515001D01*
X54713371Y-5506412D01*
X54625908Y-5441811D01*
X54618452Y-5436304D01*
X54493474Y-5392415D01*
X54485955Y-5391704D01*
X54485954Y-5391704D01*
X54465552Y-5389775D01*
X54465542Y-5389775D01*
X54462638Y-5389500D01*
X54077362Y-5389500D01*
X54074458Y-5389775D01*
X54074448Y-5389775D01*
X54054046Y-5391704D01*
X54054045Y-5391704D01*
X54046526Y-5392415D01*
X53921548Y-5436304D01*
X53914092Y-5441811D01*
X53826630Y-5506412D01*
X53815001Y-5515001D01*
X53736304Y-5621548D01*
X53733234Y-5630290D01*
X53728895Y-5638485D01*
X53726784Y-5637368D01*
X53693747Y-5683318D01*
X53628765Y-5708991D01*
X53617539Y-5709500D01*
X52336150Y-5709500D01*
X52236038Y-5724551D01*
X52234726Y-5725181D01*
X52205995Y-5729500D01*
X51767654Y-5729500D01*
X51671986Y-5743883D01*
X51663631Y-5747895D01*
X51663628Y-5747896D01*
X51629901Y-5764092D01*
X51555290Y-5799920D01*
X51548487Y-5806209D01*
X51548482Y-5806212D01*
X51507465Y-5844128D01*
X51444875Y-5875180D01*
X51375433Y-5867463D01*
X51321186Y-5823428D01*
X51300192Y-5767969D01*
X51287262Y-5661119D01*
X51287261Y-5661115D01*
X51286363Y-5653694D01*
X51230710Y-5506412D01*
X51232167Y-5505862D01*
X51220500Y-5458363D01*
X51220500Y-4526150D01*
X51205449Y-4426038D01*
X51204819Y-4424726D01*
X51200500Y-4395995D01*
X51200500Y-4363038D01*
X51220185Y-4295999D01*
X51272989Y-4250244D01*
X51342147Y-4240300D01*
X51405703Y-4269325D01*
X51441495Y-4321952D01*
X51465773Y-4391085D01*
X51503998Y-4442837D01*
X51530764Y-4479075D01*
X51543577Y-4496423D01*
X51551030Y-4501928D01*
X51564606Y-4511955D01*
X51648915Y-4574227D01*
X51704793Y-4593850D01*
X51765343Y-4615114D01*
X51765345Y-4615114D01*
X51772474Y-4617618D01*
X51779995Y-4618329D01*
X51800048Y-4620225D01*
X51800058Y-4620225D01*
X51802962Y-4620500D01*
X52177038Y-4620500D01*
X52179942Y-4620225D01*
X52179952Y-4620225D01*
X52200005Y-4618329D01*
X52207526Y-4617618D01*
X52214655Y-4615114D01*
X52214657Y-4615114D01*
X52275207Y-4593850D01*
X52331085Y-4574227D01*
X52392158Y-4529118D01*
X52426329Y-4503879D01*
X52491949Y-4479884D01*
X52560125Y-4495174D01*
X52573671Y-4503879D01*
X52607842Y-4529118D01*
X52668915Y-4574227D01*
X52724793Y-4593850D01*
X52785343Y-4615114D01*
X52785345Y-4615114D01*
X52792474Y-4617618D01*
X52799995Y-4618329D01*
X52820048Y-4620225D01*
X52820058Y-4620225D01*
X52822962Y-4620500D01*
X53197038Y-4620500D01*
X53199942Y-4620225D01*
X53199952Y-4620225D01*
X53220005Y-4618329D01*
X53227526Y-4617618D01*
X53234655Y-4615114D01*
X53234657Y-4615114D01*
X53295207Y-4593850D01*
X53351085Y-4574227D01*
X53429914Y-4516003D01*
X53448966Y-4501931D01*
X53448967Y-4501930D01*
X53456423Y-4496423D01*
X53485880Y-4456541D01*
X53528461Y-4420175D01*
X53559664Y-4403967D01*
X53563146Y-4402227D01*
X53567865Y-4399961D01*
X53616079Y-4376809D01*
X53621299Y-4371984D01*
X53621520Y-4371835D01*
X53627788Y-4368579D01*
X53632828Y-4364275D01*
X53670097Y-4327006D01*
X53673607Y-4323631D01*
X53708749Y-4291147D01*
X53708751Y-4291144D01*
X53715556Y-4284854D01*
X53719237Y-4278516D01*
X53724828Y-4272275D01*
X54328995Y-3668108D01*
X54390318Y-3634623D01*
X54460010Y-3639607D01*
X54515943Y-3681479D01*
X54540360Y-3746943D01*
X54534872Y-3793282D01*
X54521350Y-3835908D01*
X54500741Y-3900878D01*
X54492056Y-3928255D01*
X54491380Y-3934283D01*
X54474158Y-4087820D01*
X54469638Y-4128113D01*
X54486467Y-4328518D01*
X54541901Y-4521838D01*
X54544674Y-4527233D01*
X54544674Y-4527234D01*
X54630712Y-4694646D01*
X54633828Y-4700710D01*
X54691116Y-4772989D01*
X54747733Y-4844421D01*
X54758748Y-4858319D01*
X54911901Y-4988663D01*
X54917199Y-4991624D01*
X55079624Y-5082400D01*
X55087456Y-5086777D01*
X55224719Y-5131377D01*
X55258374Y-5142312D01*
X55278723Y-5148924D01*
X55284741Y-5149642D01*
X55284743Y-5149642D01*
X55391285Y-5162346D01*
X55478420Y-5172736D01*
X55484464Y-5172271D01*
X55484465Y-5172271D01*
X55544766Y-5167631D01*
X55678938Y-5157307D01*
X55821785Y-5117423D01*
X55866799Y-5104855D01*
X55866800Y-5104854D01*
X55872640Y-5103224D01*
X56052149Y-5012548D01*
X56139921Y-4943973D01*
X56205852Y-4892463D01*
X56205854Y-4892461D01*
X56210627Y-4888732D01*
X56342037Y-4736492D01*
X56346097Y-4729346D01*
X56396179Y-4641185D01*
X56441374Y-4561627D01*
X56483718Y-4434334D01*
X56502941Y-4376549D01*
X56502942Y-4376545D01*
X56504854Y-4370797D01*
X56518557Y-4262328D01*
X56529625Y-4174716D01*
X56529625Y-4174715D01*
X56530060Y-4171272D01*
X56530462Y-4142500D01*
X56521891Y-4055082D01*
X56511429Y-3948385D01*
X56511429Y-3948383D01*
X56510837Y-3942349D01*
X56452710Y-3749821D01*
X56447486Y-3739995D01*
X56361143Y-3577609D01*
X56361143Y-3577608D01*
X56358294Y-3572251D01*
X56354458Y-3567548D01*
X56354455Y-3567543D01*
X56277243Y-3472871D01*
X56250126Y-3408478D01*
X56262128Y-3339647D01*
X56309438Y-3288231D01*
X56373336Y-3270500D01*
X56727966Y-3270500D01*
X56795005Y-3290185D01*
G37*
%TD.AperFunction*%
%TA.AperFunction,Conductor*%
G36*
X30203038Y-319685D02*
G01*
X30248793Y-372489D01*
X30258737Y-441647D01*
X30229712Y-505203D01*
X30217514Y-517441D01*
X30211241Y-522913D01*
X30211239Y-522916D01*
X30205604Y-527831D01*
X30108113Y-666547D01*
X30046524Y-824513D01*
X30045548Y-831923D01*
X30045548Y-831925D01*
X30034087Y-918987D01*
X30029500Y-953826D01*
X30029500Y-1596700D01*
X30009815Y-1663739D01*
X29957011Y-1709494D01*
X29905500Y-1720700D01*
X28591354Y-1720700D01*
X28587700Y-1721135D01*
X28587698Y-1721135D01*
X28582734Y-1721726D01*
X28565154Y-1723818D01*
X28462847Y-1769261D01*
X28383759Y-1848487D01*
X28379130Y-1858958D01*
X28379129Y-1858959D01*
X28346693Y-1932328D01*
X28338494Y-1950873D01*
X28335500Y-1976554D01*
X28335500Y-3175500D01*
X28315815Y-3242539D01*
X28263011Y-3288294D01*
X28211500Y-3299500D01*
X24601023Y-3299500D01*
X24533984Y-3279815D01*
X24487699Y-3225836D01*
X24480526Y-3209686D01*
X24465939Y-3176847D01*
X24386713Y-3097759D01*
X24376242Y-3093130D01*
X24376241Y-3093129D01*
X24292853Y-3056263D01*
X24292851Y-3056262D01*
X24284327Y-3052494D01*
X24258646Y-3049500D01*
X23289519Y-3049500D01*
X23222480Y-3029815D01*
X23201838Y-3013181D01*
X22913531Y-2724874D01*
X22907770Y-2718707D01*
X22875084Y-2681238D01*
X22875083Y-2681237D01*
X22870169Y-2675604D01*
X22818479Y-2639276D01*
X22813277Y-2635412D01*
X22769429Y-2601030D01*
X22769422Y-2601026D01*
X22763543Y-2596416D01*
X22756728Y-2593339D01*
X22754761Y-2592148D01*
X22739623Y-2583513D01*
X22737569Y-2582412D01*
X22731453Y-2578113D01*
X22698367Y-2565213D01*
X22672588Y-2555162D01*
X22666607Y-2552648D01*
X22655183Y-2547490D01*
X22609016Y-2526645D01*
X22601661Y-2525282D01*
X22599451Y-2524589D01*
X22582713Y-2519821D01*
X22580460Y-2519242D01*
X22573487Y-2516524D01*
X22566071Y-2515548D01*
X22566068Y-2515547D01*
X22510855Y-2508279D01*
X22504441Y-2507263D01*
X22449668Y-2497111D01*
X22449659Y-2497110D01*
X22442308Y-2495748D01*
X22381359Y-2499262D01*
X22380804Y-2499294D01*
X22373667Y-2499500D01*
X21333797Y-2499500D01*
X21266758Y-2479815D01*
X21258827Y-2474270D01*
X21254517Y-2470998D01*
X21254515Y-2470997D01*
X21247783Y-2465887D01*
X21239922Y-2462775D01*
X21239921Y-2462774D01*
X21114953Y-2413296D01*
X21114951Y-2413296D01*
X21107547Y-2410364D01*
X21099643Y-2409408D01*
X21099641Y-2409407D01*
X21046927Y-2403028D01*
X21017772Y-2399500D01*
X19982228Y-2399500D01*
X19953073Y-2403028D01*
X19900359Y-2409407D01*
X19900357Y-2409408D01*
X19892453Y-2410364D01*
X19885049Y-2413296D01*
X19885047Y-2413296D01*
X19760079Y-2462774D01*
X19760078Y-2462775D01*
X19752217Y-2465887D01*
X19745485Y-2470997D01*
X19745483Y-2470998D01*
X19741173Y-2474270D01*
X19675872Y-2499122D01*
X19666203Y-2499500D01*
X19083797Y-2499500D01*
X19016758Y-2479815D01*
X19008827Y-2474270D01*
X19004517Y-2470998D01*
X19004515Y-2470997D01*
X18997783Y-2465887D01*
X18989922Y-2462775D01*
X18989921Y-2462774D01*
X18864953Y-2413296D01*
X18864951Y-2413296D01*
X18857547Y-2410364D01*
X18849643Y-2409408D01*
X18849641Y-2409407D01*
X18796927Y-2403028D01*
X18767772Y-2399500D01*
X17732228Y-2399500D01*
X17703073Y-2403028D01*
X17650359Y-2409407D01*
X17650357Y-2409408D01*
X17642453Y-2410364D01*
X17635049Y-2413296D01*
X17635047Y-2413296D01*
X17510079Y-2462774D01*
X17510078Y-2462775D01*
X17502217Y-2465887D01*
X17495484Y-2470998D01*
X17495482Y-2470999D01*
X17407586Y-2537716D01*
X17382078Y-2557078D01*
X17376968Y-2563810D01*
X17338242Y-2614830D01*
X17290887Y-2677217D01*
X17287775Y-2685078D01*
X17287774Y-2685079D01*
X17238513Y-2809500D01*
X17235364Y-2817453D01*
X17234408Y-2825357D01*
X17234407Y-2825359D01*
X17229560Y-2865411D01*
X17224500Y-2907228D01*
X17224500Y-3466324D01*
X17204815Y-3533363D01*
X17188181Y-3554005D01*
X16529005Y-4213181D01*
X16467682Y-4246666D01*
X16441324Y-4249500D01*
X10431233Y-4249500D01*
X10378627Y-4236433D01*
X10378452Y-4236304D01*
X10369710Y-4233234D01*
X10369708Y-4233233D01*
X10301974Y-4209447D01*
X10253474Y-4192415D01*
X10245955Y-4191704D01*
X10245954Y-4191704D01*
X10225552Y-4189775D01*
X10225542Y-4189775D01*
X10222638Y-4189500D01*
X9777362Y-4189500D01*
X9774458Y-4189775D01*
X9774448Y-4189775D01*
X9754046Y-4191704D01*
X9754045Y-4191704D01*
X9746526Y-4192415D01*
X9698026Y-4209447D01*
X9630292Y-4233233D01*
X9630290Y-4233234D01*
X9621548Y-4236304D01*
X9621373Y-4236433D01*
X9568767Y-4249500D01*
X8319961Y-4249500D01*
X8308015Y-4248165D01*
X8307977Y-4248639D01*
X8299168Y-4247930D01*
X8290553Y-4245981D01*
X8281736Y-4246528D01*
X8281735Y-4246528D01*
X8237672Y-4249262D01*
X8229993Y-4249500D01*
X8214060Y-4249500D01*
X8209692Y-4250126D01*
X8209686Y-4250126D01*
X8203870Y-4250959D01*
X8193971Y-4251973D01*
X8161548Y-4253985D01*
X8156278Y-4254312D01*
X8147462Y-4254859D01*
X8139151Y-4257860D01*
X8136319Y-4258446D01*
X8119616Y-4262610D01*
X8116832Y-4263424D01*
X8108082Y-4264677D01*
X8065652Y-4283969D01*
X8056446Y-4287716D01*
X8020925Y-4300539D01*
X8020923Y-4300540D01*
X8012613Y-4303540D01*
X8005475Y-4308755D01*
X8002915Y-4310116D01*
X7988045Y-4318805D01*
X7985615Y-4320359D01*
X7977572Y-4324016D01*
X7944471Y-4352538D01*
X7942259Y-4354444D01*
X7934469Y-4360629D01*
X7923664Y-4368522D01*
X7912864Y-4379322D01*
X7906125Y-4385579D01*
X7875655Y-4411833D01*
X7875652Y-4411836D01*
X7868963Y-4417600D01*
X7864157Y-4425015D01*
X7858815Y-4431139D01*
X7849349Y-4442837D01*
X6238917Y-6053269D01*
X6177594Y-6086754D01*
X6107902Y-6081770D01*
X6051969Y-6039898D01*
X6037911Y-6015921D01*
X6034086Y-6007309D01*
X6029439Y-5996847D01*
X5950213Y-5917759D01*
X5939742Y-5913130D01*
X5939741Y-5913129D01*
X5873701Y-5883933D01*
X5847827Y-5872494D01*
X5838563Y-5871414D01*
X5832144Y-5869664D01*
X5772643Y-5833039D01*
X5742387Y-5770060D01*
X5750984Y-5700721D01*
X5795704Y-5647038D01*
X5831895Y-5630464D01*
X5839107Y-5628481D01*
X5848346Y-5627382D01*
X5950653Y-5581939D01*
X6029741Y-5502713D01*
X6035181Y-5490408D01*
X6071237Y-5408853D01*
X6071238Y-5408851D01*
X6075006Y-5400327D01*
X6078000Y-5374646D01*
X6078000Y-5081490D01*
X6097685Y-5014451D01*
X6150489Y-4968696D01*
X6158066Y-4965875D01*
X6161918Y-4965323D01*
X6204348Y-4946031D01*
X6213554Y-4942284D01*
X6249075Y-4929461D01*
X6249077Y-4929460D01*
X6257387Y-4926460D01*
X6264525Y-4921245D01*
X6267085Y-4919884D01*
X6281955Y-4911195D01*
X6284385Y-4909641D01*
X6292428Y-4905984D01*
X6327743Y-4875554D01*
X6335531Y-4869371D01*
X6346336Y-4861478D01*
X6357136Y-4850678D01*
X6363875Y-4844421D01*
X6394345Y-4818167D01*
X6394348Y-4818164D01*
X6401037Y-4812400D01*
X6405843Y-4804985D01*
X6411185Y-4798861D01*
X6420651Y-4787163D01*
X7670995Y-3536819D01*
X7732318Y-3503334D01*
X7758676Y-3500500D01*
X9697162Y-3500500D01*
X9747301Y-3511089D01*
X9821147Y-3543737D01*
X9821149Y-3543738D01*
X9829673Y-3547506D01*
X9855354Y-3550500D01*
X10644646Y-3550500D01*
X10648300Y-3550065D01*
X10648302Y-3550065D01*
X10653266Y-3549474D01*
X10670846Y-3547382D01*
X10773153Y-3501939D01*
X10852241Y-3422713D01*
X10858535Y-3408478D01*
X10883981Y-3350920D01*
X10897506Y-3320327D01*
X10897884Y-3320494D01*
X10926312Y-3271502D01*
X12290995Y-1906819D01*
X12352318Y-1873334D01*
X12378676Y-1870500D01*
X12427038Y-1870500D01*
X12429942Y-1870225D01*
X12429952Y-1870225D01*
X12450005Y-1868329D01*
X12457526Y-1867618D01*
X12464655Y-1865114D01*
X12464657Y-1865114D01*
X12484800Y-1858040D01*
X12554575Y-1854399D01*
X12615241Y-1889060D01*
X12647538Y-1951017D01*
X12641416Y-2020077D01*
X12615309Y-2087039D01*
X12594758Y-2243138D01*
X12595578Y-2250566D01*
X12595578Y-2250568D01*
X12603764Y-2324716D01*
X12612035Y-2399633D01*
X12614601Y-2406645D01*
X12614602Y-2406649D01*
X12637496Y-2469209D01*
X12666143Y-2547490D01*
X12670314Y-2553697D01*
X12748791Y-2670482D01*
X12753958Y-2678172D01*
X12800984Y-2720962D01*
X12864878Y-2779102D01*
X12864882Y-2779105D01*
X12870410Y-2784135D01*
X12876980Y-2787702D01*
X12876981Y-2787703D01*
X13002175Y-2855678D01*
X13008776Y-2859262D01*
X13092552Y-2881240D01*
X13153841Y-2897319D01*
X13153843Y-2897319D01*
X13161069Y-2899215D01*
X13238127Y-2900425D01*
X13311025Y-2901571D01*
X13311028Y-2901571D01*
X13318495Y-2901688D01*
X13325776Y-2900020D01*
X13325780Y-2900020D01*
X13464681Y-2868207D01*
X13471968Y-2866538D01*
X13612625Y-2795795D01*
X13618306Y-2790943D01*
X13618309Y-2790941D01*
X13726666Y-2698395D01*
X13726667Y-2698394D01*
X13732348Y-2693542D01*
X13737692Y-2686106D01*
X13778495Y-2629322D01*
X13824224Y-2565683D01*
X13882950Y-2419598D01*
X13884264Y-2410364D01*
X13904562Y-2267744D01*
X13904562Y-2267740D01*
X13905134Y-2263723D01*
X13905278Y-2250000D01*
X13893734Y-2154606D01*
X13887262Y-2101119D01*
X13887261Y-2101115D01*
X13886363Y-2093694D01*
X13858546Y-2020078D01*
X13833354Y-1953408D01*
X13833352Y-1953405D01*
X13830710Y-1946412D01*
X13826474Y-1940248D01*
X13823012Y-1933627D01*
X13825497Y-1932328D01*
X13807808Y-1878358D01*
X13825398Y-1810738D01*
X13876753Y-1763363D01*
X13931748Y-1750500D01*
X14295159Y-1750500D01*
X14362198Y-1770185D01*
X14368817Y-1774748D01*
X14421548Y-1813696D01*
X14430287Y-1816765D01*
X14430289Y-1816766D01*
X14467141Y-1829707D01*
X14546526Y-1857585D01*
X14554045Y-1858296D01*
X14554046Y-1858296D01*
X14574448Y-1860225D01*
X14574458Y-1860225D01*
X14577362Y-1860500D01*
X14962638Y-1860500D01*
X14965542Y-1860225D01*
X14965552Y-1860225D01*
X14985954Y-1858296D01*
X14985955Y-1858296D01*
X14993474Y-1857585D01*
X15118452Y-1813696D01*
X15186597Y-1763363D01*
X15217546Y-1740504D01*
X15224999Y-1734999D01*
X15233258Y-1723818D01*
X15298189Y-1635908D01*
X15303696Y-1628452D01*
X15347585Y-1503474D01*
X15350500Y-1472638D01*
X15350500Y-1027362D01*
X15349188Y-1013475D01*
X15348296Y-1004046D01*
X15348296Y-1004045D01*
X15347585Y-996526D01*
X15303696Y-871548D01*
X15294365Y-858915D01*
X15230504Y-772454D01*
X15224999Y-765001D01*
X15204013Y-749500D01*
X15125908Y-691811D01*
X15118452Y-686304D01*
X14993474Y-642415D01*
X14985955Y-641704D01*
X14985954Y-641704D01*
X14965552Y-639775D01*
X14965542Y-639775D01*
X14962638Y-639500D01*
X14577362Y-639500D01*
X14574458Y-639775D01*
X14574448Y-639775D01*
X14554046Y-641704D01*
X14554045Y-641704D01*
X14546526Y-642415D01*
X14477808Y-666547D01*
X14430289Y-683234D01*
X14430287Y-683235D01*
X14421548Y-686304D01*
X14368828Y-725244D01*
X14303210Y-749238D01*
X14295159Y-749500D01*
X13741731Y-749500D01*
X13674692Y-729815D01*
X13668066Y-725246D01*
X13601085Y-675773D01*
X13526271Y-649500D01*
X13484657Y-634886D01*
X13484655Y-634886D01*
X13477526Y-632382D01*
X13470005Y-631671D01*
X13449952Y-629775D01*
X13449942Y-629775D01*
X13447038Y-629500D01*
X13072962Y-629500D01*
X13070058Y-629775D01*
X13070048Y-629775D01*
X13049995Y-631671D01*
X13042474Y-632382D01*
X13035345Y-634886D01*
X13035343Y-634886D01*
X12994366Y-649277D01*
X12918915Y-675773D01*
X12884199Y-701415D01*
X12823671Y-746121D01*
X12758051Y-770116D01*
X12689875Y-754826D01*
X12676329Y-746121D01*
X12615801Y-701415D01*
X12581085Y-675773D01*
X12505634Y-649277D01*
X12464657Y-634886D01*
X12464655Y-634886D01*
X12457526Y-632382D01*
X12450005Y-631671D01*
X12429952Y-629775D01*
X12429942Y-629775D01*
X12427038Y-629500D01*
X12052962Y-629500D01*
X12050058Y-629775D01*
X12050048Y-629775D01*
X12029995Y-631671D01*
X12022474Y-632382D01*
X12015345Y-634886D01*
X12015343Y-634886D01*
X11974366Y-649277D01*
X11898915Y-675773D01*
X11831938Y-725243D01*
X11803672Y-746121D01*
X11793577Y-753577D01*
X11715773Y-858915D01*
X11702023Y-898069D01*
X11682443Y-953826D01*
X11672382Y-982474D01*
X11671671Y-989995D01*
X11670343Y-1004046D01*
X11669500Y-1012962D01*
X11669500Y-1061324D01*
X11649815Y-1128363D01*
X11633181Y-1149005D01*
X10469005Y-2313181D01*
X10407682Y-2346666D01*
X10381324Y-2349500D01*
X9855354Y-2349500D01*
X9851700Y-2349935D01*
X9851698Y-2349935D01*
X9846734Y-2350526D01*
X9829154Y-2352618D01*
X9726847Y-2398061D01*
X9718760Y-2406163D01*
X9718756Y-2406165D01*
X9661915Y-2463105D01*
X9600621Y-2496643D01*
X9574158Y-2499500D01*
X7569961Y-2499500D01*
X7558015Y-2498165D01*
X7557977Y-2498639D01*
X7549168Y-2497930D01*
X7540553Y-2495981D01*
X7531736Y-2496528D01*
X7531735Y-2496528D01*
X7487672Y-2499262D01*
X7479993Y-2499500D01*
X7464060Y-2499500D01*
X7459692Y-2500126D01*
X7459686Y-2500126D01*
X7453870Y-2500959D01*
X7443971Y-2501973D01*
X7411548Y-2503985D01*
X7406278Y-2504312D01*
X7397462Y-2504859D01*
X7389151Y-2507860D01*
X7386319Y-2508446D01*
X7369616Y-2512610D01*
X7366832Y-2513424D01*
X7358082Y-2514677D01*
X7315652Y-2533969D01*
X7306446Y-2537716D01*
X7270925Y-2550539D01*
X7270923Y-2550540D01*
X7262613Y-2553540D01*
X7255475Y-2558755D01*
X7252915Y-2560116D01*
X7238045Y-2568805D01*
X7235615Y-2570359D01*
X7227572Y-2574016D01*
X7197668Y-2599783D01*
X7192259Y-2604444D01*
X7184469Y-2610629D01*
X7173664Y-2618522D01*
X7162864Y-2629322D01*
X7156125Y-2635579D01*
X7125655Y-2661833D01*
X7125652Y-2661836D01*
X7118963Y-2667600D01*
X7114157Y-2675015D01*
X7108815Y-2681139D01*
X7099349Y-2692837D01*
X6251220Y-3540966D01*
X6189897Y-3574451D01*
X6120205Y-3569467D01*
X6064272Y-3527595D01*
X6050215Y-3503621D01*
X6050196Y-3503577D01*
X6029439Y-3456847D01*
X5950213Y-3377759D01*
X5939742Y-3373130D01*
X5939741Y-3373129D01*
X5856353Y-3336263D01*
X5856351Y-3336262D01*
X5847827Y-3332494D01*
X5822146Y-3329500D01*
X632854Y-3329500D01*
X629200Y-3329935D01*
X629198Y-3329935D01*
X624234Y-3330526D01*
X606654Y-3332618D01*
X504347Y-3378061D01*
X496258Y-3386164D01*
X494234Y-3387555D01*
X427836Y-3409304D01*
X360220Y-3391702D01*
X312853Y-3340339D01*
X300000Y-3285363D01*
X300000Y-537095D01*
X301884Y-515563D01*
X302744Y-510686D01*
X304628Y-500001D01*
X302914Y-490278D01*
X304269Y-473047D01*
X306717Y-457591D01*
X318705Y-420699D01*
X329283Y-399939D01*
X352086Y-368554D01*
X368554Y-352086D01*
X399939Y-329283D01*
X420699Y-318705D01*
X457591Y-306717D01*
X473047Y-304269D01*
X490278Y-302914D01*
X500001Y-304628D01*
X515563Y-301884D01*
X537095Y-300000D01*
X30135999Y-300000D01*
X30203038Y-319685D01*
G37*
%TD.AperFunction*%
%TA.AperFunction,Conductor*%
G36*
X45841763Y-5271322D02*
G01*
X45883698Y-5320103D01*
X45909920Y-5374710D01*
X45997792Y-5469771D01*
X46109732Y-5534790D01*
X46235842Y-5564021D01*
X46364971Y-5554878D01*
X46404721Y-5539500D01*
X46477107Y-5511496D01*
X46546733Y-5505666D01*
X46584126Y-5519918D01*
X46601716Y-5530135D01*
X46601721Y-5530137D01*
X46609732Y-5534790D01*
X46618758Y-5536882D01*
X46624206Y-5539039D01*
X46679292Y-5582019D01*
X46702395Y-5647959D01*
X46686182Y-5715921D01*
X46666240Y-5742012D01*
X46620071Y-5788181D01*
X46558748Y-5821666D01*
X46532390Y-5824500D01*
X45637610Y-5824500D01*
X45570571Y-5804815D01*
X45549929Y-5788181D01*
X45462174Y-5700426D01*
X45428689Y-5639103D01*
X45433673Y-5569411D01*
X45475545Y-5513478D01*
X45480666Y-5510119D01*
X45485704Y-5508170D01*
X45505910Y-5492241D01*
X45580087Y-5433765D01*
X45580089Y-5433762D01*
X45587366Y-5428026D01*
X45660968Y-5321533D01*
X45662296Y-5317335D01*
X45707733Y-5267684D01*
X45775282Y-5249826D01*
X45841763Y-5271322D01*
G37*
%TD.AperFunction*%
%TA.AperFunction,Conductor*%
G36*
X40712539Y-1870185D02*
G01*
X40758294Y-1922989D01*
X40769500Y-1974500D01*
X40769500Y-2744646D01*
X40772618Y-2770846D01*
X40818061Y-2873153D01*
X40897287Y-2952241D01*
X40907758Y-2956870D01*
X40907759Y-2956871D01*
X40991147Y-2993737D01*
X40991149Y-2993738D01*
X40999673Y-2997506D01*
X41025354Y-3000500D01*
X42741324Y-3000500D01*
X42808363Y-3020185D01*
X42829005Y-3036819D01*
X43470734Y-3678548D01*
X43504219Y-3739871D01*
X43504171Y-3791525D01*
X43502415Y-3796526D01*
X43501704Y-3804045D01*
X43501704Y-3804046D01*
X43500224Y-3819707D01*
X43499500Y-3827362D01*
X43499500Y-4272638D01*
X43499775Y-4275542D01*
X43499775Y-4275552D01*
X43500925Y-4287716D01*
X43502415Y-4303474D01*
X43541837Y-4415732D01*
X43546304Y-4428452D01*
X43542913Y-4429643D01*
X43553374Y-4480970D01*
X43528099Y-4546108D01*
X43471620Y-4587241D01*
X43429817Y-4594500D01*
X42747610Y-4594500D01*
X42680571Y-4574815D01*
X42659929Y-4558181D01*
X42366819Y-4265071D01*
X42333334Y-4203748D01*
X42330500Y-4177390D01*
X42330500Y-3762962D01*
X42329592Y-3753349D01*
X42328329Y-3739995D01*
X42327618Y-3732474D01*
X42319937Y-3710600D01*
X42305576Y-3669707D01*
X42284227Y-3608915D01*
X42214858Y-3514997D01*
X42211928Y-3511030D01*
X42206423Y-3503577D01*
X42194244Y-3494581D01*
X42157320Y-3467309D01*
X42101085Y-3425773D01*
X42023400Y-3398492D01*
X41984657Y-3384886D01*
X41984655Y-3384886D01*
X41977526Y-3382382D01*
X41970005Y-3381671D01*
X41949952Y-3379775D01*
X41949942Y-3379775D01*
X41947038Y-3379500D01*
X41572962Y-3379500D01*
X41570058Y-3379775D01*
X41570048Y-3379775D01*
X41549995Y-3381671D01*
X41542474Y-3382382D01*
X41535345Y-3384886D01*
X41535343Y-3384886D01*
X41496600Y-3398492D01*
X41418915Y-3425773D01*
X41362680Y-3467309D01*
X41325757Y-3494581D01*
X41313577Y-3503577D01*
X41308072Y-3511030D01*
X41305142Y-3514997D01*
X41235773Y-3608915D01*
X41214424Y-3669707D01*
X41200064Y-3710600D01*
X41192382Y-3732474D01*
X41191671Y-3739995D01*
X41190409Y-3753349D01*
X41189500Y-3762962D01*
X41189500Y-4095020D01*
X41169815Y-4162059D01*
X41117011Y-4207814D01*
X41065500Y-4219020D01*
X40478196Y-4219020D01*
X40411157Y-4199335D01*
X40390515Y-4182701D01*
X40286819Y-4079005D01*
X40253334Y-4017682D01*
X40250500Y-3991324D01*
X40250500Y-3319960D01*
X40251835Y-3308014D01*
X40251361Y-3307976D01*
X40252070Y-3299167D01*
X40254019Y-3290552D01*
X40252375Y-3264046D01*
X40250738Y-3237671D01*
X40250500Y-3229992D01*
X40250500Y-3214060D01*
X40249727Y-3208657D01*
X40249041Y-3203870D01*
X40248026Y-3193966D01*
X40247939Y-3192555D01*
X40245141Y-3147462D01*
X40242140Y-3139151D01*
X40241554Y-3136319D01*
X40237390Y-3119616D01*
X40236576Y-3116832D01*
X40235323Y-3108082D01*
X40216031Y-3065652D01*
X40212284Y-3056446D01*
X40199461Y-3020925D01*
X40199460Y-3020923D01*
X40196460Y-3012613D01*
X40191245Y-3005475D01*
X40189884Y-3002915D01*
X40181195Y-2988045D01*
X40179641Y-2985615D01*
X40175984Y-2977572D01*
X40145554Y-2942257D01*
X40139366Y-2934462D01*
X40134565Y-2927890D01*
X40131478Y-2923664D01*
X40120678Y-2912864D01*
X40114421Y-2906125D01*
X40088167Y-2875655D01*
X40088164Y-2875652D01*
X40082400Y-2868963D01*
X40074985Y-2864157D01*
X40068861Y-2858815D01*
X40057163Y-2849349D01*
X39269995Y-2062181D01*
X39236510Y-2000858D01*
X39241494Y-1931166D01*
X39283366Y-1875233D01*
X39348830Y-1850816D01*
X39357676Y-1850500D01*
X40645500Y-1850500D01*
X40712539Y-1870185D01*
G37*
%TD.AperFunction*%
%TA.AperFunction,Conductor*%
G36*
X51179160Y-319685D02*
G01*
X51224915Y-372489D01*
X51231868Y-424813D01*
X51240482Y-444797D01*
X52067393Y-1271708D01*
X52081113Y-1279200D01*
X52082919Y-1279071D01*
X52089426Y-1274889D01*
X52916525Y-447790D01*
X52924017Y-434070D01*
X52923929Y-432846D01*
X52938781Y-364573D01*
X52988186Y-315168D01*
X53047613Y-300000D01*
X53723319Y-300000D01*
X53790358Y-319685D01*
X53836113Y-372489D01*
X53846057Y-441647D01*
X53815469Y-506972D01*
X53786169Y-539513D01*
X53767467Y-560284D01*
X53764219Y-565910D01*
X53686851Y-699916D01*
X53672821Y-724216D01*
X53646520Y-805162D01*
X53616334Y-898065D01*
X53614326Y-904244D01*
X53614034Y-907024D01*
X53581491Y-967299D01*
X53520327Y-1001073D01*
X53506129Y-1001461D01*
X53485203Y-1010482D01*
X52658292Y-1837393D01*
X52650800Y-1851113D01*
X52650929Y-1852919D01*
X52655111Y-1859426D01*
X53482210Y-2686525D01*
X53494391Y-2693176D01*
X53501921Y-2687539D01*
X53552159Y-2605560D01*
X53556573Y-2596897D01*
X53625032Y-2431621D01*
X53668873Y-2377218D01*
X53735167Y-2355153D01*
X53802866Y-2372432D01*
X53831741Y-2396100D01*
X53894129Y-2465388D01*
X53899387Y-2469208D01*
X53899388Y-2469209D01*
X53901852Y-2470999D01*
X53987140Y-2532964D01*
X54029805Y-2588292D01*
X54035784Y-2657906D01*
X54001935Y-2720962D01*
X53366312Y-3356585D01*
X53304989Y-3390070D01*
X53242109Y-3386183D01*
X53242038Y-3386505D01*
X53239966Y-3386050D01*
X53237549Y-3385901D01*
X53234657Y-3384886D01*
X53234655Y-3384886D01*
X53227526Y-3382382D01*
X53220007Y-3381671D01*
X53220006Y-3381671D01*
X53199952Y-3379775D01*
X53199942Y-3379775D01*
X53197038Y-3379500D01*
X53051276Y-3379500D01*
X52984237Y-3359815D01*
X52938482Y-3307011D01*
X52936981Y-3295714D01*
X52919518Y-3255203D01*
X50677790Y-1013475D01*
X50665609Y-1006824D01*
X50658079Y-1012460D01*
X50615070Y-1082645D01*
X50563259Y-1129520D01*
X50494329Y-1140943D01*
X50430166Y-1113286D01*
X50409989Y-1092050D01*
X50402050Y-1081418D01*
X50402046Y-1081414D01*
X50398651Y-1076867D01*
X50394481Y-1073012D01*
X50394478Y-1073009D01*
X50316657Y-1001073D01*
X50243381Y-933337D01*
X50238571Y-930302D01*
X50069363Y-823539D01*
X50069361Y-823538D01*
X50064554Y-820505D01*
X49868160Y-742152D01*
X49862579Y-741042D01*
X49862576Y-741041D01*
X49764467Y-721526D01*
X49660775Y-700901D01*
X49655088Y-700827D01*
X49655083Y-700826D01*
X49455034Y-698207D01*
X49455029Y-698207D01*
X49449346Y-698133D01*
X49443742Y-699096D01*
X49443741Y-699096D01*
X49246550Y-732979D01*
X49246547Y-732980D01*
X49240953Y-733941D01*
X49042575Y-807127D01*
X49037697Y-810029D01*
X49037695Y-810030D01*
X48865740Y-912332D01*
X48865737Y-912334D01*
X48860856Y-915238D01*
X48701881Y-1054655D01*
X48698362Y-1059119D01*
X48698359Y-1059122D01*
X48672401Y-1092050D01*
X48570976Y-1220708D01*
X48472523Y-1407836D01*
X48470837Y-1413267D01*
X48470835Y-1413271D01*
X48440614Y-1510600D01*
X48409820Y-1609773D01*
X48392851Y-1753140D01*
X48365425Y-1817398D01*
X48310974Y-1854346D01*
X48364347Y-1888736D01*
X48393296Y-1952327D01*
X48394271Y-1961707D01*
X48398796Y-2030749D01*
X48450845Y-2235690D01*
X48453219Y-2240841D01*
X48453221Y-2240845D01*
X48532217Y-2412201D01*
X48539369Y-2427714D01*
X48661405Y-2600391D01*
X48665476Y-2604357D01*
X48665998Y-2604968D01*
X48694569Y-2668729D01*
X48684132Y-2737815D01*
X48638002Y-2790291D01*
X48571708Y-2809500D01*
X47962917Y-2809500D01*
X47895878Y-2789815D01*
X47850123Y-2737011D01*
X47840179Y-2667853D01*
X47867580Y-2606210D01*
X47948584Y-2508813D01*
X47948585Y-2508811D01*
X47952219Y-2504442D01*
X48003877Y-2412201D01*
X48052756Y-2324922D01*
X48052759Y-2324916D01*
X48055537Y-2319955D01*
X48057837Y-2313181D01*
X48121675Y-2125118D01*
X48123504Y-2119730D01*
X48129254Y-2080073D01*
X48147820Y-1952033D01*
X48176921Y-1888512D01*
X48230667Y-1854063D01*
X48178057Y-1822081D01*
X48147453Y-1759271D01*
X48146232Y-1749909D01*
X48136601Y-1645100D01*
X48136081Y-1639440D01*
X48078686Y-1435931D01*
X47985165Y-1246290D01*
X47858651Y-1076867D01*
X47854481Y-1073012D01*
X47854478Y-1073009D01*
X47776657Y-1001073D01*
X47703381Y-933337D01*
X47698571Y-930302D01*
X47529363Y-823539D01*
X47529361Y-823538D01*
X47524554Y-820505D01*
X47328160Y-742152D01*
X47322579Y-741042D01*
X47322576Y-741041D01*
X47224467Y-721526D01*
X47120775Y-700901D01*
X47115088Y-700827D01*
X47115083Y-700826D01*
X46915034Y-698207D01*
X46915029Y-698207D01*
X46909346Y-698133D01*
X46903742Y-699096D01*
X46903741Y-699096D01*
X46706550Y-732979D01*
X46706547Y-732980D01*
X46700953Y-733941D01*
X46502575Y-807127D01*
X46497697Y-810029D01*
X46497695Y-810030D01*
X46325740Y-912332D01*
X46325737Y-912334D01*
X46320856Y-915238D01*
X46161881Y-1054655D01*
X46158362Y-1059119D01*
X46158359Y-1059122D01*
X46132401Y-1092050D01*
X46030976Y-1220708D01*
X45932523Y-1407836D01*
X45930837Y-1413267D01*
X45930835Y-1413271D01*
X45900614Y-1510600D01*
X45869820Y-1609773D01*
X45852851Y-1753140D01*
X45825425Y-1817398D01*
X45770974Y-1854346D01*
X45824347Y-1888736D01*
X45853296Y-1952327D01*
X45854271Y-1961707D01*
X45858796Y-2030749D01*
X45910845Y-2235690D01*
X45913219Y-2240841D01*
X45913221Y-2240845D01*
X45992217Y-2412201D01*
X45999369Y-2427714D01*
X46002647Y-2432352D01*
X46118126Y-2595751D01*
X46121405Y-2600391D01*
X46125476Y-2604357D01*
X46125477Y-2604358D01*
X46180446Y-2657906D01*
X46272865Y-2747937D01*
X46277588Y-2751093D01*
X46277592Y-2751096D01*
X46319872Y-2779346D01*
X46401377Y-2833806D01*
X46446181Y-2887417D01*
X46454888Y-2956742D01*
X46420166Y-3024588D01*
X45975564Y-3469190D01*
X45964651Y-3478888D01*
X45937890Y-3499985D01*
X45905133Y-3547382D01*
X45904510Y-3548283D01*
X45902281Y-3551403D01*
X45867366Y-3598673D01*
X45864973Y-3605489D01*
X45860869Y-3611426D01*
X45848597Y-3650229D01*
X45843175Y-3667373D01*
X45841943Y-3671065D01*
X45832970Y-3696618D01*
X45792186Y-3753349D01*
X45727205Y-3779024D01*
X45658658Y-3765493D01*
X45624917Y-3739704D01*
X45548504Y-3657040D01*
X45542208Y-3650229D01*
X45430268Y-3585210D01*
X45304158Y-3555979D01*
X45175029Y-3565122D01*
X45054296Y-3611830D01*
X45047014Y-3617571D01*
X45038964Y-3622162D01*
X45037316Y-3619273D01*
X44987845Y-3639141D01*
X44938533Y-3633943D01*
X44904485Y-3623175D01*
X44900791Y-3621943D01*
X44854116Y-3605552D01*
X44854112Y-3605551D01*
X44845369Y-3602481D01*
X44838265Y-3602202D01*
X44838014Y-3602153D01*
X44831270Y-3600020D01*
X44824663Y-3599500D01*
X44771932Y-3599500D01*
X44767063Y-3599404D01*
X44719270Y-3597526D01*
X44710006Y-3597162D01*
X44708709Y-3597506D01*
X44644034Y-3586025D01*
X44592763Y-3538558D01*
X44579151Y-3494581D01*
X44577479Y-3494927D01*
X44575688Y-3486279D01*
X44575141Y-3477461D01*
X44572142Y-3469152D01*
X44571552Y-3466305D01*
X44567387Y-3449600D01*
X44566575Y-3446823D01*
X44565323Y-3438082D01*
X44561668Y-3430043D01*
X44561667Y-3430040D01*
X44546034Y-3395657D01*
X44542281Y-3386439D01*
X44539776Y-3379500D01*
X44526460Y-3342613D01*
X44521247Y-3335477D01*
X44519889Y-3332923D01*
X44511200Y-3318052D01*
X44509640Y-3315613D01*
X44505984Y-3307572D01*
X44475540Y-3272240D01*
X44469381Y-3264483D01*
X44461477Y-3253664D01*
X44450684Y-3242871D01*
X44444439Y-3236146D01*
X44420751Y-3208655D01*
X44391904Y-3145021D01*
X44402039Y-3075890D01*
X44447940Y-3023213D01*
X44509256Y-3006608D01*
X44509115Y-3003920D01*
X44514790Y-3003623D01*
X44520470Y-3003846D01*
X44526090Y-3003031D01*
X44526092Y-3003031D01*
X44724103Y-2974320D01*
X44724104Y-2974320D01*
X44729730Y-2973504D01*
X44768360Y-2960391D01*
X44924565Y-2907367D01*
X44924568Y-2907366D01*
X44929955Y-2905537D01*
X44934916Y-2902759D01*
X44934922Y-2902756D01*
X45071621Y-2826200D01*
X45114442Y-2802219D01*
X45128003Y-2790941D01*
X45272645Y-2670644D01*
X45277012Y-2667012D01*
X45291921Y-2649086D01*
X45408584Y-2508813D01*
X45408585Y-2508811D01*
X45412219Y-2504442D01*
X45463877Y-2412201D01*
X45512756Y-2324922D01*
X45512759Y-2324916D01*
X45515537Y-2319955D01*
X45517837Y-2313181D01*
X45581675Y-2125118D01*
X45583504Y-2119730D01*
X45589254Y-2080073D01*
X45607820Y-1952033D01*
X45636921Y-1888512D01*
X45690667Y-1854063D01*
X45638057Y-1822081D01*
X45607453Y-1759271D01*
X45606232Y-1749909D01*
X45596601Y-1645100D01*
X45596081Y-1639440D01*
X45538686Y-1435931D01*
X45445165Y-1246290D01*
X45318651Y-1076867D01*
X45314481Y-1073012D01*
X45314478Y-1073009D01*
X45236657Y-1001073D01*
X45163381Y-933337D01*
X45158571Y-930302D01*
X44989363Y-823539D01*
X44989361Y-823538D01*
X44984554Y-820505D01*
X44788160Y-742152D01*
X44782579Y-741042D01*
X44782576Y-741041D01*
X44684467Y-721526D01*
X44580775Y-700901D01*
X44575088Y-700827D01*
X44575083Y-700826D01*
X44375034Y-698207D01*
X44375029Y-698207D01*
X44369346Y-698133D01*
X44363742Y-699096D01*
X44363741Y-699096D01*
X44166550Y-732979D01*
X44166547Y-732980D01*
X44160953Y-733941D01*
X43962575Y-807127D01*
X43957697Y-810029D01*
X43957695Y-810030D01*
X43785740Y-912332D01*
X43785737Y-912334D01*
X43780856Y-915238D01*
X43621881Y-1054655D01*
X43618362Y-1059119D01*
X43618359Y-1059122D01*
X43592401Y-1092050D01*
X43490976Y-1220708D01*
X43392523Y-1407836D01*
X43390837Y-1413267D01*
X43390835Y-1413271D01*
X43360614Y-1510600D01*
X43329820Y-1609773D01*
X43329152Y-1615418D01*
X43329151Y-1615422D01*
X43317640Y-1712681D01*
X43290213Y-1776942D01*
X43232397Y-1816173D01*
X43162549Y-1817919D01*
X43102845Y-1781625D01*
X43072241Y-1718814D01*
X43070500Y-1698106D01*
X43070500Y-955354D01*
X43067382Y-929154D01*
X43021939Y-826847D01*
X42942713Y-747759D01*
X42932242Y-743130D01*
X42932241Y-743129D01*
X42848853Y-706263D01*
X42848851Y-706262D01*
X42840327Y-702494D01*
X42814646Y-699500D01*
X41584823Y-699500D01*
X41537370Y-690061D01*
X41484271Y-668066D01*
X41484269Y-668065D01*
X41476762Y-664956D01*
X41359361Y-649500D01*
X41320000Y-644318D01*
X41311941Y-645379D01*
X41288698Y-648439D01*
X41272513Y-649500D01*
X31404380Y-649500D01*
X31337341Y-629815D01*
X31302189Y-595735D01*
X31263549Y-539513D01*
X31263546Y-539510D01*
X31259312Y-533349D01*
X31240494Y-516583D01*
X31203535Y-457290D01*
X31204499Y-387427D01*
X31243081Y-329176D01*
X31307031Y-301030D01*
X31322983Y-300000D01*
X51112121Y-300000D01*
X51179160Y-319685D01*
G37*
%TD.AperFunction*%
%TA.AperFunction,Conductor*%
G36*
X19443039Y-14519685D02*
G01*
X19488794Y-14572489D01*
X19500000Y-14624000D01*
X19500000Y-16126000D01*
X19480315Y-16193039D01*
X19427511Y-16238794D01*
X19376000Y-16250000D01*
X17801362Y-16250000D01*
X17734323Y-16230315D01*
X17713681Y-16213681D01*
X17500000Y-16000000D01*
X15624000Y-16000000D01*
X15556961Y-15980315D01*
X15511206Y-15927511D01*
X15500000Y-15876000D01*
X15500000Y-14874000D01*
X15519685Y-14806961D01*
X15572489Y-14761206D01*
X15624000Y-14750000D01*
X17500000Y-14750000D01*
X17713681Y-14536319D01*
X17775004Y-14502834D01*
X17801362Y-14500000D01*
X19376000Y-14500000D01*
X19443039Y-14519685D01*
G37*
%TD.AperFunction*%
%TA.AperFunction,Conductor*%
G36*
X18943039Y-9019685D02*
G01*
X18988794Y-9072489D01*
X19000000Y-9124000D01*
X19000000Y-10626000D01*
X18980315Y-10693039D01*
X18927511Y-10738794D01*
X18876000Y-10750000D01*
X17801362Y-10750000D01*
X17734323Y-10730315D01*
X17713681Y-10713681D01*
X17500000Y-10500000D01*
X15624000Y-10500000D01*
X15556961Y-10480315D01*
X15511206Y-10427511D01*
X15500000Y-10376000D01*
X15500000Y-9374000D01*
X15519685Y-9306961D01*
X15572489Y-9261206D01*
X15624000Y-9250000D01*
X17500000Y-9250000D01*
X17713681Y-9036319D01*
X17775004Y-9002834D01*
X17801362Y-9000000D01*
X18876000Y-9000000D01*
X18943039Y-9019685D01*
G37*
%TD.AperFunction*%
%TA.AperFunction,Conductor*%
G36*
X11943039Y-13519685D02*
G01*
X11988794Y-13572489D01*
X12000000Y-13624000D01*
X12000000Y-18376000D01*
X11980315Y-18443039D01*
X11927511Y-18488794D01*
X11876000Y-18500000D01*
X10051362Y-18500000D01*
X9984323Y-18480315D01*
X9963681Y-18463681D01*
X8500000Y-17000000D01*
X7616328Y-16999740D01*
X423964Y-16997624D01*
X356930Y-16977920D01*
X311190Y-16925102D01*
X300000Y-16873624D01*
X300000Y-13624000D01*
X319685Y-13556961D01*
X372489Y-13511206D01*
X424000Y-13500000D01*
X11876000Y-13500000D01*
X11943039Y-13519685D01*
G37*
%TD.AperFunction*%
M02*
