%TF.GenerationSoftware,KiCad,Pcbnew,(6.0.8)*%
%TF.CreationDate,2022-10-14T10:01:30+03:00*%
%TF.ProjectId,ServoController,53657276-6f43-46f6-9e74-726f6c6c6572,rev?*%
%TF.SameCoordinates,PXe3ed9c0PYb6ddf70*%
%TF.FileFunction,Copper,L2,Bot*%
%TF.FilePolarity,Positive*%
%FSLAX46Y46*%
G04 Gerber Fmt 4.6, Leading zero omitted, Abs format (unit mm)*
G04 Created by KiCad (PCBNEW (6.0.8)) date 2022-10-14 10:01:30*
%MOMM*%
%LPD*%
G01*
G04 APERTURE LIST*
%TA.AperFunction,ComponentPad*%
%ADD10C,1.500000*%
%TD*%
%TA.AperFunction,ComponentPad*%
%ADD11R,1.700000X1.700000*%
%TD*%
%TA.AperFunction,ComponentPad*%
%ADD12C,1.700000*%
%TD*%
%TA.AperFunction,ComponentPad*%
%ADD13C,0.800000*%
%TD*%
%TA.AperFunction,SMDPad,CuDef*%
%ADD14R,2.332000X3.957600*%
%TD*%
%TA.AperFunction,ComponentPad*%
%ADD15C,1.450000*%
%TD*%
%TA.AperFunction,ComponentPad*%
%ADD16O,1.200000X1.900000*%
%TD*%
%TA.AperFunction,ViaPad*%
%ADD17C,0.700000*%
%TD*%
%TA.AperFunction,ViaPad*%
%ADD18C,1.000000*%
%TD*%
%TA.AperFunction,Conductor*%
%ADD19C,0.600000*%
%TD*%
%TA.AperFunction,Conductor*%
%ADD20C,0.300000*%
%TD*%
%TA.AperFunction,Conductor*%
%ADD21C,0.400000*%
%TD*%
G04 APERTURE END LIST*
D10*
X36250000Y-3570000D03*
X36250000Y-8450000D03*
D11*
X41920000Y-1850000D03*
D12*
X44460000Y-1850000D03*
X47000000Y-1850000D03*
X49540000Y-1850000D03*
X52080000Y-1850000D03*
D13*
X29800000Y-3100000D03*
X29800000Y-4900000D03*
D14*
X29802000Y-4000000D03*
D15*
X60500000Y-4142500D03*
X55500000Y-4142500D03*
D16*
X54500000Y-1442500D03*
X61500000Y-1442500D03*
D17*
X34750000Y-2250000D03*
X63750000Y-19250000D03*
X54250000Y-13500000D03*
D18*
X38700000Y-3710000D03*
D17*
X27750000Y-13750000D03*
X40249500Y-10850000D03*
X48500000Y-8250000D03*
X26750000Y-2750000D03*
X47250000Y-11000000D03*
X31750000Y-2099500D03*
X64250000Y-2500000D03*
X16500000Y-2000000D03*
X13090000Y-16700000D03*
X63250000Y-6750000D03*
X17400000Y-19040000D03*
X31640000Y-9190000D03*
X17505185Y-5004769D03*
X8750000Y-6000000D03*
D18*
X45516200Y-3197878D03*
D17*
X25750000Y-1500000D03*
X46750000Y-8000000D03*
X38000000Y-10250000D03*
X58500000Y-17500000D03*
X32250000Y-4500000D03*
X13750000Y-7000000D03*
X63500000Y-17140000D03*
X16890000Y-18110000D03*
X56180000Y-5420000D03*
X13380000Y-14230000D03*
X60500000Y-19500000D03*
X48250000Y-7000000D03*
X13170000Y-9000000D03*
X25000000Y-13750000D03*
X25000000Y-10500000D03*
X35000000Y-10000000D03*
X49750000Y-9000000D03*
X19000000Y-4750000D03*
X32370000Y-18960000D03*
X25850000Y-19120000D03*
X60500000Y-17000000D03*
X49840000Y-6470000D03*
D18*
X40718225Y-3304613D03*
D17*
X23500000Y-19080000D03*
X58500000Y-19250000D03*
X8750000Y-3750000D03*
X25250000Y-5500000D03*
X14500000Y-6499500D03*
X27750000Y-1250000D03*
X12279977Y-3029977D03*
X15068477Y-2450500D03*
X13340000Y-10630000D03*
X11750000Y-6499500D03*
X62000000Y-18250000D03*
X53593356Y-6973327D03*
X13590000Y-12350000D03*
X16500000Y-6500000D03*
X16910000Y-12430000D03*
X56000000Y-18750000D03*
X53250000Y-19250000D03*
X63250000Y-1000000D03*
X30750000Y-14000000D03*
X8750000Y-1000000D03*
X61500000Y-8750000D03*
X36250000Y-5750000D03*
X9750000Y-7000000D03*
X56190000Y-6490000D03*
X50500000Y-10500000D03*
X26750000Y-6250000D03*
X21750000Y-13500000D03*
X40618554Y-8069019D03*
X37250000Y-2099500D03*
X63250000Y-4500000D03*
X55800000Y-10450000D03*
X64250000Y-8750000D03*
X13880000Y-17740000D03*
X28860000Y-19040000D03*
X34500000Y-4750000D03*
X13960000Y-19120000D03*
X57550000Y-10700000D03*
D18*
X38250000Y-12000000D03*
D17*
X54500000Y-6985500D03*
X51500000Y-13500000D03*
D18*
X18000000Y-10000000D03*
X18000000Y-15250000D03*
X16450000Y-9865000D03*
X16450000Y-15365000D03*
D17*
X45500000Y-8000000D03*
X13250000Y-2250000D03*
X45954872Y-12014372D03*
X50650000Y-5810000D03*
X50000000Y-7750000D03*
X28750000Y-11150000D03*
X45960000Y-10550000D03*
X45010000Y-10259500D03*
X28740000Y-8640000D03*
X15155000Y-8595000D03*
X23390000Y-8630000D03*
X17750000Y-17000000D03*
X23450000Y-11150000D03*
D19*
X47410000Y-9410000D02*
X44260000Y-9410000D01*
X41670000Y-12000000D02*
X38250000Y-12000000D01*
X54500000Y-10500000D02*
X51500000Y-13500000D01*
X44260000Y-9410000D02*
X41670000Y-12000000D01*
X51500000Y-13500000D02*
X47410000Y-9410000D01*
X54500000Y-6985500D02*
X54500000Y-10500000D01*
D20*
X45720000Y-7780000D02*
X45720000Y-4603069D01*
X45720000Y-4603069D02*
X44460000Y-3343069D01*
X44460000Y-3343069D02*
X44460000Y-1850000D01*
X45500000Y-8000000D02*
X45720000Y-7780000D01*
X45954872Y-12014372D02*
X44119244Y-13850000D01*
X23500000Y-6500000D02*
X17500000Y-6500000D01*
X26250000Y-10750000D02*
X26250000Y-9250000D01*
X33590000Y-13850000D02*
X32240000Y-12500000D01*
X44119244Y-13850000D02*
X33590000Y-13850000D01*
X26250000Y-9250000D02*
X23500000Y-6500000D01*
X28000000Y-12500000D02*
X26250000Y-10750000D01*
X32240000Y-12500000D02*
X28000000Y-12500000D01*
X17500000Y-6500000D02*
X13250000Y-2250000D01*
X50650000Y-5810000D02*
X50650000Y-2960000D01*
X50650000Y-2960000D02*
X49540000Y-1850000D01*
X49000000Y-6750000D02*
X49000000Y-3850000D01*
X50000000Y-7750000D02*
X49000000Y-6750000D01*
X49000000Y-3850000D02*
X47000000Y-1850000D01*
X31660000Y-11150000D02*
X28750000Y-11150000D01*
X43030969Y-13349031D02*
X33859031Y-13349031D01*
X33859031Y-13349031D02*
X31660000Y-11150000D01*
X45830000Y-10550000D02*
X43030969Y-13349031D01*
X45960000Y-10550000D02*
X45830000Y-10550000D01*
X29970000Y-8640000D02*
X28740000Y-8640000D01*
X34179511Y-12849511D02*
X30510000Y-9180000D01*
X45010000Y-10259500D02*
X42419989Y-12849511D01*
X42419989Y-12849511D02*
X34179511Y-12849511D01*
X30510000Y-9180000D02*
X29970000Y-8640000D01*
D21*
X23390000Y-8630000D02*
X22510000Y-7750000D01*
X16000000Y-7750000D02*
X15155000Y-8595000D01*
X22510000Y-7750000D02*
X16000000Y-7750000D01*
X23450000Y-13550000D02*
X23450000Y-11150000D01*
X20000000Y-17000000D02*
X23450000Y-13550000D01*
X17750000Y-17000000D02*
X20000000Y-17000000D01*
%TA.AperFunction,Conductor*%
G36*
X51179078Y-320185D02*
G01*
X51224833Y-372989D01*
X51231651Y-424312D01*
X51240482Y-444797D01*
X52067393Y-1271708D01*
X52081113Y-1279200D01*
X52082919Y-1279071D01*
X52089426Y-1274889D01*
X52916525Y-447790D01*
X52924017Y-434070D01*
X52923965Y-433345D01*
X52938817Y-365072D01*
X52988223Y-315667D01*
X53047649Y-300500D01*
X53722869Y-300500D01*
X53789908Y-320185D01*
X53835663Y-372989D01*
X53845607Y-442147D01*
X53815019Y-507472D01*
X53788307Y-537139D01*
X53767467Y-560284D01*
X53764219Y-565910D01*
X53683111Y-706394D01*
X53672821Y-724216D01*
X53662441Y-756163D01*
X53616334Y-898065D01*
X53614326Y-904244D01*
X53614034Y-907024D01*
X53581491Y-967299D01*
X53520327Y-1001073D01*
X53506129Y-1001461D01*
X53485203Y-1010482D01*
X52658292Y-1837393D01*
X52650800Y-1851113D01*
X52650929Y-1852919D01*
X52655111Y-1859426D01*
X53482210Y-2686525D01*
X53494391Y-2693176D01*
X53501921Y-2687539D01*
X53552159Y-2605560D01*
X53556573Y-2596897D01*
X53625032Y-2431621D01*
X53668873Y-2377218D01*
X53735167Y-2355153D01*
X53802866Y-2372432D01*
X53831741Y-2396100D01*
X53894129Y-2465388D01*
X54047270Y-2576651D01*
X54053206Y-2579294D01*
X54053208Y-2579295D01*
X54090171Y-2595752D01*
X54220197Y-2653644D01*
X54262544Y-2662645D01*
X54398991Y-2691648D01*
X54398996Y-2691648D01*
X54405354Y-2693000D01*
X54594646Y-2693000D01*
X54601004Y-2691648D01*
X54601009Y-2691648D01*
X54737456Y-2662645D01*
X54779803Y-2653644D01*
X54909829Y-2595752D01*
X54946792Y-2579295D01*
X54946794Y-2579294D01*
X54952730Y-2576651D01*
X55105871Y-2465388D01*
X55165409Y-2399265D01*
X55228186Y-2329544D01*
X55228187Y-2329543D01*
X55232533Y-2324716D01*
X55327179Y-2160784D01*
X55385674Y-1980756D01*
X55400500Y-1839692D01*
X55400500Y-1045308D01*
X55385674Y-904244D01*
X55327179Y-724216D01*
X55316890Y-706394D01*
X55235781Y-565910D01*
X55232533Y-560284D01*
X55211693Y-537139D01*
X55184981Y-507472D01*
X55154751Y-444480D01*
X55163376Y-375145D01*
X55208118Y-321480D01*
X55277131Y-300500D01*
X60722869Y-300500D01*
X60789908Y-320185D01*
X60835663Y-372989D01*
X60845607Y-442147D01*
X60815019Y-507472D01*
X60788307Y-537139D01*
X60767467Y-560284D01*
X60764219Y-565910D01*
X60683111Y-706394D01*
X60672821Y-724216D01*
X60614326Y-904244D01*
X60599500Y-1045308D01*
X60599500Y-1839692D01*
X60614326Y-1980756D01*
X60672821Y-2160784D01*
X60767467Y-2324716D01*
X60771813Y-2329543D01*
X60771814Y-2329544D01*
X60834591Y-2399265D01*
X60894129Y-2465388D01*
X61047270Y-2576651D01*
X61053206Y-2579294D01*
X61053208Y-2579295D01*
X61090171Y-2595752D01*
X61220197Y-2653644D01*
X61262544Y-2662645D01*
X61398991Y-2691648D01*
X61398996Y-2691648D01*
X61405354Y-2693000D01*
X61594646Y-2693000D01*
X61601004Y-2691648D01*
X61601009Y-2691648D01*
X61737456Y-2662645D01*
X61779803Y-2653644D01*
X61909829Y-2595752D01*
X61946792Y-2579295D01*
X61946794Y-2579294D01*
X61952730Y-2576651D01*
X62105871Y-2465388D01*
X62165409Y-2399265D01*
X62228186Y-2329544D01*
X62228187Y-2329543D01*
X62232533Y-2324716D01*
X62327179Y-2160784D01*
X62385674Y-1980756D01*
X62400500Y-1839692D01*
X62400500Y-1045308D01*
X62385674Y-904244D01*
X62327179Y-724216D01*
X62316890Y-706394D01*
X62235781Y-565910D01*
X62232533Y-560284D01*
X62211693Y-537139D01*
X62184981Y-507472D01*
X62154751Y-444480D01*
X62163376Y-375145D01*
X62208118Y-321480D01*
X62277131Y-300500D01*
X65212861Y-300500D01*
X65234391Y-302384D01*
X65250000Y-305136D01*
X65259736Y-303419D01*
X65277012Y-304779D01*
X65292249Y-307192D01*
X65329147Y-319180D01*
X65349763Y-329684D01*
X65381151Y-352489D01*
X65397511Y-368849D01*
X65420316Y-400237D01*
X65430820Y-420853D01*
X65442808Y-457751D01*
X65445221Y-472988D01*
X65446581Y-490264D01*
X65444864Y-500000D01*
X65447616Y-515606D01*
X65449500Y-537139D01*
X65449500Y-8712861D01*
X65447616Y-8734391D01*
X65444864Y-8750000D01*
X65446593Y-8759803D01*
X65446749Y-8761387D01*
X65446749Y-8762270D01*
X65447057Y-8764516D01*
X65447748Y-8771534D01*
X65461083Y-8906925D01*
X65472238Y-8943697D01*
X65503528Y-9046848D01*
X65506856Y-9057820D01*
X65581188Y-9196886D01*
X65585055Y-9201598D01*
X65648754Y-9279215D01*
X65681222Y-9318778D01*
X65685929Y-9322641D01*
X65797660Y-9414336D01*
X65803114Y-9418812D01*
X65942180Y-9493144D01*
X65948003Y-9494910D01*
X65948007Y-9494912D01*
X66041476Y-9523265D01*
X66093075Y-9538917D01*
X66156805Y-9545194D01*
X66181296Y-9547606D01*
X66187601Y-9548678D01*
X66190622Y-9549883D01*
X66196915Y-9550500D01*
X66204589Y-9550500D01*
X66216741Y-9551097D01*
X66228627Y-9552267D01*
X66235485Y-9552943D01*
X66237731Y-9553251D01*
X66238613Y-9553251D01*
X66240197Y-9553407D01*
X66250000Y-9555136D01*
X66260691Y-9553251D01*
X66263849Y-9552694D01*
X66265609Y-9552384D01*
X66287139Y-9550500D01*
X70962861Y-9550500D01*
X70984391Y-9552384D01*
X71000000Y-9555136D01*
X71009736Y-9553419D01*
X71027012Y-9554779D01*
X71042249Y-9557192D01*
X71079147Y-9569180D01*
X71099763Y-9579684D01*
X71131151Y-9602489D01*
X71147511Y-9618849D01*
X71170316Y-9650237D01*
X71180820Y-9670853D01*
X71192808Y-9707751D01*
X71195221Y-9722988D01*
X71196581Y-9740264D01*
X71194864Y-9750000D01*
X71197616Y-9765606D01*
X71199500Y-9787139D01*
X71199500Y-20212861D01*
X71197616Y-20234391D01*
X71194864Y-20250000D01*
X71196581Y-20259736D01*
X71195221Y-20277012D01*
X71192808Y-20292249D01*
X71180820Y-20329147D01*
X71170316Y-20349763D01*
X71147511Y-20381151D01*
X71131151Y-20397511D01*
X71099763Y-20420316D01*
X71079147Y-20430820D01*
X71042249Y-20442808D01*
X71027012Y-20445221D01*
X71009736Y-20446581D01*
X71000000Y-20444864D01*
X70984391Y-20447616D01*
X70962861Y-20449500D01*
X537139Y-20449500D01*
X515609Y-20447616D01*
X500000Y-20444864D01*
X490264Y-20446581D01*
X472988Y-20445221D01*
X457751Y-20442808D01*
X420853Y-20430820D01*
X400237Y-20420316D01*
X368849Y-20397511D01*
X352489Y-20381151D01*
X329684Y-20349763D01*
X319180Y-20329147D01*
X307192Y-20292249D01*
X304779Y-20277012D01*
X303419Y-20259736D01*
X305136Y-20250000D01*
X302384Y-20234391D01*
X300500Y-20212861D01*
X300500Y-15876000D01*
X15194500Y-15876000D01*
X15201482Y-15940941D01*
X15212688Y-15992452D01*
X15223646Y-16030658D01*
X15280325Y-16127571D01*
X15326080Y-16180375D01*
X15370813Y-16222553D01*
X15436854Y-16256133D01*
X15464997Y-16270443D01*
X15470889Y-16273439D01*
X15476378Y-16275051D01*
X15476381Y-16275052D01*
X15490205Y-16279111D01*
X15537928Y-16293124D01*
X15624000Y-16305500D01*
X17225757Y-16305500D01*
X17292796Y-16325185D01*
X17338551Y-16377989D01*
X17348495Y-16447147D01*
X17319470Y-16510703D01*
X17307271Y-16522942D01*
X17268669Y-16556616D01*
X17268664Y-16556622D01*
X17263034Y-16561533D01*
X17172501Y-16690348D01*
X17115309Y-16837039D01*
X17094758Y-16993138D01*
X17112035Y-17149633D01*
X17166143Y-17297490D01*
X17253958Y-17428172D01*
X17291447Y-17462284D01*
X17364878Y-17529102D01*
X17364882Y-17529105D01*
X17370410Y-17534135D01*
X17508776Y-17609262D01*
X17611031Y-17636088D01*
X17653841Y-17647319D01*
X17653843Y-17647319D01*
X17661069Y-17649215D01*
X17738127Y-17650425D01*
X17811025Y-17651571D01*
X17811028Y-17651571D01*
X17818495Y-17651688D01*
X17825776Y-17650020D01*
X17825780Y-17650020D01*
X17964681Y-17618207D01*
X17971968Y-17616538D01*
X18042886Y-17580870D01*
X18105945Y-17549155D01*
X18105947Y-17549154D01*
X18112625Y-17545795D01*
X18130874Y-17530209D01*
X18194635Y-17501639D01*
X18211405Y-17500500D01*
X19930039Y-17500500D01*
X19941985Y-17501835D01*
X19942023Y-17501361D01*
X19950832Y-17502070D01*
X19959447Y-17504019D01*
X19968264Y-17503472D01*
X19968265Y-17503472D01*
X20012328Y-17500738D01*
X20020007Y-17500500D01*
X20035940Y-17500500D01*
X20040308Y-17499874D01*
X20040314Y-17499874D01*
X20046130Y-17499041D01*
X20056029Y-17498027D01*
X20088452Y-17496015D01*
X20093722Y-17495688D01*
X20102538Y-17495141D01*
X20110849Y-17492140D01*
X20113681Y-17491554D01*
X20130384Y-17487390D01*
X20133168Y-17486576D01*
X20141918Y-17485323D01*
X20184348Y-17466031D01*
X20193554Y-17462284D01*
X20229075Y-17449461D01*
X20229077Y-17449460D01*
X20237387Y-17446460D01*
X20244525Y-17441245D01*
X20247085Y-17439884D01*
X20261955Y-17431195D01*
X20264385Y-17429641D01*
X20272428Y-17425984D01*
X20307743Y-17395554D01*
X20315531Y-17389371D01*
X20326336Y-17381478D01*
X20337136Y-17370678D01*
X20343875Y-17364421D01*
X20374345Y-17338167D01*
X20374348Y-17338164D01*
X20381037Y-17332400D01*
X20385843Y-17324985D01*
X20391185Y-17318861D01*
X20400651Y-17307163D01*
X23754439Y-13953375D01*
X23763828Y-13945872D01*
X23763520Y-13945510D01*
X23770246Y-13939785D01*
X23777720Y-13935070D01*
X23812793Y-13895357D01*
X23818055Y-13889759D01*
X23829321Y-13878493D01*
X23835499Y-13870251D01*
X23841777Y-13862539D01*
X23866774Y-13834235D01*
X23866774Y-13834234D01*
X23872623Y-13827612D01*
X23876379Y-13819613D01*
X23877971Y-13817189D01*
X23886854Y-13802405D01*
X23888229Y-13799893D01*
X23893527Y-13792824D01*
X23896627Y-13784554D01*
X23896630Y-13784549D01*
X23909892Y-13749173D01*
X23913750Y-13740016D01*
X23933553Y-13697837D01*
X23934912Y-13689107D01*
X23935756Y-13686347D01*
X23940129Y-13669678D01*
X23940750Y-13666855D01*
X23943852Y-13658580D01*
X23947306Y-13612097D01*
X23948439Y-13602227D01*
X23950500Y-13588991D01*
X23950500Y-13573715D01*
X23950841Y-13564526D01*
X23953821Y-13524418D01*
X23954476Y-13515608D01*
X23952632Y-13506968D01*
X23952078Y-13498846D01*
X23950500Y-13483894D01*
X23950500Y-11608212D01*
X23973800Y-11535855D01*
X24024224Y-11465683D01*
X24082950Y-11319598D01*
X24084793Y-11306649D01*
X24104562Y-11167744D01*
X24104562Y-11167740D01*
X24105134Y-11163723D01*
X24105278Y-11150000D01*
X24098131Y-11090941D01*
X24087262Y-11001119D01*
X24087261Y-11001115D01*
X24086363Y-10993694D01*
X24061646Y-10928282D01*
X24033354Y-10853408D01*
X24033352Y-10853405D01*
X24030710Y-10846412D01*
X23984455Y-10779111D01*
X23945768Y-10722821D01*
X23945765Y-10722818D01*
X23941531Y-10716657D01*
X23865261Y-10648703D01*
X23829559Y-10616893D01*
X23829558Y-10616892D01*
X23823976Y-10611919D01*
X23684831Y-10538245D01*
X23580484Y-10512035D01*
X23539378Y-10501710D01*
X23532128Y-10499889D01*
X23450329Y-10499461D01*
X23382158Y-10499104D01*
X23382157Y-10499104D01*
X23374684Y-10499065D01*
X23367421Y-10500809D01*
X23367418Y-10500809D01*
X23298136Y-10517442D01*
X23221588Y-10535820D01*
X23081679Y-10608032D01*
X23076048Y-10612945D01*
X23076047Y-10612945D01*
X23064952Y-10622624D01*
X22963034Y-10711533D01*
X22872501Y-10840348D01*
X22869785Y-10847313D01*
X22869785Y-10847314D01*
X22853725Y-10888506D01*
X22815309Y-10987039D01*
X22794758Y-11143138D01*
X22795578Y-11150566D01*
X22795578Y-11150568D01*
X22797324Y-11166385D01*
X22812035Y-11299633D01*
X22866143Y-11447490D01*
X22899200Y-11496683D01*
X22928421Y-11540169D01*
X22949500Y-11609330D01*
X22949500Y-13291324D01*
X22929815Y-13358363D01*
X22913181Y-13379005D01*
X20008372Y-16283814D01*
X19947049Y-16317299D01*
X19877357Y-16312315D01*
X19821424Y-16270443D01*
X19797007Y-16204979D01*
X19797953Y-16178489D01*
X19802018Y-16150218D01*
X19804871Y-16130377D01*
X19804871Y-16130372D01*
X19805500Y-16126000D01*
X19805500Y-14624000D01*
X19798518Y-14559059D01*
X19787312Y-14507548D01*
X19776354Y-14469342D01*
X19719675Y-14372429D01*
X19673920Y-14319625D01*
X19653738Y-14300596D01*
X19635640Y-14283531D01*
X19635638Y-14283530D01*
X19629187Y-14277447D01*
X19563146Y-14243867D01*
X19534215Y-14229156D01*
X19534213Y-14229155D01*
X19529111Y-14226561D01*
X19523622Y-14224949D01*
X19523619Y-14224948D01*
X19481354Y-14212538D01*
X19462072Y-14206876D01*
X19376000Y-14194500D01*
X17801362Y-14194500D01*
X17799724Y-14194588D01*
X17799717Y-14194588D01*
X17770381Y-14196161D01*
X17770380Y-14196161D01*
X17768703Y-14196251D01*
X17767032Y-14196431D01*
X17767028Y-14196431D01*
X17752953Y-14197944D01*
X17742345Y-14199085D01*
X17736543Y-14200902D01*
X17736537Y-14200903D01*
X17634405Y-14232883D01*
X17628593Y-14234703D01*
X17567270Y-14268188D01*
X17497660Y-14320298D01*
X17409777Y-14408181D01*
X17348454Y-14441666D01*
X17322096Y-14444500D01*
X15624000Y-14444500D01*
X15583094Y-14448898D01*
X15562369Y-14451126D01*
X15562367Y-14451126D01*
X15559059Y-14451482D01*
X15507548Y-14462688D01*
X15469342Y-14473646D01*
X15372429Y-14530325D01*
X15319625Y-14576080D01*
X15277447Y-14620813D01*
X15226561Y-14720889D01*
X15206876Y-14787928D01*
X15194500Y-14874000D01*
X15194500Y-15876000D01*
X300500Y-15876000D01*
X300500Y-8588138D01*
X14499758Y-8588138D01*
X14500578Y-8595566D01*
X14500578Y-8595568D01*
X14512207Y-8700903D01*
X14517035Y-8744633D01*
X14519601Y-8751645D01*
X14519602Y-8751649D01*
X14539265Y-8805379D01*
X14571143Y-8892490D01*
X14575314Y-8898697D01*
X14654424Y-9016424D01*
X14658958Y-9023172D01*
X14713693Y-9072977D01*
X14769878Y-9124102D01*
X14769882Y-9124105D01*
X14775410Y-9129135D01*
X14781980Y-9132702D01*
X14781981Y-9132703D01*
X14890288Y-9191509D01*
X14913776Y-9204262D01*
X15066069Y-9244215D01*
X15073546Y-9244332D01*
X15080952Y-9245347D01*
X15080756Y-9246776D01*
X15139583Y-9265062D01*
X15184500Y-9318580D01*
X15194048Y-9374000D01*
X15194500Y-9374000D01*
X15194500Y-10376000D01*
X15201482Y-10440941D01*
X15212688Y-10492452D01*
X15223646Y-10530658D01*
X15280325Y-10627571D01*
X15326080Y-10680375D01*
X15328353Y-10682518D01*
X15363754Y-10715897D01*
X15370813Y-10722553D01*
X15470889Y-10773439D01*
X15476378Y-10775051D01*
X15476381Y-10775052D01*
X15490205Y-10779111D01*
X15537928Y-10793124D01*
X15624000Y-10805500D01*
X17322096Y-10805500D01*
X17389135Y-10825185D01*
X17409777Y-10841819D01*
X17497660Y-10929702D01*
X17498894Y-10930811D01*
X17498902Y-10930818D01*
X17517480Y-10947505D01*
X17521992Y-10951558D01*
X17542634Y-10968192D01*
X17548027Y-10971013D01*
X17548030Y-10971015D01*
X17615063Y-11006079D01*
X17648251Y-11023439D01*
X17654089Y-11025153D01*
X17654091Y-11025154D01*
X17658178Y-11026354D01*
X17715290Y-11043124D01*
X17801362Y-11055500D01*
X18876000Y-11055500D01*
X18916906Y-11051102D01*
X18937631Y-11048874D01*
X18937633Y-11048874D01*
X18940941Y-11048518D01*
X18992452Y-11037312D01*
X19030658Y-11026354D01*
X19127571Y-10969675D01*
X19180375Y-10923920D01*
X19211910Y-10890475D01*
X19216469Y-10885640D01*
X19216470Y-10885638D01*
X19222553Y-10879187D01*
X19265191Y-10795333D01*
X19270844Y-10784215D01*
X19270845Y-10784213D01*
X19273439Y-10779111D01*
X19275105Y-10773439D01*
X19288866Y-10726573D01*
X19293124Y-10712072D01*
X19305500Y-10626000D01*
X19305500Y-9124000D01*
X19298518Y-9059059D01*
X19287312Y-9007548D01*
X19276354Y-8969342D01*
X19219675Y-8872429D01*
X19173920Y-8819625D01*
X19144835Y-8792201D01*
X19135640Y-8783531D01*
X19135638Y-8783530D01*
X19129187Y-8777447D01*
X19054194Y-8739315D01*
X19034215Y-8729156D01*
X19034213Y-8729155D01*
X19029111Y-8726561D01*
X19023622Y-8724949D01*
X19023619Y-8724948D01*
X18982454Y-8712861D01*
X18962072Y-8706876D01*
X18876000Y-8694500D01*
X17801362Y-8694500D01*
X17799724Y-8694588D01*
X17799717Y-8694588D01*
X17770381Y-8696161D01*
X17770380Y-8696161D01*
X17768703Y-8696251D01*
X17767032Y-8696431D01*
X17767028Y-8696431D01*
X17752953Y-8697944D01*
X17742345Y-8699085D01*
X17736543Y-8700902D01*
X17736537Y-8700903D01*
X17646308Y-8729156D01*
X17628593Y-8734703D01*
X17623247Y-8737622D01*
X17623245Y-8737623D01*
X17600579Y-8750000D01*
X17567270Y-8768188D01*
X17497660Y-8820298D01*
X17409777Y-8908181D01*
X17348454Y-8941666D01*
X17322096Y-8944500D01*
X15899122Y-8944500D01*
X15832083Y-8924815D01*
X15786328Y-8872011D01*
X15776384Y-8802853D01*
X15784072Y-8774246D01*
X15785162Y-8771534D01*
X15785163Y-8771532D01*
X15787950Y-8764598D01*
X15790792Y-8744633D01*
X15797841Y-8695100D01*
X15826775Y-8631503D01*
X15832923Y-8624891D01*
X16170995Y-8286819D01*
X16232318Y-8253334D01*
X16258676Y-8250500D01*
X22251324Y-8250500D01*
X22318363Y-8270185D01*
X22339005Y-8286819D01*
X22711342Y-8659155D01*
X22744827Y-8720478D01*
X22746912Y-8733229D01*
X22750772Y-8768188D01*
X22752035Y-8779633D01*
X22806143Y-8927490D01*
X22893958Y-9058172D01*
X22940209Y-9100257D01*
X23004878Y-9159102D01*
X23004882Y-9159105D01*
X23010410Y-9164135D01*
X23016980Y-9167702D01*
X23016981Y-9167703D01*
X23142195Y-9235689D01*
X23148776Y-9239262D01*
X23214629Y-9256538D01*
X23293841Y-9277319D01*
X23293843Y-9277319D01*
X23301069Y-9279215D01*
X23378127Y-9280425D01*
X23451025Y-9281571D01*
X23451028Y-9281571D01*
X23458495Y-9281688D01*
X23465776Y-9280020D01*
X23465780Y-9280020D01*
X23604681Y-9248207D01*
X23611968Y-9246538D01*
X23752625Y-9175795D01*
X23758306Y-9170943D01*
X23758309Y-9170941D01*
X23866666Y-9078395D01*
X23866667Y-9078394D01*
X23872348Y-9073542D01*
X23883393Y-9058172D01*
X23906099Y-9026572D01*
X23964224Y-8945683D01*
X24022950Y-8799598D01*
X24024003Y-8792201D01*
X24044562Y-8647744D01*
X24044562Y-8647740D01*
X24045134Y-8643723D01*
X24045278Y-8630000D01*
X24043649Y-8616538D01*
X24027262Y-8481119D01*
X24027261Y-8481115D01*
X24026363Y-8473694D01*
X23998220Y-8399215D01*
X23973354Y-8333408D01*
X23973352Y-8333405D01*
X23970710Y-8326412D01*
X23950832Y-8297490D01*
X23885768Y-8202821D01*
X23885765Y-8202818D01*
X23881531Y-8196657D01*
X23820416Y-8142205D01*
X23769559Y-8096893D01*
X23769558Y-8096892D01*
X23763976Y-8091919D01*
X23624831Y-8018245D01*
X23472749Y-7980045D01*
X23415276Y-7947462D01*
X22913375Y-7445561D01*
X22905872Y-7436172D01*
X22905510Y-7436480D01*
X22899785Y-7429754D01*
X22895070Y-7422280D01*
X22855357Y-7387207D01*
X22849759Y-7381945D01*
X22838494Y-7370680D01*
X22830262Y-7364510D01*
X22822543Y-7358227D01*
X22821939Y-7357693D01*
X22787612Y-7327377D01*
X22779616Y-7323623D01*
X22777211Y-7322043D01*
X22762429Y-7313160D01*
X22759892Y-7311771D01*
X22752824Y-7306474D01*
X22709187Y-7290115D01*
X22700032Y-7286258D01*
X22657837Y-7266447D01*
X22649103Y-7265087D01*
X22646325Y-7264238D01*
X22629678Y-7259870D01*
X22626848Y-7259248D01*
X22618580Y-7256148D01*
X22609776Y-7255494D01*
X22609773Y-7255493D01*
X22581602Y-7253400D01*
X22572097Y-7252694D01*
X22562227Y-7251561D01*
X22548991Y-7249500D01*
X22533715Y-7249500D01*
X22524526Y-7249159D01*
X22524476Y-7249155D01*
X22475608Y-7245524D01*
X22466968Y-7247368D01*
X22458846Y-7247922D01*
X22443894Y-7249500D01*
X16069952Y-7249500D01*
X16058011Y-7248166D01*
X16057973Y-7248640D01*
X16049167Y-7247931D01*
X16040552Y-7245982D01*
X15997707Y-7248640D01*
X15987680Y-7249262D01*
X15980002Y-7249500D01*
X15964060Y-7249500D01*
X15959681Y-7250127D01*
X15953867Y-7250959D01*
X15943973Y-7251973D01*
X15925196Y-7253138D01*
X15897461Y-7254859D01*
X15889152Y-7257858D01*
X15886305Y-7258448D01*
X15869600Y-7262613D01*
X15866823Y-7263425D01*
X15858082Y-7264677D01*
X15850043Y-7268332D01*
X15850040Y-7268333D01*
X15815657Y-7283966D01*
X15806439Y-7287719D01*
X15762613Y-7303540D01*
X15755477Y-7308753D01*
X15752923Y-7310111D01*
X15738052Y-7318800D01*
X15735613Y-7320360D01*
X15727572Y-7324016D01*
X15692240Y-7354460D01*
X15684483Y-7360619D01*
X15673664Y-7368523D01*
X15662871Y-7379316D01*
X15656132Y-7385573D01*
X15618963Y-7417600D01*
X15614158Y-7425013D01*
X15608809Y-7431144D01*
X15599346Y-7442841D01*
X15128675Y-7913511D01*
X15069941Y-7946404D01*
X14926588Y-7980820D01*
X14786679Y-8053032D01*
X14668034Y-8156533D01*
X14577501Y-8285348D01*
X14574785Y-8292313D01*
X14574785Y-8292314D01*
X14563307Y-8321754D01*
X14520309Y-8432039D01*
X14499758Y-8588138D01*
X300500Y-8588138D01*
X300500Y-2243138D01*
X12594758Y-2243138D01*
X12595578Y-2250566D01*
X12595578Y-2250568D01*
X12603764Y-2324716D01*
X12612035Y-2399633D01*
X12614601Y-2406645D01*
X12614602Y-2406649D01*
X12622311Y-2427714D01*
X12666143Y-2547490D01*
X12753958Y-2678172D01*
X12776427Y-2698617D01*
X12864878Y-2779102D01*
X12864882Y-2779105D01*
X12870410Y-2784135D01*
X12876980Y-2787702D01*
X12876981Y-2787703D01*
X13002208Y-2855696D01*
X13008776Y-2859262D01*
X13092552Y-2881240D01*
X13153841Y-2897319D01*
X13153843Y-2897319D01*
X13161069Y-2899215D01*
X13207381Y-2899943D01*
X13213507Y-2900039D01*
X13280229Y-2920775D01*
X13299240Y-2936343D01*
X17157333Y-6794436D01*
X17167031Y-6805349D01*
X17188128Y-6832110D01*
X17195753Y-6837380D01*
X17195754Y-6837381D01*
X17236397Y-6865471D01*
X17239566Y-6867735D01*
X17286817Y-6902635D01*
X17293634Y-6905029D01*
X17299569Y-6909131D01*
X17308408Y-6911926D01*
X17308409Y-6911927D01*
X17355519Y-6926826D01*
X17359162Y-6928041D01*
X17414631Y-6947520D01*
X17421733Y-6947799D01*
X17421995Y-6947851D01*
X17428730Y-6949980D01*
X17435337Y-6950500D01*
X17488043Y-6950500D01*
X17492912Y-6950596D01*
X17549994Y-6952839D01*
X17557078Y-6950960D01*
X17565443Y-6950500D01*
X23262035Y-6950500D01*
X23329074Y-6970185D01*
X23349716Y-6986819D01*
X25763181Y-9400284D01*
X25796666Y-9461607D01*
X25799500Y-9487965D01*
X25799500Y-10715897D01*
X25798641Y-10730471D01*
X25794636Y-10764310D01*
X25800302Y-10795333D01*
X25805176Y-10822022D01*
X25805816Y-10825864D01*
X25814551Y-10883962D01*
X25817679Y-10890475D01*
X25818975Y-10897573D01*
X25823248Y-10905799D01*
X25846033Y-10949663D01*
X25847769Y-10953137D01*
X25873191Y-11006079D01*
X25878016Y-11011299D01*
X25878165Y-11011520D01*
X25881421Y-11017788D01*
X25885725Y-11022828D01*
X25922994Y-11060097D01*
X25926369Y-11063607D01*
X25958853Y-11098749D01*
X25958856Y-11098751D01*
X25965146Y-11105556D01*
X25971484Y-11109237D01*
X25977725Y-11114828D01*
X27657333Y-12794436D01*
X27667031Y-12805349D01*
X27688128Y-12832110D01*
X27695753Y-12837380D01*
X27695754Y-12837381D01*
X27736397Y-12865471D01*
X27739566Y-12867735D01*
X27786817Y-12902635D01*
X27793634Y-12905029D01*
X27799569Y-12909131D01*
X27808408Y-12911926D01*
X27808409Y-12911927D01*
X27855519Y-12926826D01*
X27859162Y-12928041D01*
X27914631Y-12947520D01*
X27921733Y-12947799D01*
X27921995Y-12947851D01*
X27928730Y-12949980D01*
X27935337Y-12950500D01*
X27988059Y-12950500D01*
X27992926Y-12950596D01*
X28049994Y-12952838D01*
X28057075Y-12950960D01*
X28065438Y-12950500D01*
X32002035Y-12950500D01*
X32069074Y-12970185D01*
X32089716Y-12986819D01*
X33247333Y-14144436D01*
X33257031Y-14155349D01*
X33278128Y-14182110D01*
X33326446Y-14215505D01*
X33329546Y-14217719D01*
X33376816Y-14252634D01*
X33383632Y-14255027D01*
X33389569Y-14259131D01*
X33426608Y-14270845D01*
X33445516Y-14276825D01*
X33449209Y-14278057D01*
X33495884Y-14294448D01*
X33495888Y-14294449D01*
X33504631Y-14297519D01*
X33511735Y-14297798D01*
X33511986Y-14297847D01*
X33518730Y-14299980D01*
X33525337Y-14300500D01*
X33578068Y-14300500D01*
X33582937Y-14300596D01*
X33639994Y-14302838D01*
X33647076Y-14300960D01*
X33655435Y-14300500D01*
X44085141Y-14300500D01*
X44099715Y-14301359D01*
X44124349Y-14304275D01*
X44124352Y-14304275D01*
X44133554Y-14305364D01*
X44179860Y-14296907D01*
X44191266Y-14294824D01*
X44195108Y-14294184D01*
X44228261Y-14289199D01*
X44253206Y-14285449D01*
X44259719Y-14282321D01*
X44266817Y-14281025D01*
X44291530Y-14268188D01*
X44318907Y-14253967D01*
X44322390Y-14252227D01*
X44375323Y-14226809D01*
X44380543Y-14221984D01*
X44380764Y-14221835D01*
X44387032Y-14218579D01*
X44392072Y-14214275D01*
X44429341Y-14177006D01*
X44432851Y-14173631D01*
X44467993Y-14141147D01*
X44467995Y-14141144D01*
X44474800Y-14134854D01*
X44478481Y-14128516D01*
X44484072Y-14122275D01*
X45904443Y-12701904D01*
X45965766Y-12668419D01*
X45994071Y-12665600D01*
X46015896Y-12665943D01*
X46015899Y-12665943D01*
X46023367Y-12666060D01*
X46030648Y-12664392D01*
X46030652Y-12664392D01*
X46169553Y-12632579D01*
X46176840Y-12630910D01*
X46317497Y-12560167D01*
X46323178Y-12555315D01*
X46323181Y-12555313D01*
X46431538Y-12462767D01*
X46431539Y-12462766D01*
X46437220Y-12457914D01*
X46529096Y-12330055D01*
X46587822Y-12183970D01*
X46590168Y-12167486D01*
X46609434Y-12032116D01*
X46609434Y-12032112D01*
X46610006Y-12028095D01*
X46610150Y-12014372D01*
X46591235Y-11858066D01*
X46568281Y-11797319D01*
X46538226Y-11717780D01*
X46538224Y-11717777D01*
X46535582Y-11710784D01*
X46519719Y-11687703D01*
X46450640Y-11587193D01*
X46450637Y-11587190D01*
X46446403Y-11581029D01*
X46395699Y-11535853D01*
X46334431Y-11481265D01*
X46334430Y-11481264D01*
X46328848Y-11476291D01*
X46189703Y-11402617D01*
X46182457Y-11400797D01*
X46177304Y-11398819D01*
X46121771Y-11356417D01*
X46097978Y-11290724D01*
X46113479Y-11222595D01*
X46163353Y-11173662D01*
X46176657Y-11167754D01*
X46181968Y-11166538D01*
X46322625Y-11095795D01*
X46328306Y-11090943D01*
X46328309Y-11090941D01*
X46436666Y-10998395D01*
X46436667Y-10998394D01*
X46442348Y-10993542D01*
X46452027Y-10980073D01*
X46494010Y-10921647D01*
X46534224Y-10865683D01*
X46592950Y-10719598D01*
X46594797Y-10706620D01*
X46614562Y-10567744D01*
X46614562Y-10567740D01*
X46615134Y-10563723D01*
X46615278Y-10550000D01*
X46613873Y-10538393D01*
X46597262Y-10401119D01*
X46597261Y-10401115D01*
X46596363Y-10393694D01*
X46556268Y-10287584D01*
X46543354Y-10253408D01*
X46543352Y-10253405D01*
X46540710Y-10246412D01*
X46512066Y-10204735D01*
X46490316Y-10138336D01*
X46507917Y-10070720D01*
X46559281Y-10023353D01*
X46614257Y-10010500D01*
X47109903Y-10010500D01*
X47176942Y-10030185D01*
X47197584Y-10046819D01*
X50878251Y-13727487D01*
X50907018Y-13772555D01*
X50916143Y-13797490D01*
X51003958Y-13928172D01*
X51026183Y-13948395D01*
X51114878Y-14029102D01*
X51114882Y-14029105D01*
X51120410Y-14034135D01*
X51258776Y-14109262D01*
X51326253Y-14126964D01*
X51403841Y-14147319D01*
X51403843Y-14147319D01*
X51411069Y-14149215D01*
X51488127Y-14150425D01*
X51561025Y-14151571D01*
X51561028Y-14151571D01*
X51568495Y-14151688D01*
X51575776Y-14150020D01*
X51575780Y-14150020D01*
X51714681Y-14118207D01*
X51721968Y-14116538D01*
X51862625Y-14045795D01*
X51868306Y-14040943D01*
X51868309Y-14040941D01*
X51976666Y-13948395D01*
X51976667Y-13948394D01*
X51982348Y-13943542D01*
X51993393Y-13928172D01*
X52069861Y-13821755D01*
X52069862Y-13821754D01*
X52074224Y-13815683D01*
X52092114Y-13771181D01*
X52119484Y-13729751D01*
X54891035Y-10958200D01*
X54903230Y-10947505D01*
X54921835Y-10933229D01*
X54928282Y-10928282D01*
X55024536Y-10802841D01*
X55054513Y-10730471D01*
X55081934Y-10664271D01*
X55081935Y-10664269D01*
X55085044Y-10656762D01*
X55092699Y-10598615D01*
X55105682Y-10500000D01*
X55101561Y-10468698D01*
X55100500Y-10452513D01*
X55100500Y-7259811D01*
X55109448Y-7213560D01*
X55130163Y-7162030D01*
X55132950Y-7155098D01*
X55146225Y-7061822D01*
X55154562Y-7003244D01*
X55154562Y-7003240D01*
X55155134Y-6999223D01*
X55155278Y-6985500D01*
X55151043Y-6950500D01*
X55137262Y-6836619D01*
X55137261Y-6836615D01*
X55136363Y-6829194D01*
X55115292Y-6773431D01*
X55083354Y-6688908D01*
X55083352Y-6688905D01*
X55080710Y-6681912D01*
X55024218Y-6599716D01*
X54995768Y-6558321D01*
X54995765Y-6558318D01*
X54991531Y-6552157D01*
X54887216Y-6459215D01*
X54879559Y-6452393D01*
X54879558Y-6452392D01*
X54873976Y-6447419D01*
X54734831Y-6373745D01*
X54582128Y-6335389D01*
X54500329Y-6334961D01*
X54432158Y-6334604D01*
X54432157Y-6334604D01*
X54424684Y-6334565D01*
X54417421Y-6336309D01*
X54417418Y-6336309D01*
X54369960Y-6347703D01*
X54271588Y-6371320D01*
X54131679Y-6443532D01*
X54126048Y-6448445D01*
X54126047Y-6448445D01*
X54110866Y-6461688D01*
X54013034Y-6547033D01*
X53922501Y-6675848D01*
X53865309Y-6822539D01*
X53844758Y-6978638D01*
X53845578Y-6986066D01*
X53845578Y-6986068D01*
X53855906Y-7079620D01*
X53862035Y-7135133D01*
X53864601Y-7142145D01*
X53864602Y-7142149D01*
X53891948Y-7216874D01*
X53899500Y-7259488D01*
X53899500Y-10199903D01*
X53879815Y-10266942D01*
X53863181Y-10287584D01*
X51587681Y-12563084D01*
X51526358Y-12596569D01*
X51456666Y-12591585D01*
X51412319Y-12563084D01*
X47868200Y-9018965D01*
X47857505Y-9006770D01*
X47843229Y-8988165D01*
X47838282Y-8981718D01*
X47712841Y-8885464D01*
X47599668Y-8838586D01*
X47574271Y-8828066D01*
X47574269Y-8828065D01*
X47566762Y-8824956D01*
X47555179Y-8823431D01*
X47526269Y-8819625D01*
X47418059Y-8805379D01*
X47410000Y-8804318D01*
X47401941Y-8805379D01*
X47378698Y-8808439D01*
X47362513Y-8809500D01*
X45860825Y-8809500D01*
X45793786Y-8789815D01*
X45748031Y-8737011D01*
X45738087Y-8667853D01*
X45767112Y-8604297D01*
X45805107Y-8574723D01*
X45862625Y-8545795D01*
X45868306Y-8540943D01*
X45868309Y-8540941D01*
X45976666Y-8448395D01*
X45976667Y-8448394D01*
X45982348Y-8443542D01*
X45993393Y-8428172D01*
X46015563Y-8397319D01*
X46074224Y-8315683D01*
X46132950Y-8169598D01*
X46134793Y-8156649D01*
X46154562Y-8017744D01*
X46154562Y-8017740D01*
X46155134Y-8013723D01*
X46155278Y-8000000D01*
X46154166Y-7990809D01*
X46149772Y-7954498D01*
X46155878Y-7898517D01*
X46158095Y-7892205D01*
X46167519Y-7865369D01*
X46167798Y-7858267D01*
X46167847Y-7858011D01*
X46169980Y-7851270D01*
X46170500Y-7844663D01*
X46170500Y-7791932D01*
X46170596Y-7787063D01*
X46172474Y-7739273D01*
X46172474Y-7739272D01*
X46172838Y-7730006D01*
X46170960Y-7722922D01*
X46170500Y-7714562D01*
X46170500Y-4637172D01*
X46171359Y-4622598D01*
X46174275Y-4597964D01*
X46174275Y-4597961D01*
X46175364Y-4588759D01*
X46164824Y-4531047D01*
X46164184Y-4527205D01*
X46156827Y-4478273D01*
X46155449Y-4469107D01*
X46152321Y-4462594D01*
X46151025Y-4455496D01*
X46123967Y-4403406D01*
X46122227Y-4399923D01*
X46105352Y-4364781D01*
X46096809Y-4346990D01*
X46091984Y-4341770D01*
X46091835Y-4341549D01*
X46088579Y-4335281D01*
X46084275Y-4330241D01*
X46047006Y-4292972D01*
X46043631Y-4289462D01*
X46011147Y-4254320D01*
X46011144Y-4254318D01*
X46004854Y-4247513D01*
X45998516Y-4243832D01*
X45992275Y-4238241D01*
X44946819Y-3192785D01*
X44913334Y-3131462D01*
X44910500Y-3105104D01*
X44910500Y-2989109D01*
X44930185Y-2922070D01*
X44973907Y-2880922D01*
X45114442Y-2802219D01*
X45142238Y-2779102D01*
X45272645Y-2670644D01*
X45277012Y-2667012D01*
X45329049Y-2604444D01*
X45408584Y-2508813D01*
X45408585Y-2508811D01*
X45412219Y-2504442D01*
X45483468Y-2377218D01*
X45512756Y-2324922D01*
X45512759Y-2324916D01*
X45515537Y-2319955D01*
X45539284Y-2250000D01*
X45581675Y-2125118D01*
X45581676Y-2125115D01*
X45583504Y-2119730D01*
X45596471Y-2030300D01*
X45607820Y-1952033D01*
X45636921Y-1888512D01*
X45690225Y-1854346D01*
X45770974Y-1854346D01*
X45824347Y-1888736D01*
X45853296Y-1952327D01*
X45854271Y-1961707D01*
X45858796Y-2030749D01*
X45910845Y-2235690D01*
X45913219Y-2240841D01*
X45913221Y-2240845D01*
X45989658Y-2406649D01*
X45999369Y-2427714D01*
X46002647Y-2432352D01*
X46117669Y-2595104D01*
X46121405Y-2600391D01*
X46125476Y-2604357D01*
X46125477Y-2604358D01*
X46185310Y-2662645D01*
X46272865Y-2747937D01*
X46277588Y-2751093D01*
X46277592Y-2751096D01*
X46327039Y-2784135D01*
X46448677Y-2865411D01*
X46642953Y-2948878D01*
X46678277Y-2956871D01*
X46843638Y-2994289D01*
X46843642Y-2994290D01*
X46849186Y-2995544D01*
X46975315Y-3000500D01*
X47054789Y-3003623D01*
X47054791Y-3003623D01*
X47060470Y-3003846D01*
X47066090Y-3003031D01*
X47066092Y-3003031D01*
X47264103Y-2974320D01*
X47264104Y-2974320D01*
X47269730Y-2973504D01*
X47358476Y-2943379D01*
X47428283Y-2940469D01*
X47486014Y-2973117D01*
X48513181Y-4000284D01*
X48546666Y-4061607D01*
X48549500Y-4087965D01*
X48549500Y-6715897D01*
X48548641Y-6730471D01*
X48544636Y-6764310D01*
X48546302Y-6773431D01*
X48555176Y-6822022D01*
X48555816Y-6825864D01*
X48564551Y-6883962D01*
X48567679Y-6890475D01*
X48568975Y-6897573D01*
X48573248Y-6905799D01*
X48596033Y-6949663D01*
X48597769Y-6953137D01*
X48623191Y-7006079D01*
X48628016Y-7011299D01*
X48628165Y-7011520D01*
X48631421Y-7017788D01*
X48635725Y-7022828D01*
X48672994Y-7060097D01*
X48676369Y-7063607D01*
X48708853Y-7098749D01*
X48708856Y-7098751D01*
X48715146Y-7105556D01*
X48721484Y-7109237D01*
X48727725Y-7114828D01*
X49312567Y-7699670D01*
X49346052Y-7760993D01*
X49348137Y-7773742D01*
X49362035Y-7899633D01*
X49364601Y-7906645D01*
X49364602Y-7906649D01*
X49391462Y-7980045D01*
X49416143Y-8047490D01*
X49423709Y-8058750D01*
X49484781Y-8149633D01*
X49503958Y-8178172D01*
X49531047Y-8202821D01*
X49614878Y-8279102D01*
X49614882Y-8279105D01*
X49620410Y-8284135D01*
X49626980Y-8287702D01*
X49626981Y-8287703D01*
X49752208Y-8355696D01*
X49758776Y-8359262D01*
X49861031Y-8386088D01*
X49903841Y-8397319D01*
X49903843Y-8397319D01*
X49911069Y-8399215D01*
X49988127Y-8400425D01*
X50061025Y-8401571D01*
X50061028Y-8401571D01*
X50068495Y-8401688D01*
X50075776Y-8400020D01*
X50075780Y-8400020D01*
X50214681Y-8368207D01*
X50221968Y-8366538D01*
X50362625Y-8295795D01*
X50368306Y-8290943D01*
X50368309Y-8290941D01*
X50476666Y-8198395D01*
X50476667Y-8198394D01*
X50482348Y-8193542D01*
X50486933Y-8187162D01*
X50519237Y-8142205D01*
X50574224Y-8065683D01*
X50632950Y-7919598D01*
X50634793Y-7906649D01*
X50654562Y-7767744D01*
X50654562Y-7767740D01*
X50655134Y-7763723D01*
X50655278Y-7750000D01*
X50653242Y-7733173D01*
X50637262Y-7601119D01*
X50637261Y-7601115D01*
X50636363Y-7593694D01*
X50593320Y-7479783D01*
X50583354Y-7453408D01*
X50583352Y-7453405D01*
X50580710Y-7446412D01*
X50571894Y-7433585D01*
X50495768Y-7322821D01*
X50495765Y-7322818D01*
X50491531Y-7316657D01*
X50439391Y-7270202D01*
X50379559Y-7216893D01*
X50379558Y-7216892D01*
X50373976Y-7211919D01*
X50234831Y-7138245D01*
X50105410Y-7105737D01*
X50089378Y-7101710D01*
X50082128Y-7099889D01*
X50048826Y-7099715D01*
X50037473Y-7099655D01*
X49970538Y-7079620D01*
X49950442Y-7063338D01*
X49486819Y-6599716D01*
X49453334Y-6538393D01*
X49450500Y-6512035D01*
X49450500Y-3884102D01*
X49451359Y-3869528D01*
X49454275Y-3844894D01*
X49454275Y-3844891D01*
X49455364Y-3835689D01*
X49444821Y-3777962D01*
X49444181Y-3774121D01*
X49436827Y-3725205D01*
X49435449Y-3716038D01*
X49432321Y-3709525D01*
X49431025Y-3702427D01*
X49407260Y-3656676D01*
X49403967Y-3650337D01*
X49402227Y-3646854D01*
X49376809Y-3593921D01*
X49371984Y-3588701D01*
X49371835Y-3588480D01*
X49368579Y-3582212D01*
X49364275Y-3577172D01*
X49327006Y-3539903D01*
X49323631Y-3536393D01*
X49291147Y-3501251D01*
X49291144Y-3501249D01*
X49284854Y-3494444D01*
X49278516Y-3490763D01*
X49272275Y-3485172D01*
X48855690Y-3068587D01*
X48822205Y-3007264D01*
X48827189Y-2937572D01*
X48869061Y-2881639D01*
X48934525Y-2857222D01*
X48992319Y-2866976D01*
X49062945Y-2897319D01*
X49182953Y-2948878D01*
X49218277Y-2956871D01*
X49383638Y-2994289D01*
X49383642Y-2994290D01*
X49389186Y-2995544D01*
X49515315Y-3000500D01*
X49594789Y-3003623D01*
X49594791Y-3003623D01*
X49600470Y-3003846D01*
X49606090Y-3003031D01*
X49606092Y-3003031D01*
X49804103Y-2974320D01*
X49804104Y-2974320D01*
X49809730Y-2973504D01*
X49898476Y-2943379D01*
X49968283Y-2940469D01*
X50026014Y-2973117D01*
X50163181Y-3110284D01*
X50196666Y-3171607D01*
X50199500Y-3197965D01*
X50199500Y-5284777D01*
X50179815Y-5351816D01*
X50168204Y-5367023D01*
X50163034Y-5371533D01*
X50072501Y-5500348D01*
X50015309Y-5647039D01*
X49994758Y-5803138D01*
X49995578Y-5810566D01*
X49995578Y-5810568D01*
X49997474Y-5827744D01*
X50012035Y-5959633D01*
X50066143Y-6107490D01*
X50153958Y-6238172D01*
X50176183Y-6258395D01*
X50264878Y-6339102D01*
X50264882Y-6339105D01*
X50270410Y-6344135D01*
X50276980Y-6347702D01*
X50276981Y-6347703D01*
X50326790Y-6374747D01*
X50408776Y-6419262D01*
X50502771Y-6443921D01*
X50553841Y-6457319D01*
X50553843Y-6457319D01*
X50561069Y-6459215D01*
X50638127Y-6460425D01*
X50711025Y-6461571D01*
X50711028Y-6461571D01*
X50718495Y-6461688D01*
X50725776Y-6460020D01*
X50725780Y-6460020D01*
X50864681Y-6428207D01*
X50871968Y-6426538D01*
X51012625Y-6355795D01*
X51018306Y-6350943D01*
X51018309Y-6350941D01*
X51126666Y-6258395D01*
X51126667Y-6258394D01*
X51132348Y-6253542D01*
X51143393Y-6238172D01*
X51205663Y-6151513D01*
X51224224Y-6125683D01*
X51282950Y-5979598D01*
X51284793Y-5966649D01*
X51304562Y-5827744D01*
X51304562Y-5827740D01*
X51305134Y-5823723D01*
X51305278Y-5810000D01*
X51286363Y-5653694D01*
X51230710Y-5506412D01*
X51222337Y-5494229D01*
X51145768Y-5382821D01*
X51145765Y-5382818D01*
X51141531Y-5376657D01*
X51135945Y-5371680D01*
X51131488Y-5366625D01*
X51101918Y-5303321D01*
X51100500Y-5284620D01*
X51100500Y-4128113D01*
X54469638Y-4128113D01*
X54486467Y-4328518D01*
X54541901Y-4521838D01*
X54544674Y-4527233D01*
X54544674Y-4527234D01*
X54586138Y-4607914D01*
X54633828Y-4700710D01*
X54758748Y-4858319D01*
X54911901Y-4988663D01*
X55087456Y-5086777D01*
X55278723Y-5148924D01*
X55284741Y-5149642D01*
X55284743Y-5149642D01*
X55428666Y-5166803D01*
X55478420Y-5172736D01*
X55484464Y-5172271D01*
X55484465Y-5172271D01*
X55544766Y-5167631D01*
X55678938Y-5157307D01*
X55807677Y-5121362D01*
X55866799Y-5104855D01*
X55866800Y-5104854D01*
X55872640Y-5103224D01*
X56052149Y-5012548D01*
X56210627Y-4888732D01*
X56342037Y-4736492D01*
X56441374Y-4561627D01*
X56494007Y-4403406D01*
X56502941Y-4376549D01*
X56502942Y-4376545D01*
X56504854Y-4370797D01*
X56519569Y-4254320D01*
X56529625Y-4174716D01*
X56529625Y-4174715D01*
X56530060Y-4171272D01*
X56530462Y-4142500D01*
X56529051Y-4128113D01*
X59469638Y-4128113D01*
X59486467Y-4328518D01*
X59541901Y-4521838D01*
X59544674Y-4527233D01*
X59544674Y-4527234D01*
X59586138Y-4607914D01*
X59633828Y-4700710D01*
X59758748Y-4858319D01*
X59911901Y-4988663D01*
X60087456Y-5086777D01*
X60278723Y-5148924D01*
X60284741Y-5149642D01*
X60284743Y-5149642D01*
X60428666Y-5166803D01*
X60478420Y-5172736D01*
X60484464Y-5172271D01*
X60484465Y-5172271D01*
X60544766Y-5167631D01*
X60678938Y-5157307D01*
X60807677Y-5121362D01*
X60866799Y-5104855D01*
X60866800Y-5104854D01*
X60872640Y-5103224D01*
X61052149Y-5012548D01*
X61210627Y-4888732D01*
X61342037Y-4736492D01*
X61441374Y-4561627D01*
X61494007Y-4403406D01*
X61502941Y-4376549D01*
X61502942Y-4376545D01*
X61504854Y-4370797D01*
X61519569Y-4254320D01*
X61529625Y-4174716D01*
X61529625Y-4174715D01*
X61530060Y-4171272D01*
X61530462Y-4142500D01*
X61516518Y-4000284D01*
X61511429Y-3948385D01*
X61511429Y-3948383D01*
X61510837Y-3942349D01*
X61452710Y-3749821D01*
X61448734Y-3742342D01*
X61361143Y-3577609D01*
X61361143Y-3577608D01*
X61358294Y-3572251D01*
X61231186Y-3416401D01*
X61076227Y-3288208D01*
X61061502Y-3280246D01*
X60904658Y-3195441D01*
X60904656Y-3195440D01*
X60899320Y-3192555D01*
X60707203Y-3133085D01*
X60507194Y-3112063D01*
X60501161Y-3112612D01*
X60501157Y-3112612D01*
X60379741Y-3123662D01*
X60306911Y-3130290D01*
X60301098Y-3132001D01*
X60301097Y-3132001D01*
X60159909Y-3173555D01*
X60113982Y-3187072D01*
X59935757Y-3280246D01*
X59779024Y-3406263D01*
X59649752Y-3560323D01*
X59646830Y-3565638D01*
X59640249Y-3577609D01*
X59552866Y-3736558D01*
X59551032Y-3742340D01*
X59551031Y-3742342D01*
X59531516Y-3803863D01*
X59492056Y-3928255D01*
X59469638Y-4128113D01*
X56529051Y-4128113D01*
X56516518Y-4000284D01*
X56511429Y-3948385D01*
X56511429Y-3948383D01*
X56510837Y-3942349D01*
X56452710Y-3749821D01*
X56448734Y-3742342D01*
X56361143Y-3577609D01*
X56361143Y-3577608D01*
X56358294Y-3572251D01*
X56231186Y-3416401D01*
X56076227Y-3288208D01*
X56061502Y-3280246D01*
X55904658Y-3195441D01*
X55904656Y-3195440D01*
X55899320Y-3192555D01*
X55707203Y-3133085D01*
X55507194Y-3112063D01*
X55501161Y-3112612D01*
X55501157Y-3112612D01*
X55379741Y-3123662D01*
X55306911Y-3130290D01*
X55301098Y-3132001D01*
X55301097Y-3132001D01*
X55159909Y-3173555D01*
X55113982Y-3187072D01*
X54935757Y-3280246D01*
X54779024Y-3406263D01*
X54649752Y-3560323D01*
X54646830Y-3565638D01*
X54640249Y-3577609D01*
X54552866Y-3736558D01*
X54551032Y-3742340D01*
X54551031Y-3742342D01*
X54531516Y-3803863D01*
X54492056Y-3928255D01*
X54469638Y-4128113D01*
X51100500Y-4128113D01*
X51100500Y-3406345D01*
X51120185Y-3339306D01*
X51172989Y-3293551D01*
X51242147Y-3283607D01*
X51289291Y-3300618D01*
X51324446Y-3322162D01*
X51333104Y-3326573D01*
X51564045Y-3422232D01*
X51573281Y-3425233D01*
X51816351Y-3483589D01*
X51825937Y-3485107D01*
X52075146Y-3504720D01*
X52084854Y-3504720D01*
X52334063Y-3485107D01*
X52343649Y-3483589D01*
X52586719Y-3425233D01*
X52595955Y-3422232D01*
X52826896Y-3326573D01*
X52835560Y-3322159D01*
X52913929Y-3274134D01*
X52923241Y-3263840D01*
X52919518Y-3255203D01*
X50677790Y-1013475D01*
X50665609Y-1006824D01*
X50658079Y-1012460D01*
X50615070Y-1082645D01*
X50563259Y-1129520D01*
X50494329Y-1140943D01*
X50430166Y-1113286D01*
X50409989Y-1092050D01*
X50402050Y-1081418D01*
X50402046Y-1081414D01*
X50398651Y-1076867D01*
X50394481Y-1073012D01*
X50394478Y-1073009D01*
X50316657Y-1001073D01*
X50243381Y-933337D01*
X50237574Y-929673D01*
X50069363Y-823539D01*
X50069361Y-823538D01*
X50064554Y-820505D01*
X49868160Y-742152D01*
X49862579Y-741042D01*
X49862576Y-741041D01*
X49764467Y-721526D01*
X49660775Y-700901D01*
X49655088Y-700827D01*
X49655083Y-700826D01*
X49455034Y-698207D01*
X49455029Y-698207D01*
X49449346Y-698133D01*
X49443742Y-699096D01*
X49443741Y-699096D01*
X49246550Y-732979D01*
X49246547Y-732980D01*
X49240953Y-733941D01*
X49042575Y-807127D01*
X49037697Y-810029D01*
X49037695Y-810030D01*
X48865740Y-912332D01*
X48865737Y-912334D01*
X48860856Y-915238D01*
X48701881Y-1054655D01*
X48698362Y-1059119D01*
X48698359Y-1059122D01*
X48672401Y-1092050D01*
X48570976Y-1220708D01*
X48472523Y-1407836D01*
X48409820Y-1609773D01*
X48392851Y-1753140D01*
X48365425Y-1817398D01*
X48310974Y-1854346D01*
X48364347Y-1888736D01*
X48393296Y-1952327D01*
X48394271Y-1961707D01*
X48398796Y-2030749D01*
X48450845Y-2235690D01*
X48453219Y-2240841D01*
X48453221Y-2240845D01*
X48526254Y-2399265D01*
X48536444Y-2468388D01*
X48507646Y-2532047D01*
X48449003Y-2570031D01*
X48379134Y-2570280D01*
X48325963Y-2538860D01*
X48123117Y-2336014D01*
X48089632Y-2274691D01*
X48093379Y-2208477D01*
X48123504Y-2119730D01*
X48136471Y-2030300D01*
X48147820Y-1952033D01*
X48176921Y-1888512D01*
X48230667Y-1854063D01*
X48178057Y-1822081D01*
X48147453Y-1759271D01*
X48146232Y-1749909D01*
X48136601Y-1645100D01*
X48136081Y-1639440D01*
X48078686Y-1435931D01*
X47985165Y-1246290D01*
X47858651Y-1076867D01*
X47854481Y-1073012D01*
X47854478Y-1073009D01*
X47776657Y-1001073D01*
X47703381Y-933337D01*
X47697574Y-929673D01*
X47529363Y-823539D01*
X47529361Y-823538D01*
X47524554Y-820505D01*
X47328160Y-742152D01*
X47322579Y-741042D01*
X47322576Y-741041D01*
X47224467Y-721526D01*
X47120775Y-700901D01*
X47115088Y-700827D01*
X47115083Y-700826D01*
X46915034Y-698207D01*
X46915029Y-698207D01*
X46909346Y-698133D01*
X46903742Y-699096D01*
X46903741Y-699096D01*
X46706550Y-732979D01*
X46706547Y-732980D01*
X46700953Y-733941D01*
X46502575Y-807127D01*
X46497697Y-810029D01*
X46497695Y-810030D01*
X46325740Y-912332D01*
X46325737Y-912334D01*
X46320856Y-915238D01*
X46161881Y-1054655D01*
X46158362Y-1059119D01*
X46158359Y-1059122D01*
X46132401Y-1092050D01*
X46030976Y-1220708D01*
X45932523Y-1407836D01*
X45869820Y-1609773D01*
X45852851Y-1753140D01*
X45825425Y-1817398D01*
X45770974Y-1854346D01*
X45690225Y-1854346D01*
X45690667Y-1854063D01*
X45638057Y-1822081D01*
X45607453Y-1759271D01*
X45606232Y-1749909D01*
X45596601Y-1645100D01*
X45596081Y-1639440D01*
X45538686Y-1435931D01*
X45445165Y-1246290D01*
X45318651Y-1076867D01*
X45314481Y-1073012D01*
X45314478Y-1073009D01*
X45236657Y-1001073D01*
X45163381Y-933337D01*
X45157574Y-929673D01*
X44989363Y-823539D01*
X44989361Y-823538D01*
X44984554Y-820505D01*
X44788160Y-742152D01*
X44782579Y-741042D01*
X44782576Y-741041D01*
X44684467Y-721526D01*
X44580775Y-700901D01*
X44575088Y-700827D01*
X44575083Y-700826D01*
X44375034Y-698207D01*
X44375029Y-698207D01*
X44369346Y-698133D01*
X44363742Y-699096D01*
X44363741Y-699096D01*
X44166550Y-732979D01*
X44166547Y-732980D01*
X44160953Y-733941D01*
X43962575Y-807127D01*
X43957697Y-810029D01*
X43957695Y-810030D01*
X43785740Y-912332D01*
X43785737Y-912334D01*
X43780856Y-915238D01*
X43621881Y-1054655D01*
X43618362Y-1059119D01*
X43618359Y-1059122D01*
X43592401Y-1092050D01*
X43490976Y-1220708D01*
X43392523Y-1407836D01*
X43329820Y-1609773D01*
X43329152Y-1615418D01*
X43329151Y-1615422D01*
X43317640Y-1712681D01*
X43290213Y-1776942D01*
X43232397Y-1816173D01*
X43162549Y-1817919D01*
X43102845Y-1781625D01*
X43072241Y-1718814D01*
X43070500Y-1698106D01*
X43070500Y-955354D01*
X43067382Y-929154D01*
X43021939Y-826847D01*
X42942713Y-747759D01*
X42932242Y-743130D01*
X42932241Y-743129D01*
X42848853Y-706263D01*
X42848851Y-706262D01*
X42840327Y-702494D01*
X42814646Y-699500D01*
X41025354Y-699500D01*
X41021700Y-699935D01*
X41021698Y-699935D01*
X41016734Y-700526D01*
X40999154Y-702618D01*
X40896847Y-748061D01*
X40817759Y-827287D01*
X40813130Y-837758D01*
X40813129Y-837759D01*
X40778876Y-915238D01*
X40772494Y-929673D01*
X40769500Y-955354D01*
X40769500Y-2744646D01*
X40772618Y-2770846D01*
X40818061Y-2873153D01*
X40897287Y-2952241D01*
X40907758Y-2956870D01*
X40907759Y-2956871D01*
X40991147Y-2993737D01*
X40991149Y-2993738D01*
X40999673Y-2997506D01*
X41025354Y-3000500D01*
X42814646Y-3000500D01*
X42818300Y-3000065D01*
X42818302Y-3000065D01*
X42823266Y-2999474D01*
X42840846Y-2997382D01*
X42943153Y-2951939D01*
X43022241Y-2872713D01*
X43026871Y-2862241D01*
X43063737Y-2778853D01*
X43063738Y-2778851D01*
X43067506Y-2770327D01*
X43070500Y-2744646D01*
X43070500Y-2030300D01*
X43090185Y-1963261D01*
X43142989Y-1917506D01*
X43212147Y-1907562D01*
X43275703Y-1936587D01*
X43313477Y-1995365D01*
X43318234Y-2022190D01*
X43318423Y-2025072D01*
X43318425Y-2025082D01*
X43318796Y-2030749D01*
X43370845Y-2235690D01*
X43373219Y-2240841D01*
X43373221Y-2240845D01*
X43449658Y-2406649D01*
X43459369Y-2427714D01*
X43462647Y-2432352D01*
X43577669Y-2595104D01*
X43581405Y-2600391D01*
X43585476Y-2604357D01*
X43585477Y-2604358D01*
X43645310Y-2662645D01*
X43732865Y-2747937D01*
X43737588Y-2751093D01*
X43737592Y-2751096D01*
X43787039Y-2784135D01*
X43908677Y-2865411D01*
X43913905Y-2867657D01*
X43934448Y-2876483D01*
X43988273Y-2921032D01*
X44009500Y-2990413D01*
X44009500Y-3308966D01*
X44008641Y-3323540D01*
X44004636Y-3357379D01*
X44006302Y-3366500D01*
X44015176Y-3415091D01*
X44015816Y-3418933D01*
X44024551Y-3477031D01*
X44027679Y-3483544D01*
X44028975Y-3490642D01*
X44033248Y-3498868D01*
X44056033Y-3542732D01*
X44057769Y-3546206D01*
X44083191Y-3599148D01*
X44088016Y-3604368D01*
X44088165Y-3604589D01*
X44091421Y-3610857D01*
X44095725Y-3615897D01*
X44132994Y-3653166D01*
X44136369Y-3656676D01*
X44168853Y-3691818D01*
X44168856Y-3691820D01*
X44175146Y-3698625D01*
X44181484Y-3702306D01*
X44187725Y-3707897D01*
X45233181Y-4753353D01*
X45266666Y-4814676D01*
X45269500Y-4841034D01*
X45269500Y-7311356D01*
X45249815Y-7378395D01*
X45202372Y-7421545D01*
X45131679Y-7458032D01*
X45126048Y-7462945D01*
X45126047Y-7462945D01*
X45113270Y-7474091D01*
X45013034Y-7561533D01*
X44922501Y-7690348D01*
X44919785Y-7697313D01*
X44919785Y-7697314D01*
X44918558Y-7700462D01*
X44865309Y-7837039D01*
X44844758Y-7993138D01*
X44845578Y-8000566D01*
X44845578Y-8000568D01*
X44858814Y-8120459D01*
X44862035Y-8149633D01*
X44864601Y-8156645D01*
X44864602Y-8156649D01*
X44881499Y-8202821D01*
X44916143Y-8297490D01*
X45003958Y-8428172D01*
X45050007Y-8470073D01*
X45114878Y-8529102D01*
X45114882Y-8529105D01*
X45120410Y-8534135D01*
X45126980Y-8537702D01*
X45126981Y-8537703D01*
X45198486Y-8576527D01*
X45248009Y-8625814D01*
X45263023Y-8694052D01*
X45238762Y-8759574D01*
X45182928Y-8801578D01*
X45139318Y-8809500D01*
X44307487Y-8809500D01*
X44291302Y-8808439D01*
X44268059Y-8805379D01*
X44260000Y-8804318D01*
X44251941Y-8805379D01*
X44143731Y-8819625D01*
X44114822Y-8823431D01*
X44103238Y-8824956D01*
X44095731Y-8828065D01*
X44095729Y-8828066D01*
X44070332Y-8838586D01*
X43957159Y-8885464D01*
X43831718Y-8981718D01*
X43826771Y-8988165D01*
X43812495Y-9006770D01*
X43801800Y-9018965D01*
X41457584Y-11363181D01*
X41396261Y-11396666D01*
X41369903Y-11399500D01*
X38831168Y-11399500D01*
X38764129Y-11379815D01*
X38757845Y-11375289D01*
X38754770Y-11372193D01*
X38748923Y-11368482D01*
X38748920Y-11368480D01*
X38608990Y-11279678D01*
X38603136Y-11275963D01*
X38583219Y-11268871D01*
X38440479Y-11218043D01*
X38440475Y-11218042D01*
X38433951Y-11215719D01*
X38255624Y-11194455D01*
X38248735Y-11195179D01*
X38248732Y-11195179D01*
X38083913Y-11212502D01*
X38083911Y-11212502D01*
X38077017Y-11213227D01*
X38070456Y-11215461D01*
X38070454Y-11215461D01*
X37983718Y-11244989D01*
X37907007Y-11271103D01*
X37901105Y-11274734D01*
X37828180Y-11319598D01*
X37754045Y-11365206D01*
X37625732Y-11490859D01*
X37528446Y-11641817D01*
X37526076Y-11648329D01*
X37470258Y-11801688D01*
X37467022Y-11810578D01*
X37444514Y-11988753D01*
X37462039Y-12167486D01*
X37464227Y-12174062D01*
X37464228Y-12174069D01*
X37484787Y-12235872D01*
X37487269Y-12305697D01*
X37451607Y-12365780D01*
X37389122Y-12397044D01*
X37367126Y-12399011D01*
X34417476Y-12399011D01*
X34350437Y-12379326D01*
X34329795Y-12362692D01*
X30402365Y-8435262D01*
X35194520Y-8435262D01*
X35211759Y-8640553D01*
X35268544Y-8838586D01*
X35271316Y-8843981D01*
X35271317Y-8843982D01*
X35292201Y-8884618D01*
X35362712Y-9021818D01*
X35366480Y-9026572D01*
X35486265Y-9177703D01*
X35490677Y-9183270D01*
X35495296Y-9187201D01*
X35642950Y-9312865D01*
X35642955Y-9312869D01*
X35647564Y-9316791D01*
X35827398Y-9417297D01*
X36023329Y-9480959D01*
X36029347Y-9481677D01*
X36029349Y-9481677D01*
X36171410Y-9498616D01*
X36227894Y-9505351D01*
X36233938Y-9504886D01*
X36233939Y-9504886D01*
X36295266Y-9500167D01*
X36433300Y-9489546D01*
X36533367Y-9461607D01*
X36625885Y-9435776D01*
X36625889Y-9435774D01*
X36631725Y-9434145D01*
X36815610Y-9341258D01*
X36977951Y-9214424D01*
X36981907Y-9209840D01*
X36981911Y-9209837D01*
X37108602Y-9063062D01*
X37112564Y-9058472D01*
X37116261Y-9051965D01*
X37211327Y-8884618D01*
X37214323Y-8879344D01*
X37246637Y-8782205D01*
X37277439Y-8689611D01*
X37277439Y-8689610D01*
X37279351Y-8683863D01*
X37282473Y-8659155D01*
X37304736Y-8482919D01*
X37304736Y-8482915D01*
X37305171Y-8479474D01*
X37305583Y-8450000D01*
X37290122Y-8292314D01*
X37286072Y-8251006D01*
X37286072Y-8251004D01*
X37285480Y-8244970D01*
X37275701Y-8212581D01*
X37227688Y-8053555D01*
X37225935Y-8047749D01*
X37129218Y-7865849D01*
X36999011Y-7706200D01*
X36840275Y-7574882D01*
X36659055Y-7476897D01*
X36649991Y-7474091D01*
X36540658Y-7440247D01*
X36462254Y-7415977D01*
X36257369Y-7394443D01*
X36251336Y-7394992D01*
X36251332Y-7394992D01*
X36125721Y-7406424D01*
X36052203Y-7413114D01*
X36046390Y-7414825D01*
X36046389Y-7414825D01*
X35882892Y-7462945D01*
X35854572Y-7471280D01*
X35770819Y-7515065D01*
X35677374Y-7563917D01*
X35677370Y-7563920D01*
X35672002Y-7566726D01*
X35667279Y-7570523D01*
X35667278Y-7570524D01*
X35518247Y-7690348D01*
X35511447Y-7695815D01*
X35456756Y-7760993D01*
X35386724Y-7844454D01*
X35379024Y-7853630D01*
X35279776Y-8034162D01*
X35277942Y-8039944D01*
X35277941Y-8039946D01*
X35223381Y-8211943D01*
X35217484Y-8230532D01*
X35211335Y-8285348D01*
X35202229Y-8366538D01*
X35194520Y-8435262D01*
X30402365Y-8435262D01*
X30312667Y-8345564D01*
X30302969Y-8334651D01*
X30292802Y-8321754D01*
X30281872Y-8307890D01*
X30233554Y-8274495D01*
X30230454Y-8272281D01*
X30183184Y-8237366D01*
X30176368Y-8234973D01*
X30170431Y-8230869D01*
X30114481Y-8213174D01*
X30110791Y-8211943D01*
X30064116Y-8195552D01*
X30064112Y-8195551D01*
X30055369Y-8192481D01*
X30048265Y-8192202D01*
X30048014Y-8192153D01*
X30041270Y-8190020D01*
X30034663Y-8189500D01*
X29981932Y-8189500D01*
X29977063Y-8189404D01*
X29929273Y-8187526D01*
X29929272Y-8187526D01*
X29920006Y-8187162D01*
X29912922Y-8189040D01*
X29904562Y-8189500D01*
X29259502Y-8189500D01*
X29192463Y-8169815D01*
X29177013Y-8158083D01*
X29119559Y-8106893D01*
X29119557Y-8106892D01*
X29113976Y-8101919D01*
X28974831Y-8028245D01*
X28822128Y-7989889D01*
X28740329Y-7989461D01*
X28672158Y-7989104D01*
X28672157Y-7989104D01*
X28664684Y-7989065D01*
X28657421Y-7990809D01*
X28657418Y-7990809D01*
X28588136Y-8007443D01*
X28511588Y-8025820D01*
X28371679Y-8098032D01*
X28253034Y-8201533D01*
X28162501Y-8330348D01*
X28159785Y-8337313D01*
X28159785Y-8337314D01*
X28136390Y-8397319D01*
X28105309Y-8477039D01*
X28084758Y-8633138D01*
X28085578Y-8640566D01*
X28085578Y-8640568D01*
X28096247Y-8737205D01*
X28102035Y-8789633D01*
X28104601Y-8796645D01*
X28104602Y-8796649D01*
X28130749Y-8868098D01*
X28156143Y-8937490D01*
X28243958Y-9068172D01*
X28290130Y-9110185D01*
X28354878Y-9169102D01*
X28354882Y-9169105D01*
X28360410Y-9174135D01*
X28366980Y-9177702D01*
X28366981Y-9177703D01*
X28492208Y-9245696D01*
X28498776Y-9249262D01*
X28559003Y-9265062D01*
X28643841Y-9287319D01*
X28643843Y-9287319D01*
X28651069Y-9289215D01*
X28728127Y-9290425D01*
X28801025Y-9291571D01*
X28801028Y-9291571D01*
X28808495Y-9291688D01*
X28815776Y-9290020D01*
X28815780Y-9290020D01*
X28954681Y-9258207D01*
X28961968Y-9256538D01*
X29102625Y-9185795D01*
X29108306Y-9180943D01*
X29108309Y-9180941D01*
X29179415Y-9120210D01*
X29243177Y-9091639D01*
X29259947Y-9090500D01*
X29732035Y-9090500D01*
X29799074Y-9110185D01*
X29819716Y-9126819D01*
X31180716Y-10487819D01*
X31214201Y-10549142D01*
X31209217Y-10618834D01*
X31167345Y-10674767D01*
X31101881Y-10699184D01*
X31093035Y-10699500D01*
X29269502Y-10699500D01*
X29202463Y-10679815D01*
X29187013Y-10668083D01*
X29129559Y-10616893D01*
X29129557Y-10616892D01*
X29123976Y-10611919D01*
X28984831Y-10538245D01*
X28880484Y-10512035D01*
X28839378Y-10501710D01*
X28832128Y-10499889D01*
X28750329Y-10499461D01*
X28682158Y-10499104D01*
X28682157Y-10499104D01*
X28674684Y-10499065D01*
X28667421Y-10500809D01*
X28667418Y-10500809D01*
X28598136Y-10517442D01*
X28521588Y-10535820D01*
X28381679Y-10608032D01*
X28376048Y-10612945D01*
X28376047Y-10612945D01*
X28364952Y-10622624D01*
X28263034Y-10711533D01*
X28172501Y-10840348D01*
X28169785Y-10847313D01*
X28169785Y-10847314D01*
X28153725Y-10888506D01*
X28115309Y-10987039D01*
X28094758Y-11143138D01*
X28095578Y-11150566D01*
X28095578Y-11150568D01*
X28097324Y-11166385D01*
X28112035Y-11299633D01*
X28166143Y-11447490D01*
X28253958Y-11578172D01*
X28300130Y-11620185D01*
X28364878Y-11679102D01*
X28364882Y-11679105D01*
X28370410Y-11684135D01*
X28376980Y-11687702D01*
X28376981Y-11687703D01*
X28419491Y-11710784D01*
X28508776Y-11759262D01*
X28611031Y-11786088D01*
X28653841Y-11797319D01*
X28653843Y-11797319D01*
X28661069Y-11799215D01*
X28806287Y-11801496D01*
X28807482Y-11801515D01*
X28808511Y-11801835D01*
X28811026Y-11801571D01*
X28818495Y-11801688D01*
X28825776Y-11800020D01*
X28825780Y-11800020D01*
X28964681Y-11768207D01*
X28971968Y-11766538D01*
X29112625Y-11695795D01*
X29118306Y-11690943D01*
X29118309Y-11690941D01*
X29189415Y-11630210D01*
X29253177Y-11601639D01*
X29269947Y-11600500D01*
X31422035Y-11600500D01*
X31489074Y-11620185D01*
X31509716Y-11636819D01*
X31710716Y-11837819D01*
X31744201Y-11899142D01*
X31739217Y-11968834D01*
X31697345Y-12024767D01*
X31631881Y-12049184D01*
X31623035Y-12049500D01*
X28818193Y-12049500D01*
X28814190Y-12048325D01*
X28805534Y-12049500D01*
X28237965Y-12049500D01*
X28170926Y-12029815D01*
X28150284Y-12013181D01*
X26736819Y-10599716D01*
X26703334Y-10538393D01*
X26700500Y-10512035D01*
X26700500Y-9284102D01*
X26701359Y-9269528D01*
X26704275Y-9244894D01*
X26704275Y-9244891D01*
X26705364Y-9235689D01*
X26694821Y-9177962D01*
X26694181Y-9174121D01*
X26693703Y-9170941D01*
X26685449Y-9116038D01*
X26682321Y-9109525D01*
X26681025Y-9102427D01*
X26660007Y-9061965D01*
X26653964Y-9050331D01*
X26652224Y-9046848D01*
X26643272Y-9028206D01*
X26626809Y-8993921D01*
X26621982Y-8988699D01*
X26621839Y-8988486D01*
X26618579Y-8982211D01*
X26614275Y-8977172D01*
X26577006Y-8939903D01*
X26573631Y-8936393D01*
X26541147Y-8901251D01*
X26541144Y-8901249D01*
X26534854Y-8894444D01*
X26528516Y-8890763D01*
X26522275Y-8885172D01*
X23842667Y-6205564D01*
X23832969Y-6194651D01*
X23817611Y-6175170D01*
X23811872Y-6167890D01*
X23763554Y-6134495D01*
X23760454Y-6132281D01*
X23713184Y-6097366D01*
X23706368Y-6094973D01*
X23700431Y-6090869D01*
X23644481Y-6073174D01*
X23640791Y-6071943D01*
X23594116Y-6055552D01*
X23594112Y-6055551D01*
X23585369Y-6052481D01*
X23578265Y-6052202D01*
X23578014Y-6052153D01*
X23571270Y-6050020D01*
X23564663Y-6049500D01*
X23511932Y-6049500D01*
X23507063Y-6049404D01*
X23459273Y-6047526D01*
X23459272Y-6047526D01*
X23450006Y-6047162D01*
X23442922Y-6049040D01*
X23434562Y-6049500D01*
X17737966Y-6049500D01*
X17670927Y-6029815D01*
X17663023Y-6023446D01*
X28335500Y-6023446D01*
X28338618Y-6049646D01*
X28384061Y-6151953D01*
X28463287Y-6231041D01*
X28473758Y-6235670D01*
X28473759Y-6235671D01*
X28557147Y-6272537D01*
X28557149Y-6272538D01*
X28565673Y-6276306D01*
X28591354Y-6279300D01*
X31012646Y-6279300D01*
X31016300Y-6278865D01*
X31016302Y-6278865D01*
X31021266Y-6278274D01*
X31038846Y-6276182D01*
X31141153Y-6230739D01*
X31220241Y-6151513D01*
X31227758Y-6134510D01*
X31261737Y-6057653D01*
X31261738Y-6057651D01*
X31265506Y-6049127D01*
X31268500Y-6023446D01*
X31268500Y-3555262D01*
X35194520Y-3555262D01*
X35211759Y-3760553D01*
X35268544Y-3958586D01*
X35362712Y-4141818D01*
X35366480Y-4146572D01*
X35481148Y-4291247D01*
X35490677Y-4303270D01*
X35495296Y-4307201D01*
X35642950Y-4432865D01*
X35642955Y-4432869D01*
X35647564Y-4436791D01*
X35827398Y-4537297D01*
X36023329Y-4600959D01*
X36029347Y-4601677D01*
X36029349Y-4601677D01*
X36171410Y-4618616D01*
X36227894Y-4625351D01*
X36233938Y-4624886D01*
X36233939Y-4624886D01*
X36295266Y-4620167D01*
X36433300Y-4609546D01*
X36540419Y-4579638D01*
X36625885Y-4555776D01*
X36625889Y-4555774D01*
X36631725Y-4554145D01*
X36815610Y-4461258D01*
X36977951Y-4334424D01*
X36981907Y-4329840D01*
X36981911Y-4329837D01*
X37108602Y-4183062D01*
X37112564Y-4178472D01*
X37116655Y-4171272D01*
X37211327Y-4004618D01*
X37214323Y-3999344D01*
X37279351Y-3803863D01*
X37282866Y-3776043D01*
X37304736Y-3602919D01*
X37304736Y-3602915D01*
X37305171Y-3599474D01*
X37305583Y-3570000D01*
X37304634Y-3560323D01*
X37286072Y-3371006D01*
X37286072Y-3371004D01*
X37285480Y-3364970D01*
X37272555Y-3322162D01*
X37227688Y-3173555D01*
X37225935Y-3167749D01*
X37173210Y-3068587D01*
X37132065Y-2991203D01*
X37132064Y-2991201D01*
X37129218Y-2985849D01*
X36999011Y-2826200D01*
X36942374Y-2779346D01*
X36844946Y-2698746D01*
X36844945Y-2698745D01*
X36840275Y-2694882D01*
X36659055Y-2596897D01*
X36649991Y-2594091D01*
X36519498Y-2553697D01*
X36462254Y-2535977D01*
X36257369Y-2514443D01*
X36251336Y-2514992D01*
X36251332Y-2514992D01*
X36125721Y-2526424D01*
X36052203Y-2533114D01*
X36046390Y-2534825D01*
X36046389Y-2534825D01*
X35860392Y-2589567D01*
X35854572Y-2591280D01*
X35770819Y-2635065D01*
X35677374Y-2683917D01*
X35677370Y-2683920D01*
X35672002Y-2686726D01*
X35667279Y-2690523D01*
X35667278Y-2690524D01*
X35557419Y-2778853D01*
X35511447Y-2815815D01*
X35477983Y-2855696D01*
X35393087Y-2956871D01*
X35379024Y-2973630D01*
X35279776Y-3154162D01*
X35277942Y-3159944D01*
X35277941Y-3159946D01*
X35226484Y-3322159D01*
X35217484Y-3350532D01*
X35211659Y-3402463D01*
X35195535Y-3546215D01*
X35194520Y-3555262D01*
X31268500Y-3555262D01*
X31268500Y-1976554D01*
X31265382Y-1950354D01*
X31219939Y-1848047D01*
X31140713Y-1768959D01*
X31130242Y-1764330D01*
X31130241Y-1764329D01*
X31046853Y-1727463D01*
X31046851Y-1727462D01*
X31038327Y-1723694D01*
X31012646Y-1720700D01*
X28591354Y-1720700D01*
X28587700Y-1721135D01*
X28587698Y-1721135D01*
X28582734Y-1721726D01*
X28565154Y-1723818D01*
X28462847Y-1769261D01*
X28383759Y-1848487D01*
X28379130Y-1858958D01*
X28379129Y-1858959D01*
X28343192Y-1940247D01*
X28338494Y-1950873D01*
X28335500Y-1976554D01*
X28335500Y-6023446D01*
X17663023Y-6023446D01*
X17650285Y-6013181D01*
X13938057Y-2300954D01*
X13904572Y-2239631D01*
X13902636Y-2228170D01*
X13887262Y-2101119D01*
X13887261Y-2101115D01*
X13886363Y-2093694D01*
X13849208Y-1995365D01*
X13833354Y-1953408D01*
X13833352Y-1953405D01*
X13830710Y-1946412D01*
X13826473Y-1940247D01*
X13745768Y-1822821D01*
X13745765Y-1822818D01*
X13741531Y-1816657D01*
X13634320Y-1721135D01*
X13629559Y-1716893D01*
X13629558Y-1716892D01*
X13623976Y-1711919D01*
X13484831Y-1638245D01*
X13371478Y-1609773D01*
X13339378Y-1601710D01*
X13332128Y-1599889D01*
X13250329Y-1599461D01*
X13182158Y-1599104D01*
X13182157Y-1599104D01*
X13174684Y-1599065D01*
X13167421Y-1600809D01*
X13167418Y-1600809D01*
X13106589Y-1615413D01*
X13021588Y-1635820D01*
X12881679Y-1708032D01*
X12876048Y-1712945D01*
X12876047Y-1712945D01*
X12866659Y-1721135D01*
X12763034Y-1811533D01*
X12672501Y-1940348D01*
X12669785Y-1947313D01*
X12669785Y-1947314D01*
X12656950Y-1980235D01*
X12615309Y-2087039D01*
X12594758Y-2243138D01*
X300500Y-2243138D01*
X300500Y-537139D01*
X302384Y-515606D01*
X305136Y-500000D01*
X303419Y-490264D01*
X304779Y-472988D01*
X307192Y-457751D01*
X319180Y-420853D01*
X329684Y-400237D01*
X352489Y-368849D01*
X368849Y-352489D01*
X400237Y-329684D01*
X420853Y-319180D01*
X457751Y-307192D01*
X472988Y-304779D01*
X490264Y-303419D01*
X500000Y-305136D01*
X515609Y-302384D01*
X537139Y-300500D01*
X51112039Y-300500D01*
X51179078Y-320185D01*
G37*
%TD.AperFunction*%
%TA.AperFunction,Conductor*%
G36*
X19443039Y-14519685D02*
G01*
X19488794Y-14572489D01*
X19500000Y-14624000D01*
X19500000Y-16126000D01*
X19480315Y-16193039D01*
X19427511Y-16238794D01*
X19376000Y-16250000D01*
X17801362Y-16250000D01*
X17734323Y-16230315D01*
X17713681Y-16213681D01*
X17500000Y-16000000D01*
X15624000Y-16000000D01*
X15556961Y-15980315D01*
X15511206Y-15927511D01*
X15500000Y-15876000D01*
X15500000Y-14874000D01*
X15519685Y-14806961D01*
X15572489Y-14761206D01*
X15624000Y-14750000D01*
X17500000Y-14750000D01*
X17713681Y-14536319D01*
X17775004Y-14502834D01*
X17801362Y-14500000D01*
X19376000Y-14500000D01*
X19443039Y-14519685D01*
G37*
%TD.AperFunction*%
%TA.AperFunction,Conductor*%
G36*
X18943039Y-9019685D02*
G01*
X18988794Y-9072489D01*
X19000000Y-9124000D01*
X19000000Y-10626000D01*
X18980315Y-10693039D01*
X18927511Y-10738794D01*
X18876000Y-10750000D01*
X17801362Y-10750000D01*
X17734323Y-10730315D01*
X17713681Y-10713681D01*
X17500000Y-10500000D01*
X15624000Y-10500000D01*
X15556961Y-10480315D01*
X15511206Y-10427511D01*
X15500000Y-10376000D01*
X15500000Y-9374000D01*
X15519685Y-9306961D01*
X15572489Y-9261206D01*
X15624000Y-9250000D01*
X17500000Y-9250000D01*
X17713681Y-9036319D01*
X17775004Y-9002834D01*
X17801362Y-9000000D01*
X18876000Y-9000000D01*
X18943039Y-9019685D01*
G37*
%TD.AperFunction*%
M02*
