%TF.GenerationSoftware,KiCad,Pcbnew,(6.0.4)*%
%TF.CreationDate,2023-02-06T21:53:40+02:00*%
%TF.ProjectId,ServoController,53657276-6f43-46f6-9e74-726f6c6c6572,rev?*%
%TF.SameCoordinates,PXe3ed9c0PYb6ddf70*%
%TF.FileFunction,Soldermask,Top*%
%TF.FilePolarity,Negative*%
%FSLAX46Y46*%
G04 Gerber Fmt 4.6, Leading zero omitted, Abs format (unit mm)*
G04 Created by KiCad (PCBNEW (6.0.4)) date 2023-02-06 21:53:40*
%MOMM*%
%LPD*%
G01*
G04 APERTURE LIST*
G04 Aperture macros list*
%AMRoundRect*
0 Rectangle with rounded corners*
0 $1 Rounding radius*
0 $2 $3 $4 $5 $6 $7 $8 $9 X,Y pos of 4 corners*
0 Add a 4 corners polygon primitive as box body*
4,1,4,$2,$3,$4,$5,$6,$7,$8,$9,$2,$3,0*
0 Add four circle primitives for the rounded corners*
1,1,$1+$1,$2,$3*
1,1,$1+$1,$4,$5*
1,1,$1+$1,$6,$7*
1,1,$1+$1,$8,$9*
0 Add four rect primitives between the rounded corners*
20,1,$1+$1,$2,$3,$4,$5,0*
20,1,$1+$1,$4,$5,$6,$7,0*
20,1,$1+$1,$6,$7,$8,$9,0*
20,1,$1+$1,$8,$9,$2,$3,0*%
G04 Aperture macros list end*
%ADD10RoundRect,0.140000X0.140000X0.170000X-0.140000X0.170000X-0.140000X-0.170000X0.140000X-0.170000X0*%
%ADD11RoundRect,0.135000X-0.135000X-0.185000X0.135000X-0.185000X0.135000X0.185000X-0.135000X0.185000X0*%
%ADD12R,0.700000X0.600000*%
%ADD13RoundRect,0.135000X0.185000X-0.135000X0.185000X0.135000X-0.185000X0.135000X-0.185000X-0.135000X0*%
%ADD14C,1.500000*%
%ADD15R,5.100000X3.000000*%
%ADD16RoundRect,0.140000X-0.140000X-0.170000X0.140000X-0.170000X0.140000X0.170000X-0.140000X0.170000X0*%
%ADD17RoundRect,0.250000X0.475000X-0.250000X0.475000X0.250000X-0.475000X0.250000X-0.475000X-0.250000X0*%
%ADD18R,1.700000X1.700000*%
%ADD19C,1.700000*%
%ADD20R,5.100000X1.700000*%
%ADD21RoundRect,0.218750X0.218750X0.381250X-0.218750X0.381250X-0.218750X-0.381250X0.218750X-0.381250X0*%
%ADD22RoundRect,0.140000X0.170000X-0.140000X0.170000X0.140000X-0.170000X0.140000X-0.170000X-0.140000X0*%
%ADD23R,2.032000X1.300000*%
%ADD24R,2.332000X3.957600*%
%ADD25R,0.400000X1.350000*%
%ADD26R,1.500000X1.900000*%
%ADD27C,1.450000*%
%ADD28O,1.200000X1.900000*%
%ADD29R,1.200000X1.900000*%
%ADD30O,1.400000X0.260000*%
%ADD31O,0.260000X1.400000*%
%ADD32R,1.600000X0.650000*%
%ADD33RoundRect,0.135000X0.135000X0.185000X-0.135000X0.185000X-0.135000X-0.185000X0.135000X-0.185000X0*%
%ADD34RoundRect,0.140000X-0.170000X0.140000X-0.170000X-0.140000X0.170000X-0.140000X0.170000X0.140000X0*%
%ADD35RoundRect,0.250000X-0.475000X0.250000X-0.475000X-0.250000X0.475000X-0.250000X0.475000X0.250000X0*%
%ADD36RoundRect,0.225000X0.225000X0.250000X-0.225000X0.250000X-0.225000X-0.250000X0.225000X-0.250000X0*%
%ADD37RoundRect,0.147500X0.147500X0.172500X-0.147500X0.172500X-0.147500X-0.172500X0.147500X-0.172500X0*%
%ADD38R,1.000000X1.000000*%
%ADD39R,1.000000X0.550000*%
%ADD40RoundRect,0.135000X-0.185000X0.135000X-0.185000X-0.135000X0.185000X-0.135000X0.185000X0.135000X0*%
G04 APERTURE END LIST*
D10*
X41730000Y-10500000D03*
X40770000Y-10500000D03*
D11*
X39990000Y-7000000D03*
X41010000Y-7000000D03*
D12*
X10250000Y-2950000D03*
X10250000Y-1550000D03*
D13*
X39750000Y-9260000D03*
X39750000Y-8240000D03*
D10*
X41730000Y-5500000D03*
X40770000Y-5500000D03*
D14*
X36250000Y-8450000D03*
X36250000Y-3570000D03*
D15*
X3227500Y-15092500D03*
X3227500Y-11282500D03*
D16*
X54270000Y-6000000D03*
X55230000Y-6000000D03*
D17*
X19000000Y-9950000D03*
X19000000Y-8050000D03*
D18*
X41920000Y-1850000D03*
D19*
X44460000Y-1850000D03*
X47000000Y-1850000D03*
X49540000Y-1850000D03*
X52080000Y-1850000D03*
D20*
X3227500Y-7020000D03*
X3227500Y-4480000D03*
X3227500Y-1940000D03*
D10*
X30730000Y-1000000D03*
X29770000Y-1000000D03*
D16*
X44080000Y-4050000D03*
X43120000Y-4050000D03*
D12*
X59500000Y-11700000D03*
X59500000Y-10300000D03*
D11*
X40740000Y-4000000D03*
X41760000Y-4000000D03*
D21*
X41562500Y-12250000D03*
X39437500Y-12250000D03*
D22*
X41250000Y-9230000D03*
X41250000Y-8270000D03*
D23*
X23198000Y-1714000D03*
X23198000Y-4000000D03*
X23198000Y-6286000D03*
D24*
X29802000Y-4000000D03*
D25*
X59300000Y-4142500D03*
X58650000Y-4142500D03*
X58000000Y-4142500D03*
X57350000Y-4142500D03*
X56700000Y-4142500D03*
D26*
X59000000Y-1442500D03*
D27*
X60500000Y-4142500D03*
D28*
X61500000Y-1442500D03*
D29*
X60900000Y-1442500D03*
D28*
X54500000Y-1442500D03*
D26*
X57000000Y-1442500D03*
D29*
X55100000Y-1442500D03*
D27*
X55500000Y-4142500D03*
D30*
X43670000Y-6160000D03*
X43670000Y-6660000D03*
X43670000Y-7160000D03*
X43670000Y-7660000D03*
X43670000Y-8160000D03*
X43670000Y-8660000D03*
X43670000Y-9160000D03*
X43670000Y-9660000D03*
X43670000Y-10160000D03*
X43670000Y-10660000D03*
X43670000Y-11160000D03*
X43670000Y-11660000D03*
D31*
X45270000Y-13260000D03*
X45770000Y-13260000D03*
X46270000Y-13260000D03*
X46770000Y-13260000D03*
X47270000Y-13260000D03*
X47770000Y-13260000D03*
X48270000Y-13260000D03*
X48770000Y-13260000D03*
X49270000Y-13260000D03*
X49770000Y-13260000D03*
X50270000Y-13260000D03*
X50770000Y-13260000D03*
D30*
X52370000Y-11660000D03*
X52370000Y-11160000D03*
X52370000Y-10660000D03*
X52370000Y-10160000D03*
X52370000Y-9660000D03*
X52370000Y-9160000D03*
X52370000Y-8660000D03*
X52370000Y-8160000D03*
X52370000Y-7660000D03*
X52370000Y-7160000D03*
X52370000Y-6660000D03*
X52370000Y-6160000D03*
D31*
X50770000Y-4560000D03*
X50270000Y-4560000D03*
X49770000Y-4560000D03*
X49270000Y-4560000D03*
X48770000Y-4560000D03*
X48270000Y-4560000D03*
X47770000Y-4560000D03*
X47270000Y-4560000D03*
X46770000Y-4560000D03*
X46270000Y-4560000D03*
X45770000Y-4560000D03*
X45270000Y-4560000D03*
D32*
X16450000Y-17905000D03*
X16450000Y-16635000D03*
X16450000Y-15365000D03*
X16450000Y-14095000D03*
X11050000Y-14095000D03*
X11050000Y-15365000D03*
X11050000Y-16635000D03*
X11050000Y-17905000D03*
D33*
X58010000Y-11500000D03*
X56990000Y-11500000D03*
D17*
X18250000Y-3200000D03*
X18250000Y-1300000D03*
D34*
X10000000Y-4770000D03*
X10000000Y-5730000D03*
D32*
X27450000Y-12405000D03*
X27450000Y-11135000D03*
X27450000Y-9865000D03*
X27450000Y-8595000D03*
X22050000Y-8595000D03*
X22050000Y-9865000D03*
X22050000Y-11135000D03*
X22050000Y-12405000D03*
D34*
X61150000Y-6120000D03*
X61150000Y-7080000D03*
D20*
X68272500Y-11230000D03*
D15*
X68272500Y-14405000D03*
X68272500Y-18215000D03*
D22*
X32750000Y-3480000D03*
X32750000Y-2520000D03*
D33*
X30775000Y-11000000D03*
X29755000Y-11000000D03*
X13260000Y-1250000D03*
X12240000Y-1250000D03*
D35*
X30250000Y-7300000D03*
X30250000Y-9200000D03*
D36*
X20775000Y-5500000D03*
X19225000Y-5500000D03*
D17*
X20500000Y-3200000D03*
X20500000Y-1300000D03*
D37*
X30750000Y-12500000D03*
X29780000Y-12500000D03*
D38*
X57350000Y-6340000D03*
D39*
X57350000Y-8060000D03*
X59650000Y-8060000D03*
X59650000Y-6140000D03*
D40*
X55500000Y-7740000D03*
X55500000Y-8760000D03*
D22*
X32750000Y-6480000D03*
X32750000Y-5520000D03*
D35*
X19200000Y-15700000D03*
X19200000Y-17600000D03*
D16*
X52270000Y-13500000D03*
X53230000Y-13500000D03*
D32*
X16450000Y-12405000D03*
X16450000Y-11135000D03*
X16450000Y-9865000D03*
X16450000Y-8595000D03*
X11050000Y-8595000D03*
X11050000Y-9865000D03*
X11050000Y-11135000D03*
X11050000Y-12405000D03*
D16*
X14770000Y-1250000D03*
X15730000Y-1250000D03*
M02*
