%TF.GenerationSoftware,KiCad,Pcbnew,(6.0.8)*%
%TF.CreationDate,2022-11-15T14:19:18+02:00*%
%TF.ProjectId,ServoController,53657276-6f43-46f6-9e74-726f6c6c6572,rev?*%
%TF.SameCoordinates,PXe3ed9c0PYb6ddf70*%
%TF.FileFunction,Legend,Bot*%
%TF.FilePolarity,Positive*%
%FSLAX46Y46*%
G04 Gerber Fmt 4.6, Leading zero omitted, Abs format (unit mm)*
G04 Created by KiCad (PCBNEW (6.0.8)) date 2022-11-15 14:19:18*
%MOMM*%
%LPD*%
G01*
G04 APERTURE LIST*
%ADD10C,0.150000*%
%ADD11C,1.500000*%
%ADD12C,1.700000*%
%ADD13R,1.700000X1.700000*%
%ADD14R,2.332000X3.957600*%
%ADD15C,1.450000*%
%ADD16O,1.200000X1.900000*%
G04 APERTURE END LIST*
D10*
X48380952Y-17904761D02*
X48238095Y-17952380D01*
X48000000Y-17952380D01*
X47904761Y-17904761D01*
X47857142Y-17857142D01*
X47809523Y-17761904D01*
X47809523Y-17666666D01*
X47857142Y-17571428D01*
X47904761Y-17523809D01*
X48000000Y-17476190D01*
X48190476Y-17428571D01*
X48285714Y-17380952D01*
X48333333Y-17333333D01*
X48380952Y-17238095D01*
X48380952Y-17142857D01*
X48333333Y-17047619D01*
X48285714Y-17000000D01*
X48190476Y-16952380D01*
X47952380Y-16952380D01*
X47809523Y-17000000D01*
X47000000Y-17904761D02*
X47095238Y-17952380D01*
X47285714Y-17952380D01*
X47380952Y-17904761D01*
X47428571Y-17809523D01*
X47428571Y-17428571D01*
X47380952Y-17333333D01*
X47285714Y-17285714D01*
X47095238Y-17285714D01*
X47000000Y-17333333D01*
X46952380Y-17428571D01*
X46952380Y-17523809D01*
X47428571Y-17619047D01*
X46523809Y-17952380D02*
X46523809Y-17285714D01*
X46523809Y-17476190D02*
X46476190Y-17380952D01*
X46428571Y-17333333D01*
X46333333Y-17285714D01*
X46238095Y-17285714D01*
X46000000Y-17285714D02*
X45761904Y-17952380D01*
X45523809Y-17285714D01*
X45000000Y-17952380D02*
X45095238Y-17904761D01*
X45142857Y-17857142D01*
X45190476Y-17761904D01*
X45190476Y-17476190D01*
X45142857Y-17380952D01*
X45095238Y-17333333D01*
X45000000Y-17285714D01*
X44857142Y-17285714D01*
X44761904Y-17333333D01*
X44714285Y-17380952D01*
X44666666Y-17476190D01*
X44666666Y-17761904D01*
X44714285Y-17857142D01*
X44761904Y-17904761D01*
X44857142Y-17952380D01*
X45000000Y-17952380D01*
X43047619Y-17904761D02*
X43142857Y-17952380D01*
X43333333Y-17952380D01*
X43428571Y-17904761D01*
X43476190Y-17857142D01*
X43523809Y-17761904D01*
X43523809Y-17476190D01*
X43476190Y-17380952D01*
X43428571Y-17333333D01*
X43333333Y-17285714D01*
X43142857Y-17285714D01*
X43047619Y-17333333D01*
X42476190Y-17952380D02*
X42571428Y-17904761D01*
X42619047Y-17857142D01*
X42666666Y-17761904D01*
X42666666Y-17476190D01*
X42619047Y-17380952D01*
X42571428Y-17333333D01*
X42476190Y-17285714D01*
X42333333Y-17285714D01*
X42238095Y-17333333D01*
X42190476Y-17380952D01*
X42142857Y-17476190D01*
X42142857Y-17761904D01*
X42190476Y-17857142D01*
X42238095Y-17904761D01*
X42333333Y-17952380D01*
X42476190Y-17952380D01*
X41714285Y-17285714D02*
X41714285Y-17952380D01*
X41714285Y-17380952D02*
X41666666Y-17333333D01*
X41571428Y-17285714D01*
X41428571Y-17285714D01*
X41333333Y-17333333D01*
X41285714Y-17428571D01*
X41285714Y-17952380D01*
X40952380Y-17285714D02*
X40571428Y-17285714D01*
X40809523Y-16952380D02*
X40809523Y-17809523D01*
X40761904Y-17904761D01*
X40666666Y-17952380D01*
X40571428Y-17952380D01*
X40238095Y-17952380D02*
X40238095Y-17285714D01*
X40238095Y-17476190D02*
X40190476Y-17380952D01*
X40142857Y-17333333D01*
X40047619Y-17285714D01*
X39952380Y-17285714D01*
X39476190Y-17952380D02*
X39571428Y-17904761D01*
X39619047Y-17857142D01*
X39666666Y-17761904D01*
X39666666Y-17476190D01*
X39619047Y-17380952D01*
X39571428Y-17333333D01*
X39476190Y-17285714D01*
X39333333Y-17285714D01*
X39238095Y-17333333D01*
X39190476Y-17380952D01*
X39142857Y-17476190D01*
X39142857Y-17761904D01*
X39190476Y-17857142D01*
X39238095Y-17904761D01*
X39333333Y-17952380D01*
X39476190Y-17952380D01*
X38571428Y-17952380D02*
X38666666Y-17904761D01*
X38714285Y-17809523D01*
X38714285Y-16952380D01*
X38047619Y-17952380D02*
X38142857Y-17904761D01*
X38190476Y-17809523D01*
X38190476Y-16952380D01*
X37285714Y-17904761D02*
X37380952Y-17952380D01*
X37571428Y-17952380D01*
X37666666Y-17904761D01*
X37714285Y-17809523D01*
X37714285Y-17428571D01*
X37666666Y-17333333D01*
X37571428Y-17285714D01*
X37380952Y-17285714D01*
X37285714Y-17333333D01*
X37238095Y-17428571D01*
X37238095Y-17523809D01*
X37714285Y-17619047D01*
X36809523Y-17952380D02*
X36809523Y-17285714D01*
X36809523Y-17476190D02*
X36761904Y-17380952D01*
X36714285Y-17333333D01*
X36619047Y-17285714D01*
X36523809Y-17285714D01*
%LPC*%
D11*
X36250000Y-3570000D03*
X36250000Y-8450000D03*
D12*
X52080000Y-1850000D03*
X49540000Y-1850000D03*
X47000000Y-1850000D03*
X44460000Y-1850000D03*
D13*
X41920000Y-1850000D03*
D14*
X29802000Y-4000000D03*
D15*
X55500000Y-4142500D03*
D16*
X54500000Y-1442500D03*
X61500000Y-1442500D03*
D15*
X60500000Y-4142500D03*
M02*
